%FSLAX25Y25*%
%MOIN*%
G70*
G01*
G75*
G04 Layer_Physical_Order=1*
G04 Layer_Color=255*
%ADD10C,0.04000*%
%ADD11C,0.02000*%
%ADD12O,0.09843X0.02756*%
%ADD13R,0.04921X0.05906*%
%ADD14R,0.05709X0.04528*%
%ADD15R,0.05315X0.06102*%
%ADD16R,0.03740X0.05315*%
%ADD17R,0.05118X0.03347*%
%ADD18R,0.04528X0.05709*%
%ADD19R,0.06299X0.02165*%
%ADD20R,0.05906X0.04921*%
%ADD21R,0.04134X0.05512*%
%ADD22R,0.05315X0.03740*%
%ADD23R,0.06102X0.05315*%
%ADD24R,0.03347X0.05118*%
%ADD25R,0.04331X0.10236*%
%ADD26R,0.05512X0.04134*%
%ADD27O,0.02362X0.07480*%
%ADD28R,0.09055X0.09449*%
%ADD29R,0.13386X0.09055*%
%ADD30C,0.00700*%
%ADD31R,0.05906X0.05906*%
%ADD32C,0.05906*%
%ADD33R,0.05906X0.05906*%
%ADD34C,0.03000*%
G36*
X169461Y2039D02*
X91339D01*
Y10198D01*
X78843D01*
Y18198D01*
X2039D01*
Y33000D01*
X2039Y33000D01*
X2039Y33000D01*
Y33000D01*
Y103000D01*
X26000D01*
Y105961D01*
X26941D01*
Y102673D01*
X34059D01*
Y105961D01*
X36020D01*
Y105657D01*
X44319D01*
Y105657D01*
X44328D01*
X44681Y105304D01*
Y102342D01*
X44319D01*
Y102342D01*
X36020D01*
Y98177D01*
X36917D01*
Y96354D01*
X35693D01*
Y93539D01*
X34094D01*
Y95453D01*
X31893D01*
X31865Y95594D01*
X32183Y95980D01*
X34059D01*
Y98154D01*
X30500D01*
Y98654D01*
X30000D01*
Y101679D01*
X22654D01*
X21870Y101576D01*
X21141Y101274D01*
X20514Y100793D01*
X20226Y100506D01*
X19746Y99879D01*
X19657Y99665D01*
X19443Y99149D01*
X19340Y98366D01*
Y95453D01*
X18906D01*
Y92000D01*
X25827D01*
Y95453D01*
D01*
Y95453D01*
X26002Y95628D01*
X26998D01*
X27173Y95453D01*
X27173Y95274D01*
X27173Y95274D01*
X27173D01*
Y87547D01*
X34094D01*
Y89461D01*
X35693D01*
Y88646D01*
X42221D01*
Y96354D01*
X40996D01*
Y98177D01*
X44319D01*
Y101917D01*
X44681D01*
Y101917D01*
X52980D01*
Y101961D01*
X54547D01*
Y101406D01*
X54843D01*
Y95780D01*
X62157D01*
Y101406D01*
X62453D01*
Y108327D01*
X54547D01*
Y106039D01*
X52980D01*
Y106083D01*
X44681D01*
Y106083D01*
X44672D01*
X44319Y106436D01*
Y109823D01*
X41041D01*
X40950Y109884D01*
X40169Y110039D01*
X34059D01*
Y113327D01*
X26941D01*
Y110039D01*
X26000D01*
Y124461D01*
X169461D01*
Y2039D01*
D02*
G37*
%LPC*%
G36*
X67000Y102460D02*
X67000D01*
D01*
X67000D01*
D02*
G37*
G36*
X66000D02*
X66000D01*
D01*
X66000D01*
D02*
G37*
G36*
X162000Y19921D02*
Y16500D01*
X165421D01*
X165351Y17032D01*
X164953Y17993D01*
X164319Y18819D01*
X163493Y19453D01*
X162532Y19851D01*
X162000Y19921D01*
D02*
G37*
G36*
X155775Y64500D02*
Y63500D01*
X155841Y64000D01*
X155775Y64500D01*
D02*
G37*
G36*
X117669Y11500D02*
X109961D01*
Y8736D01*
X110789D01*
Y6500D01*
X110892Y5717D01*
X111195Y4987D01*
X111675Y4360D01*
X112302Y3880D01*
X113032Y3577D01*
X113815Y3474D01*
X114598Y3577D01*
X115328Y3880D01*
X115955Y4360D01*
X116436Y4987D01*
X116738Y5717D01*
X116841Y6500D01*
Y8736D01*
X117669D01*
Y11500D01*
D02*
G37*
G36*
X25827Y91000D02*
X22866D01*
Y87547D01*
X25827D01*
Y91000D01*
D02*
G37*
G36*
X21866D02*
X18906D01*
Y87547D01*
X21866D01*
Y91000D01*
D02*
G37*
G36*
X161000Y15500D02*
X157579D01*
X157649Y14968D01*
X158047Y14007D01*
X158681Y13181D01*
X159507Y12547D01*
X160468Y12149D01*
X161000Y12079D01*
Y15500D01*
D02*
G37*
G36*
X113315Y15264D02*
X109961D01*
Y12500D01*
X113315D01*
Y15264D01*
D02*
G37*
G36*
X117669D02*
X114315D01*
Y12500D01*
X117669D01*
Y15264D01*
D02*
G37*
G36*
X165421Y15500D02*
X162000D01*
Y12079D01*
X162532Y12149D01*
X163493Y12547D01*
X164319Y13181D01*
X164953Y14007D01*
X165351Y14968D01*
X165421Y15500D01*
D02*
G37*
G36*
X145815Y37431D02*
Y32748D01*
Y28065D01*
X146166Y28134D01*
X146888Y28616D01*
X147370Y29338D01*
X147446Y29722D01*
X148682D01*
X149032Y29577D01*
X149815Y29474D01*
X150598Y29577D01*
X151328Y29880D01*
X151955Y30360D01*
X152436Y30987D01*
X152738Y31717D01*
X152841Y32500D01*
X152738Y33283D01*
X152436Y34013D01*
X151955Y34640D01*
X151707Y34888D01*
X151080Y35368D01*
X150350Y35671D01*
X149567Y35774D01*
X147446D01*
X147370Y36158D01*
X146888Y36880D01*
X146166Y37362D01*
X145815Y37431D01*
D02*
G37*
G36*
X161000Y19921D02*
X160468Y19851D01*
X159507Y19453D01*
X158681Y18819D01*
X158047Y17993D01*
X157649Y17032D01*
X157579Y16500D01*
X161000D01*
Y19921D01*
D02*
G37*
G36*
X45543Y92000D02*
X42780D01*
Y88646D01*
X45543D01*
Y92000D01*
D02*
G37*
G36*
Y121854D02*
X42780D01*
Y118500D01*
X45543D01*
Y121854D01*
D02*
G37*
G36*
X66500Y102526D02*
X66000Y102460D01*
X67000D01*
X66500Y102526D01*
D02*
G37*
G36*
X67000Y102460D02*
Y99500D01*
X66000D01*
Y102460D01*
X65717Y102423D01*
X64987Y102120D01*
X64360Y101640D01*
X63880Y101013D01*
X63577Y100283D01*
X63474Y99500D01*
Y98094D01*
X62949D01*
Y94937D01*
X71051D01*
Y98094D01*
X69526D01*
Y99500D01*
X69423Y100283D01*
X69121Y101013D01*
X68640Y101640D01*
X68013Y102120D01*
X67283Y102423D01*
X67000Y102460D01*
D02*
G37*
G36*
X54960Y120000D02*
Y119000D01*
X55026Y119500D01*
X54960Y120000D01*
D02*
G37*
G36*
X52000Y122526D02*
X51500Y122460D01*
X52500D01*
X52000Y122526D01*
D02*
G37*
G36*
X51500Y122460D02*
X51217Y122423D01*
X50487Y122120D01*
X49860Y121640D01*
X49769Y121548D01*
X49307Y121740D01*
Y121854D01*
X46543D01*
Y118000D01*
X46043D01*
Y117500D01*
X42780D01*
Y116407D01*
X42636Y116348D01*
X42220Y116625D01*
Y121854D01*
X35693D01*
Y119386D01*
X34059D01*
Y120020D01*
X26941D01*
Y114673D01*
X34059D01*
Y115307D01*
X35693D01*
Y114146D01*
X38620D01*
X41208Y111558D01*
X41869Y111116D01*
X42650Y110961D01*
X54547D01*
Y109673D01*
X62453D01*
Y110961D01*
X69000D01*
X69780Y111116D01*
X70442Y111558D01*
X70442Y111558D01*
X70442Y111558D01*
X73345Y114461D01*
X115655D01*
X135461Y94655D01*
Y83448D01*
X135148Y82980D01*
X134669Y83125D01*
Y88307D01*
X126961D01*
D01*
D01*
X126961Y88307D01*
X126571Y88307D01*
Y88307D01*
X119059D01*
D01*
D01*
X119059Y88307D01*
X118571D01*
Y88307D01*
X111059D01*
Y82173D01*
X118571D01*
Y82173D01*
X118571D01*
X118571Y82173D01*
X119059D01*
Y82173D01*
X126571D01*
Y82173D01*
X126607D01*
X126961Y81820D01*
Y81780D01*
X134669D01*
Y81780D01*
X134929D01*
X134952Y81548D01*
X134743Y81235D01*
X134669Y81221D01*
D01*
D01*
X134669D01*
Y81221D01*
X134565D01*
Y81221D01*
X131315D01*
Y78457D01*
X134669D01*
Y80875D01*
X134765Y80904D01*
X134765Y80904D01*
D01*
D01*
D01*
X135148Y81020D01*
X135698Y80198D01*
X136524Y79645D01*
X137500Y79451D01*
X137508Y79445D01*
Y72244D01*
X137508Y72244D01*
X137508Y71756D01*
X137508D01*
Y65314D01*
X137029Y65169D01*
X136757Y65577D01*
X131892Y70442D01*
X131230Y70884D01*
X130860Y70957D01*
X130715Y71436D01*
X132955Y73675D01*
X133435Y74302D01*
X133598Y74693D01*
X134669D01*
Y77457D01*
X130815D01*
Y77957D01*
X130315D01*
Y81221D01*
X126961D01*
Y80827D01*
X126571D01*
Y80827D01*
X119059D01*
D01*
D01*
X119059Y80827D01*
X118571D01*
Y80827D01*
X111059D01*
Y74693D01*
X114652D01*
X114930Y74277D01*
X114880Y74158D01*
X114594D01*
Y67758D01*
X114166Y67501D01*
X114035Y67571D01*
Y74158D01*
X108295D01*
Y74094D01*
X107866D01*
Y74094D01*
X99764D01*
Y73539D01*
X98622D01*
Y75256D01*
X98622D01*
Y75339D01*
X98665Y75382D01*
X98665D01*
Y87343D01*
X100335D01*
Y88961D01*
X102970D01*
X103851Y88080D01*
X103660Y87618D01*
X102965D01*
Y75382D01*
X109295D01*
Y87618D01*
X108169D01*
Y88685D01*
X108014Y89465D01*
X107572Y90127D01*
X105257Y92442D01*
X104595Y92884D01*
X103815Y93039D01*
X101076D01*
X100885Y93501D01*
X108659Y101276D01*
X115874D01*
Y112724D01*
X104819D01*
Y103203D01*
X96274Y94657D01*
X94595D01*
Y87618D01*
X94036D01*
Y94657D01*
X91226D01*
X84873Y101011D01*
X85065Y101472D01*
X89693D01*
Y112528D01*
X74307D01*
Y101472D01*
X79961D01*
Y101000D01*
X79961Y101000D01*
X79961D01*
X80116Y100220D01*
X80558Y99558D01*
X88295Y91821D01*
Y91014D01*
X86561Y89279D01*
X83319D01*
Y89323D01*
X75020D01*
Y88886D01*
X71051D01*
Y90220D01*
X62949D01*
Y88886D01*
X62059D01*
Y89480D01*
X62157D01*
Y95221D01*
X54843D01*
Y93551D01*
X54352Y93454D01*
X54120Y94013D01*
X54009Y94159D01*
X53640Y94640D01*
X53013Y95121D01*
X52283Y95423D01*
X51500Y95526D01*
X49307D01*
Y96354D01*
X46543D01*
Y92500D01*
Y88646D01*
X49307D01*
Y89474D01*
X51500D01*
X51500Y89474D01*
X52283Y89577D01*
X53013Y89880D01*
X53640Y90360D01*
X54120Y90987D01*
X54352Y91546D01*
X54843Y91449D01*
Y89480D01*
X54941D01*
Y84173D01*
X62059D01*
Y84807D01*
X62949D01*
Y82913D01*
X62949Y82913D01*
X62949D01*
X62949Y82906D01*
X62980Y82562D01*
X62643Y82193D01*
X62059D01*
Y82827D01*
X54941D01*
Y77480D01*
Y72173D01*
X61900D01*
X62193Y71880D01*
Y70961D01*
X62059Y70827D01*
X61839Y70827D01*
X61839Y70827D01*
Y70827D01*
X54941D01*
Y65953D01*
X54906D01*
Y62539D01*
X52769D01*
X52533Y62980D01*
X52929Y63572D01*
X53114Y64500D01*
X52929Y65428D01*
X52403Y66214D01*
X52336Y66260D01*
X52287Y66757D01*
X52442Y66913D01*
X52442Y66913D01*
X52707Y67309D01*
X52884Y67574D01*
X53039Y68354D01*
Y73500D01*
X52884Y74280D01*
X52442Y74942D01*
X48942Y78442D01*
X48280Y78884D01*
X47500Y79039D01*
X31000D01*
X31000Y79039D01*
X30220Y78884D01*
X29558Y78442D01*
X18058Y66942D01*
X17616Y66280D01*
X17461Y65500D01*
Y51000D01*
X17616Y50220D01*
X18058Y49558D01*
X19558Y48058D01*
X19558D01*
X19558Y48058D01*
X19558Y48058D01*
Y48058D01*
X20220Y47616D01*
X21000Y47461D01*
X23083D01*
X23383Y47260D01*
X24311Y47076D01*
X26206D01*
X26412Y46767D01*
X30406Y42774D01*
Y37949D01*
X34567D01*
X37009Y35507D01*
X37671Y35065D01*
X38451Y34910D01*
X58949D01*
X59729Y35065D01*
X60391Y35507D01*
X79845Y54961D01*
X107000D01*
X107780Y55116D01*
X108442Y55558D01*
X112815Y59931D01*
X113230Y59653D01*
X113077Y59283D01*
X112974Y58500D01*
X113040Y58000D01*
Y59000D01*
Y59000D01*
X116000D01*
Y58000D01*
X113040D01*
X113077Y57717D01*
X113380Y56987D01*
X113720Y56543D01*
X113499Y56094D01*
X109764D01*
Y48779D01*
X117866D01*
Y49673D01*
X118059D01*
Y49673D01*
X124776D01*
Y48327D01*
X118059D01*
Y48221D01*
X117866D01*
Y48221D01*
X109764D01*
Y40905D01*
X111776D01*
Y37807D01*
X110059D01*
Y31673D01*
X117571D01*
D01*
X117571D01*
X117764Y31480D01*
Y30779D01*
X125866D01*
Y31461D01*
X128091D01*
Y30189D01*
X128153Y29880D01*
X127811Y29515D01*
X127252Y29589D01*
X125866D01*
Y30220D01*
X122315D01*
Y26563D01*
X121315D01*
Y30220D01*
X117924D01*
X117924Y30220D01*
Y30220D01*
X117764Y30220D01*
D01*
X117571Y30327D01*
X117410Y30327D01*
X117410Y30327D01*
Y30327D01*
X110059D01*
Y24193D01*
X111776D01*
Y22350D01*
X109961D01*
Y15823D01*
X117669D01*
Y17047D01*
X119508D01*
Y15288D01*
X119508Y15288D01*
X119508Y14799D01*
X119508D01*
Y7288D01*
X125642D01*
Y14799D01*
D01*
Y14799D01*
X125642Y14799D01*
Y15288D01*
X125642D01*
Y22552D01*
X125642Y22552D01*
X125642D01*
X125642Y22799D01*
X125866Y22906D01*
X125866Y23102D01*
X126276Y23389D01*
X126302Y23380D01*
X126302Y23380D01*
D01*
X127032Y23077D01*
X126995Y22799D01*
X126988D01*
Y21150D01*
X126931Y21064D01*
X126776Y20283D01*
X126931Y19503D01*
X126988Y19417D01*
Y15288D01*
X126988Y15288D01*
X126988Y14799D01*
X126988D01*
Y7288D01*
X133122D01*
Y9004D01*
X137098D01*
X137879Y9159D01*
X138540Y9601D01*
X140132Y11193D01*
X144071D01*
Y17327D01*
X139961D01*
X139076Y18211D01*
X139268Y18673D01*
X144071D01*
Y19701D01*
X157240D01*
X158020Y19856D01*
X158682Y20298D01*
X158682Y20298D01*
X158682Y20298D01*
X160525Y22141D01*
X161500Y22013D01*
X162532Y22149D01*
X163493Y22547D01*
X164319Y23181D01*
X164953Y24007D01*
X165351Y24968D01*
X165487Y26000D01*
X165351Y27032D01*
X164953Y27993D01*
X164319Y28819D01*
X163493Y29453D01*
X162532Y29851D01*
X161500Y29987D01*
X160468Y29851D01*
X159507Y29453D01*
X158681Y28819D01*
X158047Y27993D01*
X157649Y27032D01*
X157513Y26000D01*
X157641Y25025D01*
X156395Y23779D01*
X144071D01*
Y24807D01*
X142354D01*
Y29315D01*
X142370Y29338D01*
X142539Y30189D01*
Y30660D01*
X142685Y30710D01*
X143091Y30419D01*
Y30189D01*
X143260Y29338D01*
X143743Y28616D01*
X144464Y28134D01*
X144815Y28065D01*
Y32748D01*
Y37431D01*
X144464Y37362D01*
X143743Y36880D01*
X143260Y36158D01*
X143091Y35307D01*
Y35078D01*
X142685Y34786D01*
X142539Y34836D01*
Y35307D01*
X142370Y36158D01*
X141887Y36880D01*
X141624Y37056D01*
Y37556D01*
X142017Y37818D01*
X142017Y37818D01*
X142017Y37818D01*
X146757Y42558D01*
X146757Y42558D01*
X147022Y42955D01*
X147199Y43220D01*
X147354Y44000D01*
X147354Y44000D01*
X147354Y44000D01*
Y44000D01*
Y47819D01*
X147370Y47842D01*
X147539Y48693D01*
Y53811D01*
X147370Y54662D01*
X146888Y55383D01*
X146463Y55667D01*
X146608Y56146D01*
X147358D01*
Y60000D01*
X148358D01*
Y56146D01*
X151122D01*
Y58028D01*
X154955Y61860D01*
X155436Y62487D01*
X155738Y63217D01*
X155775Y63500D01*
X152815D01*
Y64500D01*
X155775D01*
X155741Y64761D01*
X156036Y64907D01*
X156198Y64974D01*
X159461Y61711D01*
Y39953D01*
X157547D01*
Y32047D01*
X165453D01*
Y39953D01*
X163539D01*
Y62555D01*
X163539Y62555D01*
X163384Y63336D01*
X162942Y63997D01*
X151122Y75817D01*
Y79756D01*
X147354D01*
X143668Y83442D01*
X143006Y83884D01*
X142226Y84039D01*
X139539D01*
Y95500D01*
X139384Y96280D01*
X139207Y96545D01*
X138942Y96942D01*
X138942Y96942D01*
X117942Y117942D01*
X117280Y118384D01*
X116500Y118539D01*
X72500D01*
X71720Y118384D01*
X71058Y117942D01*
X68155Y115039D01*
X62453D01*
Y116594D01*
X54547D01*
Y115039D01*
X52347D01*
X52187Y115513D01*
X52640Y115860D01*
X54140Y117360D01*
X54620Y117987D01*
X54923Y118717D01*
X54960Y119000D01*
X52000D01*
Y119500D01*
X51500D01*
Y122460D01*
D02*
G37*
G36*
X52500Y122460D02*
Y120000D01*
X54960D01*
X54923Y120283D01*
X54620Y121013D01*
X54140Y121640D01*
X53513Y122120D01*
X52783Y122423D01*
X52500Y122460D01*
D02*
G37*
G36*
X45543Y96354D02*
X42780D01*
Y93000D01*
X45543D01*
Y96354D01*
D02*
G37*
G36*
X71051Y93937D02*
X67500D01*
Y90780D01*
X71051D01*
Y93937D01*
D02*
G37*
G36*
X66500D02*
X62949D01*
Y90780D01*
X66500D01*
Y93937D01*
D02*
G37*
G36*
X31000Y101614D02*
Y99154D01*
X34059D01*
Y101327D01*
X31885D01*
X31283Y101576D01*
X31000Y101614D01*
D02*
G37*
%LPD*%
G36*
X114315Y3540D02*
X114315D01*
X113315D01*
X113315D01*
Y6500D01*
X114315D01*
Y3540D01*
D02*
G37*
G36*
X37704Y52912D02*
X38365Y52470D01*
X39146Y52315D01*
X39146Y52315D01*
X42592D01*
X42674Y52260D01*
X42725Y52250D01*
Y51750D01*
X42674Y51740D01*
X41888Y51214D01*
X41362Y50428D01*
X41277Y50000D01*
X47146D01*
Y49000D01*
X41277D01*
X41362Y48572D01*
X41888Y47786D01*
X42674Y47260D01*
X43602Y47076D01*
X44974D01*
Y46051D01*
X42437D01*
Y42000D01*
X41937D01*
Y41500D01*
X38280D01*
Y40657D01*
X38136Y40598D01*
X37721Y40876D01*
Y46051D01*
X32896D01*
X32168Y46779D01*
X32313Y47258D01*
X32326Y47260D01*
X33112Y47786D01*
X33638Y48572D01*
X33822Y49500D01*
X33638Y50428D01*
X33112Y51214D01*
X32326Y51740D01*
X32275Y51750D01*
Y52250D01*
X32326Y52260D01*
X33112Y52786D01*
X33638Y53572D01*
X33822Y54500D01*
X33638Y55428D01*
X33112Y56214D01*
X32326Y56740D01*
X32275Y56750D01*
Y57250D01*
X32326Y57260D01*
X32626Y57461D01*
X33155D01*
X37704Y52912D01*
D02*
G37*
G36*
X41650Y67343D02*
X43153D01*
X43202Y66845D01*
X42674Y66740D01*
X41888Y66214D01*
X41362Y65428D01*
X41178Y64500D01*
X41362Y63572D01*
X41888Y62786D01*
X42674Y62260D01*
X42725Y62250D01*
Y61750D01*
X42674Y61740D01*
X41888Y61214D01*
X41362Y60428D01*
X41178Y59500D01*
X41362Y58572D01*
X41888Y57786D01*
X42674Y57260D01*
X42725Y57250D01*
Y56750D01*
X42674Y56740D01*
X42156Y56393D01*
X39990D01*
X35442Y60942D01*
X34780Y61384D01*
X34000Y61539D01*
X32626D01*
X32326Y61740D01*
X32275Y61750D01*
Y62250D01*
X32326Y62260D01*
X33112Y62786D01*
X33638Y63572D01*
X33822Y64500D01*
X33638Y65428D01*
X33112Y66214D01*
X33097Y66363D01*
X34077Y67343D01*
X37721D01*
Y70240D01*
X37915Y70253D01*
X38280Y69911D01*
Y67343D01*
X40650D01*
Y71000D01*
X41650D01*
Y67343D01*
D02*
G37*
G36*
X83319Y85158D02*
X83328D01*
X83681Y84804D01*
Y81842D01*
X83319D01*
Y81842D01*
X81353D01*
X81309Y81899D01*
X80682Y82380D01*
X79952Y82683D01*
X79169Y82786D01*
X73106D01*
X72846Y82752D01*
Y79000D01*
X72346D01*
Y78500D01*
X69321D01*
Y75354D01*
X69280D01*
Y72000D01*
X72543D01*
Y71500D01*
X73043D01*
Y67646D01*
X75807D01*
Y68474D01*
X76974D01*
Y64772D01*
X77010Y64500D01*
X84035D01*
Y67854D01*
X83026D01*
Y71500D01*
X82923Y72283D01*
X82621Y73013D01*
X82140Y73640D01*
X81513Y74120D01*
X80783Y74423D01*
X80000Y74526D01*
X75807D01*
Y75354D01*
X75372D01*
Y76734D01*
X79169D01*
X79952Y76837D01*
X80682Y77139D01*
X81309Y77620D01*
X81353Y77677D01*
X83319D01*
Y79260D01*
X79169D01*
Y80260D01*
X83319D01*
Y81417D01*
X83681D01*
Y81417D01*
X91980D01*
Y81417D01*
X91981D01*
X92335Y81064D01*
Y75382D01*
X92488D01*
Y75256D01*
X92488D01*
Y67744D01*
X98622D01*
Y69461D01*
X99764D01*
Y66780D01*
X107866D01*
Y66843D01*
X108295D01*
Y66843D01*
X113305D01*
X113497Y66381D01*
X108328Y61212D01*
X107866Y61403D01*
Y62063D01*
X103815D01*
Y62563D01*
X103315D01*
Y66220D01*
X99764D01*
Y65526D01*
X95315D01*
X94532Y65423D01*
X93802Y65121D01*
X93175Y64640D01*
X92694Y64013D01*
X92392Y63283D01*
X92289Y62500D01*
X92355Y62000D01*
Y63000D01*
Y63000D01*
X95315D01*
Y62000D01*
X92355D01*
X92392Y61717D01*
X92694Y60987D01*
X93175Y60360D01*
X93802Y59879D01*
X94532Y59577D01*
X94829Y59538D01*
X94796Y59039D01*
X79000D01*
X78220Y58884D01*
X77558Y58442D01*
X61488Y42372D01*
X61026Y42563D01*
Y45193D01*
X61854D01*
Y47957D01*
X58000D01*
Y48457D01*
X57500D01*
Y51721D01*
X54146D01*
Y51539D01*
X51917D01*
X51617Y51740D01*
X51566Y51750D01*
Y52250D01*
X51617Y52260D01*
X51917Y52461D01*
X54146D01*
Y52280D01*
X61854D01*
Y53566D01*
X62324Y53659D01*
X62985Y54101D01*
X66931Y58047D01*
X70094D01*
Y65953D01*
X63173D01*
Y60057D01*
X62289Y59173D01*
X61827Y59364D01*
Y65480D01*
X62059D01*
Y67646D01*
X62059D01*
X62193D01*
X62413Y67646D01*
X62413Y67646D01*
Y67646D01*
X68720D01*
Y75354D01*
X68327D01*
Y75441D01*
X68327D01*
Y82552D01*
X68327Y82552D01*
D01*
D01*
X68327Y82559D01*
D01*
X68673Y82906D01*
X69673D01*
Y82906D01*
Y82559D01*
X69673Y82552D01*
X69673Y82552D01*
X69673D01*
Y80386D01*
X69424Y79783D01*
X69386Y79500D01*
X71846D01*
Y82559D01*
X71398D01*
X71051Y82906D01*
X71051Y82913D01*
X71051Y82913D01*
X71051D01*
Y84807D01*
X78776D01*
X79556Y84962D01*
X79848Y85158D01*
X83319D01*
Y85158D01*
D02*
G37*
%LPC*%
G36*
X91142Y75256D02*
X85008D01*
Y67854D01*
X84594D01*
Y60146D01*
X91122D01*
Y67744D01*
X91142D01*
Y75256D01*
D02*
G37*
G36*
X107866Y66220D02*
X104315D01*
Y63063D01*
X107866D01*
Y66220D01*
D02*
G37*
G36*
X72043Y71000D02*
X69280D01*
Y67646D01*
X72043D01*
Y71000D01*
D02*
G37*
G36*
X84035Y63500D02*
X81272D01*
Y60146D01*
X84035D01*
Y63500D01*
D02*
G37*
G36*
X41437Y46051D02*
X38280D01*
Y42500D01*
X41437D01*
Y46051D01*
D02*
G37*
G36*
X61854Y51721D02*
X58500D01*
Y48957D01*
X61854D01*
Y51721D01*
D02*
G37*
G36*
X80272Y63500D02*
X77280D01*
X77291Y63472D01*
X77380Y63259D01*
X77508Y63091D01*
Y60146D01*
X80272D01*
Y63500D01*
D02*
G37*
%LPD*%
D10*
X128000Y73000D02*
G03*
X129961Y77949I-4741J4741D01*
G01*
X116305Y58500D02*
G03*
X120098Y60071I0J5364D01*
G01*
X147858Y60854D02*
G03*
X150950Y62135I0J4372D01*
G01*
X150643Y66172D02*
G03*
X148055Y67244I-2587J-2587D01*
G01*
X80000Y67090D02*
G03*
X80958Y64777I3271J0D01*
G01*
X50500Y118000D02*
G03*
X52461Y119308I0J2125D01*
G01*
X49586Y118000D02*
G03*
X52354Y119147I0J3914D01*
G01*
X148055Y68000D02*
X148815D01*
X152815Y64000D01*
X148815Y60000D02*
X152815Y64000D01*
X147858Y60000D02*
X148815D01*
X73106Y79760D02*
X79169D01*
X95315Y62500D02*
X103752D01*
X149567Y32748D02*
X149815Y32500D01*
X145315Y32748D02*
X149567D01*
X127252Y26563D02*
X127815Y26000D01*
X121815Y26563D02*
X127252D01*
X116000Y58500D02*
X119063D01*
X113815Y6500D02*
Y12000D01*
X50500Y118000D02*
X52000Y119500D01*
X46043Y118000D02*
X50500D01*
X46043Y92500D02*
X51500D01*
X72347Y79000D02*
X73106Y79760D01*
X51500Y92500D02*
X51500Y92500D01*
X22654Y98654D02*
X30500D01*
X22366Y98366D02*
X22654Y98654D01*
X22366Y91500D02*
Y98366D01*
X72347Y71697D02*
Y79000D01*
X58000Y42500D02*
Y48457D01*
X41150Y71000D02*
X46000D01*
X48000Y42000D02*
Y48646D01*
X41937Y42000D02*
X48000D01*
X128000Y73000D02*
X130815Y75815D01*
X66500Y94937D02*
Y99500D01*
X72543Y71500D02*
X80000D01*
Y64772D02*
Y71500D01*
Y64772D02*
X80772Y64000D01*
D11*
X127648Y85240D02*
G03*
X129331Y85937I0J2379D01*
G01*
Y84150D02*
G03*
X126698Y85240I-2633J-2633D01*
G01*
X140315Y24316D02*
G03*
X141069Y22495I2576J0D01*
G01*
X139561D02*
G03*
X140315Y24316I-1821J1821D01*
G01*
X143580Y21740D02*
G03*
X141758Y20986I0J-2576D01*
G01*
Y22495D02*
G03*
X143580Y21740I1821J1821D01*
G01*
X137318Y11263D02*
G03*
X138559Y14260I-2997J2997D01*
G01*
D02*
G03*
X137438Y16965I-3826J0D01*
G01*
X108913Y70437D02*
G03*
X110550Y71115I0J2316D01*
G01*
Y69885D02*
G03*
X109217Y70437I-1333J-1333D01*
G01*
X117465Y73388D02*
G03*
X118080Y71903I2101J0D01*
G01*
X116849D02*
G03*
X117465Y73388I-1485J1485D01*
G01*
X118080Y85240D02*
G03*
X116258Y84486I0J-2576D01*
G01*
Y85995D02*
G03*
X118080Y85240I1821J1821D01*
G01*
X116565Y77649D02*
G03*
X117464Y75110I3112J-326D01*
G01*
X117465Y74464D02*
G03*
X115414Y76697I-2241J0D01*
G01*
X122815Y75184D02*
G03*
X122061Y77005I-2576J0D01*
G01*
X123569D02*
G03*
X122815Y75184I1821J-1821D01*
G01*
X126080Y85240D02*
G03*
X124258Y84486I-0J-2576D01*
G01*
X124258Y85995D02*
G03*
X126080Y85240I1821J1821D01*
G01*
X119550D02*
G03*
X121372Y85995I-0J2576D01*
G01*
X121372Y84486D02*
G03*
X119550Y85240I-1821J-1821D01*
G01*
X131815Y28353D02*
G03*
X130299Y30009I-1662J0D01*
G01*
X131815Y30537D02*
G03*
X130475Y32001I-1469J0D01*
G01*
X131815Y26131D02*
G03*
X130187Y30061I-5558J0D01*
G01*
Y32620D02*
G03*
X128062Y33500I-2125J-2125D01*
G01*
X133809Y45494D02*
G03*
X135134Y48693I-3199J3199D01*
G01*
X113815Y24684D02*
G03*
X113061Y26505I-2576J0D01*
G01*
X114569D02*
G03*
X113815Y24684I1821J-1821D01*
G01*
X113815Y37316D02*
G03*
X114569Y35495I2576J0D01*
G01*
X113061D02*
G03*
X113815Y37316I-1821J1821D01*
G01*
X118550Y45260D02*
G03*
X120372Y46014I0J2576D01*
G01*
Y44505D02*
G03*
X118550Y45260I-1822J-1822D01*
G01*
X123571Y45260D02*
G03*
X124812Y42262I4239J0D01*
G01*
X126815Y51000D02*
G03*
X122921Y51758I-2509J-2509D01*
G01*
X124717Y53098D02*
G03*
X122140Y53599I-1661J-1661D01*
G01*
X125075Y52740D02*
G03*
X123259Y51987I-0J-2564D01*
G01*
X123259Y53494D02*
G03*
X125075Y52740I1815J1810D01*
G01*
X118550Y52740D02*
G03*
X120372Y53495I-0J2576D01*
G01*
X120372Y51986D02*
G03*
X118550Y52740I-1821J-1821D01*
G01*
X119893Y45260D02*
G03*
X115381Y43391I0J-6381D01*
G01*
X113815Y40562D02*
G03*
X112643Y43391I-4001J0D01*
G01*
X114987Y43391D02*
G03*
X113815Y40561I2830J-2830D01*
G01*
X118942Y52740D02*
G03*
X115381Y51265I0J-5037D01*
G01*
X115381Y53609D02*
G03*
X117478Y52740I2098J2098D01*
G01*
X117457Y19087D02*
G03*
X115299Y18193I0J-3051D01*
G01*
Y19980D02*
G03*
X117456Y19087I2157J2157D01*
G01*
X113815Y22138D02*
G03*
X114709Y19980I3051J0D01*
G01*
X112921D02*
G03*
X113815Y22138I-2157J2157D01*
G01*
X132631Y11043D02*
G03*
X130810Y10289I0J-2575D01*
G01*
Y11798D02*
G03*
X132631Y11043I1822J1822D01*
G01*
X122575Y14308D02*
G03*
X123329Y12487I2576J0D01*
G01*
X121820D02*
G03*
X122575Y14308I-1821J1821D01*
G01*
X123381Y35609D02*
G03*
X128472Y33500I5092J5092D01*
G01*
X130315Y51071D02*
G03*
X127265Y58434I-10413J0D01*
G01*
X130315Y55899D02*
G03*
X128679Y59848I-5585J0D01*
G01*
X128500Y64243D02*
G03*
X129609Y61566I3786J0D01*
G01*
X127265D02*
G03*
X128500Y64547I-2982J2982D01*
G01*
X140575Y64117D02*
G03*
X141665Y61484I3723J0D01*
G01*
X139878D02*
G03*
X140575Y63166I-1682J1682D01*
G01*
Y56833D02*
G03*
X139878Y58516I-2379J0D01*
G01*
X141665D02*
G03*
X140575Y55883I2633J-2633D01*
G01*
Y71265D02*
G03*
X141329Y69443I2576J0D01*
G01*
X139820D02*
G03*
X140575Y71265I-1821J1821D01*
G01*
Y64735D02*
G03*
X139820Y66557I-2576J0D01*
G01*
X141329D02*
G03*
X140575Y64735I1821J-1821D01*
G01*
Y72735D02*
G03*
X139820Y74557I-2576J0D01*
G01*
X141329D02*
G03*
X140575Y72735I1821J-1821D01*
G01*
X151052Y73002D02*
G03*
X148055Y74244I-2997J-2997D01*
G01*
X122575Y15779D02*
G03*
X121820Y17600I-2576J0D01*
G01*
X123329D02*
G03*
X122575Y15779I1821J-1821D01*
G01*
X120103Y19087D02*
G03*
X121820Y19798I0J2428D01*
G01*
Y18289D02*
G03*
X119895Y19087I-1926J-1926D01*
G01*
X62291Y74665D02*
G03*
X65457Y73354I3165J3165D01*
G01*
X96075Y74346D02*
G03*
X94676Y77723I-4776J0D01*
G01*
X90386Y83500D02*
G03*
X94676Y85277I0J6066D01*
G01*
X106130Y87266D02*
G03*
X106954Y85277I2814J0D01*
G01*
X105306D02*
G03*
X106130Y87266I-1989J1989D01*
G01*
X108210Y70437D02*
G03*
X105381Y69265I0J-4002D01*
G01*
X105381Y71609D02*
G03*
X108210Y70437I2829J2829D01*
G01*
X75952Y86847D02*
G03*
X77044Y87299I0J1544D01*
G01*
X91165Y89342D02*
G03*
X88336Y88170I0J-4002D01*
G01*
X99565Y91000D02*
G03*
X98080Y90385I0J-2101D01*
G01*
Y91615D02*
G03*
X99565Y91000I1485J1485D01*
G01*
X65178Y79410D02*
G03*
X63382Y80154I-1796J-1796D01*
G01*
X58500Y100750D02*
G03*
X59115Y99265I2101J0D01*
G01*
X57885D02*
G03*
X58500Y100750I-1485J1485D01*
G01*
Y90250D02*
G03*
X57885Y91735I-2101J0D01*
G01*
X59115D02*
G03*
X58500Y90250I1485J-1485D01*
G01*
X86965Y65484D02*
G03*
X88815Y69951I-4467J4467D01*
G01*
Y66448D02*
G03*
X87320Y70057I-5103J0D01*
G01*
X88389Y68361D02*
G03*
X87667Y69825I-1196J320D01*
G01*
X94801Y72943D02*
G03*
X96075Y76019I-3076J3076D01*
G01*
X98131Y71500D02*
G03*
X96310Y70746I0J-2576D01*
G01*
Y72254D02*
G03*
X98131Y71500I1821J1821D01*
G01*
X58500Y101340D02*
G03*
X57467Y103833I-3526J0D01*
G01*
X59533D02*
G03*
X58500Y101340I2493J-2493D01*
G01*
X62195Y113000D02*
G03*
X60025Y112101I0J-3070D01*
G01*
Y114167D02*
G03*
X62841Y113000I2816J2816D01*
G01*
X54159D02*
G03*
X56975Y114167I0J3983D01*
G01*
Y112101D02*
G03*
X54805Y113000I-2170J-2170D01*
G01*
X38957Y97997D02*
G03*
X38044Y100201I-3117J0D01*
G01*
X13521Y110829D02*
G03*
X16350Y109658I2829J2829D01*
G01*
X24750Y108000D02*
G03*
X23265Y107385I0J-2101D01*
G01*
Y108615D02*
G03*
X24750Y108000I1485J1485D01*
G01*
X35754Y117347D02*
G03*
X38063Y118303I0J3266D01*
G01*
Y116516D02*
G03*
X36058Y117347I-2005J-2005D01*
G01*
X38957Y96142D02*
G03*
X39850Y93984I3051J0D01*
G01*
X38063D02*
G03*
X38957Y96141I-2157J2157D01*
G01*
X34160Y91500D02*
G03*
X31667Y90467I0J-3526D01*
G01*
Y92533D02*
G03*
X34160Y91500I2493J2493D01*
G01*
X56516Y47563D02*
G03*
X51840Y49500I-4676J-4676D01*
G01*
X51839Y54500D02*
G03*
X56516Y56437I0J6613D01*
G01*
X61543Y55543D02*
G03*
X59505Y54671I0J-2817D01*
G01*
X59505Y56416D02*
G03*
X61543Y55543I2038J1945D01*
G01*
X58500Y65695D02*
G03*
X59399Y63525I3070J0D01*
G01*
X57333D02*
G03*
X58500Y66341I-2816J2816D01*
G01*
X52342Y49365D02*
G03*
X50878Y49173I-499J-1864D01*
G01*
X50878Y54827D02*
G03*
X52342Y54635I965J1671D01*
G01*
X54016Y60500D02*
G03*
X50956Y59233I0J-4327D01*
G01*
X9953Y118500D02*
G03*
X12854Y111497I9904J0D01*
G01*
X7953Y118500D02*
G03*
X9439Y114911I5076J0D01*
G01*
X128933Y65250D02*
G03*
X128701Y63491I2007J-1159D01*
G01*
X128272Y63695D02*
G03*
X128067Y65250I-1979J530D01*
G01*
X128147Y65146D02*
G03*
X126466Y65842I-1681J-1681D01*
G01*
X148055Y76000D02*
Y76171D01*
Y76000D02*
X161500Y62555D01*
Y36000D02*
Y62555D01*
X130315Y51252D02*
Y57185D01*
X127500Y60000D02*
X130315Y57185D01*
X30500Y117347D02*
X38303D01*
X27854Y48209D02*
X34063Y42000D01*
X58500Y98650D02*
Y104866D01*
X48831Y104000D02*
X57366D01*
X95555Y71500D02*
X102752D01*
X103815Y70437D02*
X111102D01*
X96075Y71500D02*
Y80925D01*
X102752Y71500D02*
X103815Y70437D01*
X87831Y83500D02*
X93500D01*
X95500Y81500D01*
X113815Y19087D02*
Y27260D01*
X122575Y11043D02*
Y19043D01*
X113815Y19087D02*
X122531D01*
X56957Y49500D02*
X58000Y48457D01*
X49232Y49500D02*
X56957D01*
X66634Y60634D02*
Y62000D01*
X61543Y55543D02*
X66634Y60634D01*
X58000Y55543D02*
X61543D01*
X56957Y54500D02*
X58000Y55543D01*
X47146Y54354D02*
Y54500D01*
X27854Y59500D02*
X34000D01*
X47146Y54500D02*
X56957D01*
X39146Y54354D02*
X47146D01*
X34000Y59500D02*
X39146Y54354D01*
X28350Y64500D02*
X34850Y71000D01*
X27854Y64500D02*
X28350D01*
X87406Y87240D02*
X91165Y91000D01*
X79169Y87240D02*
X87406D01*
X58500Y86847D02*
X78776D01*
X58500D02*
Y92350D01*
X24000Y108000D02*
X40169D01*
X38957Y92500D02*
Y99547D01*
X30634Y91500D02*
X37957D01*
X103815Y91000D02*
X106130Y88685D01*
Y81500D02*
Y88685D01*
X88815Y64043D02*
Y70760D01*
X117465Y70500D02*
Y75110D01*
X114815Y77760D02*
X117465Y75110D01*
X58500Y74847D02*
X62110D01*
X65457Y71500D01*
X58500Y80154D02*
X64500D01*
X58500Y74847D02*
Y80154D01*
X140315Y51252D02*
X140575Y51512D01*
Y76000D01*
X114815Y85240D02*
X130618D01*
X130315Y32748D02*
X131815Y31248D01*
X129563Y33500D02*
X130315Y32748D01*
X128815Y20283D02*
X131815Y17284D01*
Y31248D01*
X123752Y33500D02*
X129563D01*
X122815Y34437D02*
X123752Y33500D01*
X145315Y44000D02*
Y51252D01*
X140575Y39260D02*
X145315Y44000D01*
X127815Y39260D02*
X140575D01*
X121815Y45260D02*
X127815Y39260D01*
X114512Y45260D02*
X121815D01*
X113815Y34740D02*
Y44563D01*
Y34740D02*
X113815Y34740D01*
X126815Y46000D02*
Y51000D01*
X132315Y44000D02*
X135315Y47000D01*
X128815Y44000D02*
X132315D01*
X126815Y46000D02*
X128815Y44000D01*
X114118Y52740D02*
X125075D01*
X126815Y51000D01*
X135559Y18845D02*
X140144Y14260D01*
X140315D01*
X135559Y18845D02*
Y32504D01*
X137098Y11043D02*
X140315Y14260D01*
X135315Y32748D02*
X135559Y32504D01*
X130055Y11043D02*
X137098D01*
X58500Y62134D02*
Y68154D01*
X56866Y60500D02*
X58366Y62000D01*
X48146Y60500D02*
X56866D01*
X47146Y59500D02*
X48146Y60500D01*
X157240Y21740D02*
X161500Y26000D01*
X140315Y21740D02*
X157240D01*
X140315D02*
Y32748D01*
X140315Y21740D02*
X140315D01*
X97465Y91000D02*
X103815D01*
X135315Y47000D02*
Y64135D01*
X122815Y71685D02*
Y77760D01*
X130450Y69000D02*
X135315Y64135D01*
X125500Y69000D02*
X130450D01*
X122815Y71685D02*
X125500Y69000D01*
X19500Y51000D02*
X21000Y49500D01*
X19500Y51000D02*
Y65500D01*
X31000Y77000D01*
X47500D01*
X51000Y73500D01*
Y68354D02*
Y73500D01*
X47146Y64500D02*
X51000Y68354D01*
X21000Y49500D02*
X27854D01*
X142226Y82000D02*
X148055Y76171D01*
X137500Y82000D02*
X142226D01*
X137500D02*
Y95500D01*
X115842Y65842D02*
X128500D01*
Y60063D02*
Y66000D01*
X107000Y57000D02*
X115842Y65842D01*
X79000Y57000D02*
X107000D01*
X38303Y117347D02*
X42650Y113000D01*
X58949Y36949D02*
X79000Y57000D01*
X34063Y41337D02*
X38451Y36949D01*
X58949D01*
X34063Y41337D02*
Y42000D01*
X97465Y91000D02*
Y91000D01*
Y92965D01*
X110346Y105847D01*
Y107000D01*
X82000Y101000D02*
Y107000D01*
Y101000D02*
X91165Y91835D01*
Y91000D02*
Y91835D01*
X69000Y113000D02*
X72500Y116500D01*
X116500D01*
X137500Y95500D01*
X42650Y113000D02*
X69000D01*
X8000Y116350D02*
Y118500D01*
Y116350D02*
X16350Y108000D01*
D12*
X27854Y64500D02*
D03*
Y59500D02*
D03*
Y54500D02*
D03*
Y49500D02*
D03*
X47146Y64500D02*
D03*
Y59500D02*
D03*
Y54500D02*
D03*
Y49500D02*
D03*
D13*
X66634Y62000D02*
D03*
X58366D02*
D03*
X30634Y91500D02*
D03*
X22366D02*
D03*
D14*
X58000Y55543D02*
D03*
Y48457D02*
D03*
X113815Y19087D02*
D03*
Y12000D02*
D03*
X130815Y85043D02*
D03*
Y77957D02*
D03*
D15*
X41937Y42000D02*
D03*
X34063D02*
D03*
X120563Y60000D02*
D03*
X128437D02*
D03*
D16*
X34850Y71000D02*
D03*
X41150D02*
D03*
X22650Y108000D02*
D03*
X16350D02*
D03*
X97465Y91000D02*
D03*
X91165D02*
D03*
X117465Y70500D02*
D03*
X111165D02*
D03*
D17*
X30500Y117346D02*
D03*
Y110654D02*
D03*
Y105346D02*
D03*
Y98654D02*
D03*
X58500Y86846D02*
D03*
Y80154D02*
D03*
Y68154D02*
D03*
Y74846D02*
D03*
D18*
X46043Y92500D02*
D03*
X38957D02*
D03*
X38957Y118000D02*
D03*
X46043D02*
D03*
X80772Y64000D02*
D03*
X87858D02*
D03*
X65457Y71500D02*
D03*
X72543D02*
D03*
X140772Y60000D02*
D03*
X147858D02*
D03*
D19*
X48831Y104000D02*
D03*
X40169Y100260D02*
D03*
Y107740D02*
D03*
X87831Y83500D02*
D03*
X79169Y79760D02*
D03*
Y87240D02*
D03*
D20*
X58500Y113134D02*
D03*
Y104866D02*
D03*
D21*
X95555Y71500D02*
D03*
X88075D02*
D03*
X122575Y19043D02*
D03*
X130055D02*
D03*
X148055Y76000D02*
D03*
X140575D02*
D03*
Y68000D02*
D03*
X148055D02*
D03*
X122575Y11043D02*
D03*
X130055D02*
D03*
D22*
X58500Y92350D02*
D03*
Y98650D02*
D03*
D23*
X67000Y86563D02*
D03*
Y94437D02*
D03*
X103815Y70437D02*
D03*
Y62563D02*
D03*
X121815Y26563D02*
D03*
Y34437D02*
D03*
X113815Y52437D02*
D03*
Y44563D02*
D03*
D24*
X65654Y79000D02*
D03*
X72346D02*
D03*
D25*
X106130Y81500D02*
D03*
X95500D02*
D03*
D26*
X121815Y52740D02*
D03*
Y45260D02*
D03*
X113815Y34740D02*
D03*
Y27260D02*
D03*
X122815Y85240D02*
D03*
Y77760D02*
D03*
X114815D02*
D03*
Y85240D02*
D03*
X140315Y14260D02*
D03*
Y21740D02*
D03*
D27*
X145315Y51252D02*
D03*
X140315D02*
D03*
X135315D02*
D03*
X130315D02*
D03*
X145315Y32748D02*
D03*
X140315D02*
D03*
X135315D02*
D03*
X130315D02*
D03*
D28*
X110346Y107000D02*
D03*
D29*
X82000D02*
D03*
D30*
X3000Y11500D02*
Y14832D01*
X4666Y16498D01*
X6332Y14832D01*
Y11500D01*
Y13999D01*
X3000D01*
X7998Y11500D02*
X9664D01*
X8831D01*
Y16498D01*
X7998D01*
X12164Y9834D02*
Y14832D01*
X14663D01*
X15496Y13999D01*
Y12333D01*
X14663Y11500D01*
X12164D01*
X17995Y14832D02*
X19661D01*
X20494Y13999D01*
Y11500D01*
X17995D01*
X17162Y12333D01*
X17995Y13166D01*
X20494D01*
X25493Y14832D02*
X22994D01*
X22161Y13999D01*
Y12333D01*
X22994Y11500D01*
X25493D01*
X27992Y14832D02*
X29658D01*
X30491Y13999D01*
Y11500D01*
X27992D01*
X27159Y12333D01*
X27992Y13166D01*
X30491D01*
X35489Y15665D02*
X34656Y16498D01*
X32990D01*
X32157Y15665D01*
Y14832D01*
X32990Y13999D01*
X34656D01*
X35489Y13166D01*
Y12333D01*
X34656Y11500D01*
X32990D01*
X32157Y12333D01*
X39655Y11500D02*
X37989D01*
X37156Y12333D01*
Y13999D01*
X37989Y14832D01*
X39655D01*
X40488Y13999D01*
Y13166D01*
X37156D01*
X45486Y14832D02*
X42987D01*
X42154Y13999D01*
Y12333D01*
X42987Y11500D01*
X45486D01*
X55483Y15665D02*
X54650Y16498D01*
X52984D01*
X52151Y15665D01*
Y14832D01*
X52984Y13999D01*
X54650D01*
X55483Y13166D01*
Y12333D01*
X54650Y11500D01*
X52984D01*
X52151Y12333D01*
X57982Y11500D02*
X59648D01*
X60481Y12333D01*
Y13999D01*
X59648Y14832D01*
X57982D01*
X57149Y13999D01*
Y12333D01*
X57982Y11500D01*
X62147D02*
X63814D01*
X62981D01*
Y16498D01*
X62147D01*
X66313Y11500D02*
Y14832D01*
X68812D01*
X69645Y13999D01*
Y11500D01*
X71311D02*
X73810D01*
X74643Y12333D01*
X73810Y13166D01*
X72144D01*
X71311Y13999D01*
X72144Y14832D01*
X74643D01*
X76310Y11500D02*
Y12333D01*
X77143D01*
Y11500D01*
X76310D01*
X3000Y8498D02*
Y3500D01*
X5499D01*
X6332Y4333D01*
Y5166D01*
X5499Y5999D01*
X3000D01*
X5499D01*
X6332Y6832D01*
Y7665D01*
X5499Y8498D01*
X3000D01*
X7998Y3500D02*
X9664D01*
X8831D01*
Y8498D01*
X7998D01*
X12997Y6832D02*
X14663D01*
X15496Y5999D01*
Y3500D01*
X12997D01*
X12164Y4333D01*
X12997Y5166D01*
X15496D01*
X20494Y6832D02*
X17995D01*
X17162Y5999D01*
Y4333D01*
X17995Y3500D01*
X20494D01*
X22161D02*
Y8498D01*
Y5166D02*
X24660Y6832D01*
X22161Y5166D02*
X24660Y3500D01*
X30491Y7665D02*
X29658Y8498D01*
X27992D01*
X27159Y7665D01*
Y4333D01*
X27992Y3500D01*
X29658D01*
X30491Y4333D01*
X32157Y8498D02*
Y3500D01*
Y5999D01*
X32990Y6832D01*
X34656D01*
X35489Y5999D01*
Y3500D01*
X37989Y6832D02*
X39655D01*
X40488Y5999D01*
Y3500D01*
X37989D01*
X37156Y4333D01*
X37989Y5166D01*
X40488D01*
X42987Y7665D02*
Y6832D01*
X42154D01*
X43820D01*
X42987D01*
Y4333D01*
X43820Y3500D01*
X51318D02*
Y8498D01*
X53817D01*
X54650Y7665D01*
Y5999D01*
X53817Y5166D01*
X51318D01*
X52984D02*
X54650Y3500D01*
X56316Y8498D02*
X59648Y3500D01*
Y8498D02*
X56316Y3500D01*
X66313Y8498D02*
Y3500D01*
X68812D01*
X69645Y4333D01*
Y5166D01*
X68812Y5999D01*
X66313D01*
X68812D01*
X69645Y6832D01*
Y7665D01*
X68812Y8498D01*
X66313D01*
X72144Y3500D02*
X73810D01*
X74643Y4333D01*
Y5999D01*
X73810Y6832D01*
X72144D01*
X71311Y5999D01*
Y4333D01*
X72144Y3500D01*
X77143Y6832D02*
X78809D01*
X79642Y5999D01*
Y3500D01*
X77143D01*
X76310Y4333D01*
X77143Y5166D01*
X79642D01*
X81308Y6832D02*
Y3500D01*
Y5166D01*
X82141Y5999D01*
X82974Y6832D01*
X83807D01*
X89639Y8498D02*
Y3500D01*
X87139D01*
X86306Y4333D01*
Y5999D01*
X87139Y6832D01*
X89639D01*
D31*
X8000Y118500D02*
D03*
D32*
X161500Y16000D02*
D03*
Y26000D02*
D03*
D33*
Y36000D02*
D03*
D34*
X7000Y96000D02*
D03*
X6500Y49000D02*
D03*
Y38500D02*
D03*
X19000Y38000D02*
D03*
X82500Y14500D02*
D03*
X94500D02*
D03*
X56500Y27500D02*
D03*
X106500D02*
D03*
X94000D02*
D03*
X81500D02*
D03*
X44000D02*
D03*
X31500D02*
D03*
X19000D02*
D03*
X6500D02*
D03*
X120000Y121000D02*
D03*
X102500Y122000D02*
D03*
X89500D02*
D03*
X77000D02*
D03*
X64000D02*
D03*
X129500Y93500D02*
D03*
X116500D02*
D03*
X136500Y118000D02*
D03*
Y105000D02*
D03*
X150000Y91000D02*
D03*
Y118000D02*
D03*
Y105000D02*
D03*
X163000Y91000D02*
D03*
Y118000D02*
D03*
Y78000D02*
D03*
Y105000D02*
D03*
X81000Y51500D02*
D03*
Y38500D02*
D03*
X93000Y51500D02*
D03*
X69000Y27500D02*
D03*
X93000Y38500D02*
D03*
X106500Y51500D02*
D03*
Y14500D02*
D03*
Y38500D02*
D03*
X6500Y72000D02*
D03*
Y59000D02*
D03*
X20000Y83500D02*
D03*
X47000D02*
D03*
X7000D02*
D03*
X34000D02*
D03*
X152815Y64000D02*
D03*
X80000Y71500D02*
D03*
X95315Y62500D02*
D03*
X149815Y32500D02*
D03*
X127815Y26000D02*
D03*
X116000Y58500D02*
D03*
X113815Y6500D02*
D03*
X52000Y119500D02*
D03*
X51500Y92500D02*
D03*
X22366Y98366D02*
D03*
X58000Y42500D02*
D03*
X46000Y71000D02*
D03*
X48000Y42000D02*
D03*
X128000Y73000D02*
D03*
X66500Y99500D02*
D03*
X137500Y82000D02*
D03*
X128500Y65500D02*
D03*
M02*
