M48
;Layer_Color=9474304
;FILE_FORMAT=2:5
INCH,LZ
;TYPE=PLATED
T1F00S00C0.01500
T2F00S00C0.03543
%
T01
X00105Y0021
X0016Y0016
X0022214
X0028429
X0034643
X0040857
X0047071
Y0023
X0040857
X00315Y0024
X00235
X0005Y0041
Y0047
X001025
X0058Y0037
Y00325
X00595Y0023
X0053286
Y0016
X00595
X00505Y0028
X0058Y0068
X0056Y0075
X005
X0053Y008125
X0059
Y00875
X0053
X0047
Y008125
X00285Y00765
X00235
X00285Y00715
X00335
Y00665
X00385
X004Y00585
X00335Y00565
Y00615
X00155Y0059
X001025
X0005
Y0053
X001025
X0008Y00675
X00155Y0065
T02
X0008Y0087
X0018
X0028
M30
