%FSLAX25Y25*%
%MOIN*%
G70*
G01*
G75*
G04 Layer_Physical_Order=1*
G04 Layer_Color=255*
%ADD10C,0.01500*%
%ADD11R,0.05512X0.04331*%
%ADD12R,0.10236X0.04331*%
%ADD13R,0.02953X0.04724*%
%ADD14R,0.04724X0.02953*%
%ADD15R,0.04331X0.05512*%
%ADD16R,0.02362X0.05512*%
%ADD17R,0.02362X0.07087*%
%ADD18R,0.02165X0.06299*%
%ADD19C,0.00700*%
%ADD20R,0.05906X0.05906*%
%ADD21C,0.05906*%
%ADD22C,0.03000*%
G36*
X37543Y56980D02*
Y49106D01*
X35181Y46744D01*
X32819D01*
X30457Y49106D01*
Y56980D01*
X32819Y59342D01*
X35181D01*
X37543Y56980D01*
D02*
G37*
G36*
X47716Y64118D02*
X45744D01*
Y62341D01*
X43830Y61761D01*
X43802Y61802D01*
X42976Y62355D01*
X42500Y62450D01*
Y60000D01*
X41500D01*
Y62450D01*
X41025Y62355D01*
X40198Y61802D01*
X40185Y61784D01*
X39259D01*
X36476Y64567D01*
Y67882D01*
X36476D01*
Y68109D01*
X37891Y69524D01*
X42087D01*
Y70031D01*
X47716D01*
Y64118D01*
D02*
G37*
G36*
X72047Y95971D02*
Y94953D01*
X72047Y94556D01*
X72047Y94556D01*
X72047D01*
Y87047D01*
X74216D01*
Y84618D01*
X73244D01*
Y78287D01*
Y72382D01*
X74216D01*
Y67739D01*
X69261Y62784D01*
X67118D01*
Y64350D01*
X54882D01*
Y64118D01*
X53256D01*
Y64118D01*
X51284Y64118D01*
Y70031D01*
X54882D01*
Y68650D01*
X67118D01*
Y74980D01*
X54882D01*
Y73599D01*
X49500D01*
X49500Y73599D01*
X42087D01*
Y74476D01*
X40509D01*
Y82276D01*
X40373Y82958D01*
X39986Y83537D01*
X37762Y85762D01*
X37183Y86149D01*
X36500Y86284D01*
X27635D01*
X27055Y88198D01*
X27802Y88698D01*
X28355Y89525D01*
X28449Y90000D01*
X23550D01*
X23645Y89525D01*
X24198Y88698D01*
X24945Y88198D01*
X24364Y86284D01*
X17000D01*
X17000Y86284D01*
X16317Y86149D01*
X15738Y85762D01*
X12786Y82809D01*
X12399Y82230D01*
X12263Y81547D01*
Y75756D01*
X10882Y75756D01*
Y75756D01*
X10882D01*
X10169Y72381D01*
X8317Y71627D01*
X7975Y71855D01*
X7500Y71949D01*
Y69500D01*
Y67050D01*
X7975Y67145D01*
X8802Y67698D01*
X9355Y68524D01*
X10116Y69010D01*
X10882Y68244D01*
Y68244D01*
X12263D01*
Y62953D01*
X12263Y62953D01*
X12263D01*
X12399Y62270D01*
X12786Y61691D01*
X14216Y60261D01*
Y55480D01*
X9882D01*
Y50203D01*
X9432Y49962D01*
D01*
X8354Y49386D01*
X8354Y49386D01*
X8118Y49260D01*
X7975Y49355D01*
X7500Y49450D01*
Y47500D01*
X9449D01*
X9429Y47604D01*
X9623Y47840D01*
X9623Y47840D01*
X10194Y48536D01*
X10748Y48906D01*
X10748Y48906D01*
X11112Y49150D01*
X22118D01*
Y55480D01*
X17784D01*
Y61000D01*
X17784Y61000D01*
X17649Y61683D01*
X17262Y62262D01*
X15832Y63692D01*
Y68244D01*
X23118D01*
Y70216D01*
X25913D01*
Y69524D01*
X26310D01*
Y46169D01*
X25913D01*
Y38658D01*
X30276D01*
Y38658D01*
X30276D01*
X30276Y38658D01*
X31819D01*
D01*
X32216Y38658D01*
Y32980D01*
X31917D01*
Y24681D01*
D01*
D01*
X31917D01*
D01*
Y24681D01*
D01*
D01*
D01*
Y24319D01*
D01*
X28177D01*
Y16020D01*
X28476D01*
Y12256D01*
X21382D01*
Y10784D01*
X12453D01*
Y12953D01*
X4547D01*
Y5047D01*
X12453D01*
Y7216D01*
X21382D01*
Y4744D01*
X33618D01*
Y11512D01*
X35609Y11708D01*
X35645Y11525D01*
X36198Y10698D01*
X37025Y10145D01*
X37500Y10051D01*
Y12500D01*
X38000D01*
Y13000D01*
X40450D01*
X40355Y13476D01*
X39802Y14302D01*
X39802Y14302D01*
X39127Y15064D01*
D01*
X39823Y16020D01*
D01*
D01*
D01*
X39823Y16263D01*
X39823Y16263D01*
X39823D01*
Y19669D01*
X35658D01*
Y16159D01*
X35658Y16159D01*
X35658Y16159D01*
X35658Y16020D01*
X36268Y15500D01*
X36198Y14302D01*
X36198D01*
X36198Y14302D01*
D01*
D01*
D01*
X35645Y13476D01*
X35451Y12500D01*
X33618Y12256D01*
Y12256D01*
X32044Y12256D01*
Y16020D01*
X32342D01*
Y24319D01*
D01*
D01*
D01*
D01*
X32342Y24319D01*
X32342Y24319D01*
X32342D01*
X32705Y24681D01*
X35658D01*
Y24681D01*
Y24319D01*
X35658Y24319D01*
X35658Y24319D01*
D01*
X35658D01*
Y20669D01*
X37240D01*
Y24319D01*
X36083D01*
Y24681D01*
D01*
D01*
Y24681D01*
X36083D01*
Y32980D01*
X35784D01*
Y38658D01*
X36181Y38658D01*
D01*
D01*
X37724D01*
Y38658D01*
X42087D01*
Y46169D01*
X41690D01*
Y47166D01*
X43239Y48716D01*
X52349D01*
X53032Y48851D01*
X53611Y49238D01*
X58262Y53889D01*
X58262Y53889D01*
X58455Y54179D01*
X58649Y54468D01*
X58784Y55151D01*
X58784Y55151D01*
Y58020D01*
X67118D01*
Y59216D01*
X70000D01*
X70683Y59351D01*
X71262Y59738D01*
X77262Y65738D01*
X77262Y65738D01*
X77649Y66317D01*
X77784Y67000D01*
Y72382D01*
X79556D01*
X79556Y72382D01*
Y72382D01*
X80756Y72382D01*
X80971Y72167D01*
Y10198D01*
X80971D01*
X80690D01*
X79556Y10198D01*
X79556Y10198D01*
Y10198D01*
X44800D01*
Y2944D01*
X44800Y2944D01*
X44800D01*
X44800Y1800D01*
X44529Y1529D01*
X1529D01*
Y95971D01*
X72047D01*
Y95971D01*
D02*
G37*
G36*
X31524Y79980D02*
X34000D01*
Y78980D01*
X31524D01*
Y76118D01*
X31524D01*
Y75891D01*
X30109Y74476D01*
X25913D01*
Y73784D01*
X23118D01*
X23118Y75756D01*
X23118D01*
D01*
X23257Y76455D01*
X23500Y76617D01*
Y79000D01*
X21551D01*
X21645Y78525D01*
X22198Y77698D01*
X22239Y77670D01*
X21659Y75756D01*
X15832D01*
Y80808D01*
X17739Y82716D01*
X21021D01*
X21963Y80952D01*
X21645Y80475D01*
X21551Y80000D01*
X26449D01*
X26355Y80475D01*
X26037Y80952D01*
X26979Y82716D01*
X31524D01*
Y79980D01*
D02*
G37*
%LPC*%
G36*
X47000Y33500D02*
X45050D01*
X45145Y33024D01*
X45698Y32198D01*
X46525Y31645D01*
X47000Y31550D01*
Y33500D01*
D02*
G37*
G36*
X9449Y46500D02*
X7500D01*
Y44550D01*
X7975Y44645D01*
X8118Y44740D01*
X8354Y44614D01*
X8354Y44614D01*
X9432Y44038D01*
D01*
X9882Y43797D01*
Y38520D01*
X14216D01*
Y30656D01*
X12254Y30266D01*
X11953Y30993D01*
X11319Y31819D01*
X10493Y32453D01*
X9532Y32851D01*
X9000Y32921D01*
Y29000D01*
Y25079D01*
X9532Y25149D01*
X10493Y25547D01*
X11319Y26181D01*
X11953Y27007D01*
X12254Y27734D01*
X13057Y27575D01*
X13637Y25661D01*
X10448Y22471D01*
X9532Y22851D01*
X8500Y22987D01*
X7468Y22851D01*
X6507Y22453D01*
X5681Y21819D01*
X5047Y20993D01*
X4649Y20032D01*
X4513Y19000D01*
X4649Y17968D01*
X5047Y17007D01*
X5681Y16181D01*
X6507Y15547D01*
X7468Y15149D01*
X8500Y15013D01*
X9532Y15149D01*
X10493Y15547D01*
X11319Y16181D01*
X11953Y17007D01*
X12351Y17968D01*
X12487Y19000D01*
X12433Y19410D01*
X17262Y24238D01*
X17262Y24238D01*
X17493Y24585D01*
X17649Y24817D01*
X17784Y25500D01*
X17784Y25500D01*
X17784Y25500D01*
Y25500D01*
Y38520D01*
X22118D01*
Y44850D01*
X11112D01*
X10748Y45094D01*
X10748Y45094D01*
X10194Y45464D01*
X9623Y46160D01*
X9623Y46160D01*
X9429Y46396D01*
X9449Y46500D01*
D02*
G37*
G36*
X49949Y33500D02*
X48000D01*
Y31550D01*
X48476Y31645D01*
X49302Y32198D01*
X49855Y33024D01*
X49949Y33500D01*
D02*
G37*
G36*
X75950Y38500D02*
X74000D01*
Y36551D01*
X74476Y36645D01*
X75302Y37198D01*
X75855Y38025D01*
X75950Y38500D01*
D02*
G37*
G36*
X73000Y41449D02*
X72524Y41355D01*
X71698Y40802D01*
X71145Y39976D01*
X71051Y39500D01*
X73000D01*
Y41449D01*
D02*
G37*
G36*
Y38500D02*
X71051D01*
X71145Y38025D01*
X71698Y37198D01*
X72524Y36645D01*
X73000Y36551D01*
Y38500D01*
D02*
G37*
G36*
X47000Y36450D02*
X46525Y36355D01*
X45698Y35802D01*
X45145Y34975D01*
X45050Y34500D01*
X47000D01*
Y36450D01*
D02*
G37*
G36*
X48000D02*
Y34500D01*
X49949D01*
X49855Y34975D01*
X49302Y35802D01*
X48476Y36355D01*
X48000Y36450D01*
D02*
G37*
G36*
X8000Y32921D02*
X7468Y32851D01*
X6507Y32453D01*
X5681Y31819D01*
X5047Y30993D01*
X4649Y30032D01*
X4579Y29500D01*
X8000D01*
Y32921D01*
D02*
G37*
G36*
X63450Y26500D02*
X61500D01*
Y24551D01*
X61976Y24645D01*
X62802Y25198D01*
X63355Y26024D01*
X63450Y26500D01*
D02*
G37*
G36*
X72500Y27000D02*
X70551D01*
X70645Y26524D01*
X71198Y25698D01*
X72025Y25145D01*
X72500Y25051D01*
Y27000D01*
D02*
G37*
G36*
X60500Y26500D02*
X58551D01*
X58645Y26024D01*
X59198Y25198D01*
X60024Y24645D01*
X60500Y24551D01*
Y26500D01*
D02*
G37*
G36*
X40450Y12000D02*
X38500D01*
Y10051D01*
X38976Y10145D01*
X39802Y10698D01*
X40355Y11525D01*
X40450Y12000D01*
D02*
G37*
G36*
X39823Y24319D02*
X38240D01*
Y20669D01*
X39823D01*
Y24319D01*
D02*
G37*
G36*
X75450Y27000D02*
X73500D01*
Y25051D01*
X73975Y25145D01*
X74802Y25698D01*
X75355Y26524D01*
X75450Y27000D01*
D02*
G37*
G36*
X72500Y29950D02*
X72025Y29855D01*
X71198Y29302D01*
X70645Y28475D01*
X70551Y28000D01*
X72500D01*
Y29950D01*
D02*
G37*
G36*
X73500D02*
Y28000D01*
X75450D01*
X75355Y28475D01*
X74802Y29302D01*
X73975Y29855D01*
X73500Y29950D01*
D02*
G37*
G36*
X61500Y29449D02*
Y27500D01*
X63450D01*
X63355Y27975D01*
X62802Y28802D01*
X61976Y29355D01*
X61500Y29449D01*
D02*
G37*
G36*
X8000Y28500D02*
X4579D01*
X4649Y27968D01*
X5047Y27007D01*
X5681Y26181D01*
X6507Y25547D01*
X7468Y25149D01*
X8000Y25079D01*
Y28500D01*
D02*
G37*
G36*
X60500Y29449D02*
X60024Y29355D01*
X59198Y28802D01*
X58645Y27975D01*
X58551Y27500D01*
X60500D01*
Y29449D01*
D02*
G37*
G36*
X59500Y86949D02*
Y85000D01*
X61449D01*
X61355Y85475D01*
X60802Y86302D01*
X59975Y86855D01*
X59500Y86949D01*
D02*
G37*
G36*
X7855Y89476D02*
X5905D01*
X6000Y89000D01*
X6553Y88173D01*
X7379Y87621D01*
X7855Y87526D01*
Y89476D01*
D02*
G37*
G36*
X58500Y86949D02*
X58025Y86855D01*
X57198Y86302D01*
X56645Y85475D01*
X56551Y85000D01*
X58500D01*
Y86949D01*
D02*
G37*
G36*
Y84000D02*
X56551D01*
X56645Y83525D01*
X57198Y82698D01*
X58025Y82145D01*
X58500Y82051D01*
Y84000D01*
D02*
G37*
G36*
X61449D02*
X59500D01*
Y82051D01*
X59975Y82145D01*
X60802Y82698D01*
X61355Y83525D01*
X61449Y84000D01*
D02*
G37*
G36*
X25500Y92949D02*
X25025Y92855D01*
X24198Y92302D01*
X23645Y91475D01*
X23550Y91000D01*
X25500D01*
Y92949D01*
D02*
G37*
G36*
X26500D02*
Y91000D01*
X28449D01*
X28355Y91475D01*
X27802Y92302D01*
X26976Y92855D01*
X26500Y92949D01*
D02*
G37*
G36*
X8855Y92425D02*
Y90475D01*
X10804D01*
X10710Y90951D01*
X10157Y91778D01*
X9330Y92330D01*
X8855Y92425D01*
D02*
G37*
G36*
X10804Y89476D02*
X8855D01*
Y87526D01*
X9330Y87621D01*
X10157Y88173D01*
X10710Y89000D01*
X10804Y89476D01*
D02*
G37*
G36*
X7855Y92425D02*
X7379Y92330D01*
X6553Y91778D01*
X6000Y90951D01*
X5905Y90475D01*
X7855D01*
Y92425D01*
D02*
G37*
G36*
X67449Y46500D02*
X65500D01*
Y44550D01*
X65975Y44645D01*
X66802Y45198D01*
X67355Y46025D01*
X67449Y46500D01*
D02*
G37*
G36*
X6500Y49450D02*
X6024Y49355D01*
X5198Y48802D01*
X4645Y47976D01*
X4550Y47500D01*
X6500D01*
Y49450D01*
D02*
G37*
G36*
X64500Y46500D02*
X62550D01*
X62645Y46025D01*
X63198Y45198D01*
X64025Y44645D01*
X64500Y44550D01*
Y46500D01*
D02*
G37*
G36*
X74000Y41449D02*
Y39500D01*
X75950D01*
X75855Y39976D01*
X75302Y40802D01*
X74476Y41355D01*
X74000Y41449D01*
D02*
G37*
G36*
X6500Y46500D02*
X4550D01*
X4645Y46025D01*
X5198Y45198D01*
X6024Y44645D01*
X6500Y44550D01*
Y46500D01*
D02*
G37*
G36*
Y71949D02*
X6024Y71855D01*
X5198Y71302D01*
X4645Y70476D01*
X4550Y70000D01*
X6500D01*
Y71949D01*
D02*
G37*
G36*
X26449Y79000D02*
X24500D01*
Y77051D01*
X24975Y77145D01*
X25802Y77698D01*
X26355Y78525D01*
X26449Y79000D01*
D02*
G37*
G36*
X6500Y69000D02*
X4550D01*
X4645Y68524D01*
X5198Y67698D01*
X6024Y67145D01*
X6500Y67050D01*
Y69000D01*
D02*
G37*
G36*
X64500Y49450D02*
X64025Y49355D01*
X63198Y48802D01*
X62645Y47976D01*
X62550Y47500D01*
X64500D01*
Y49450D01*
D02*
G37*
G36*
X65500D02*
Y47500D01*
X67449D01*
X67355Y47976D01*
X66802Y48802D01*
X65975Y49355D01*
X65500Y49450D01*
D02*
G37*
%LPD*%
D10*
X41470Y59470D02*
G03*
X40189Y60000I-1280J-1280D01*
G01*
D02*
G03*
X41470Y60530I0J1811D01*
G01*
X20954Y73001D02*
G03*
X23370Y72000I2416J2416D01*
G01*
D02*
G03*
X20954Y70999I0J-3417D01*
G01*
X13046Y73591D02*
G03*
X14047Y76007I-2416J2416D01*
G01*
D02*
G03*
X15048Y73591I3417J0D01*
G01*
Y70409D02*
G03*
X14047Y67993I2416J-2416D01*
G01*
D02*
G03*
X13046Y70409I-3417J0D01*
G01*
X27876Y71486D02*
G03*
X26636Y72000I-1240J-1240D01*
G01*
X26636D02*
G03*
X27876Y72514I0J1754D01*
G01*
X28903Y71486D02*
G03*
X28095Y69533I1953J-1953D01*
G01*
X34514Y78081D02*
G03*
X34000Y76841I1240J-1240D01*
G01*
D02*
G03*
X33486Y78081I-1754J0D01*
G01*
X38211Y72514D02*
G03*
X38724Y73754I-1240J1240D01*
G01*
D02*
G03*
X39238Y72514I1754J0D01*
G01*
X40124D02*
G03*
X41811Y71815I1687J1687D01*
G01*
X36752Y61768D02*
G03*
X34000Y62907I-2752J-2752D01*
G01*
X33486Y65919D02*
G03*
X34000Y67159I-1240J1240D01*
G01*
D02*
G03*
X34514Y65919I1754J0D01*
G01*
X75409Y82454D02*
G03*
X76000Y83881I-1428J1428D01*
G01*
Y85858D02*
G03*
X77410Y82454I4815J0D01*
G01*
X57047Y70814D02*
G03*
X54630Y71815I-2416J-2416D01*
G01*
X54630D02*
G03*
X57047Y72816I0J3417D01*
G01*
X14999Y53316D02*
G03*
X16000Y55732I-2416J2416D01*
G01*
D02*
G03*
X17001Y53316I3417J0D01*
G01*
Y40684D02*
G03*
X16000Y38268I2416J-2416D01*
G01*
D02*
G03*
X14999Y40684I-3417J0D01*
G01*
X48499Y61954D02*
G03*
X49500Y64370I-2416J2416D01*
G01*
D02*
G03*
X50501Y61954I3417J0D01*
G01*
X47909Y54046D02*
G03*
X45493Y55047I-2416J-2416D01*
G01*
D02*
G03*
X47909Y56048I0J3417D01*
G01*
X57000Y59508D02*
X58677Y61185D01*
X57000Y55151D02*
Y59508D01*
X52349Y50500D02*
X57000Y55151D01*
X42500Y50500D02*
X52349D01*
X39906Y47905D02*
X42500Y50500D01*
X39906Y42413D02*
Y47905D01*
X58677Y61185D02*
X61000D01*
X76000Y81453D02*
Y91000D01*
Y67000D02*
Y75547D01*
X70000Y61000D02*
X76000Y67000D01*
X61185Y61000D02*
X70000D01*
X16000Y25500D02*
Y41685D01*
X9500Y19000D02*
X16000Y25500D01*
X8500Y19000D02*
X9500D01*
X19953Y72000D02*
X29276D01*
X34000Y64520D02*
Y79480D01*
X17000Y84500D02*
X36500D01*
X14047Y81547D02*
X17000Y84500D01*
X14047Y72000D02*
Y81547D01*
X38724Y72000D02*
Y82276D01*
X36500Y84500D02*
X38724Y82276D01*
X14047Y62953D02*
Y72000D01*
Y62953D02*
X16000Y61000D01*
Y52315D02*
Y61000D01*
X38520Y60000D02*
X42000D01*
X34000Y64520D02*
X38520Y60000D01*
X35547Y55047D02*
X49500D01*
X8500Y9000D02*
X24047D01*
X61000Y61185D02*
X61185Y61000D01*
X38909Y71815D02*
X49500D01*
X38724Y72000D02*
X38909Y71815D01*
X49500Y71815D02*
X61000D01*
X49500D02*
X49500Y71815D01*
X49500Y60953D02*
Y71815D01*
X34000Y53500D02*
X35547Y55047D01*
X30260Y8787D02*
X30547Y8500D01*
X30260Y8787D02*
Y20169D01*
X28095Y70819D02*
X29276Y72000D01*
X28095Y42413D02*
Y70819D01*
X34000Y28831D02*
X34216Y29047D01*
X34000Y28831D02*
Y43201D01*
D11*
X49500Y55047D02*
D03*
Y60953D02*
D03*
X77000Y75547D02*
D03*
Y81453D02*
D03*
D12*
X16000Y41685D02*
D03*
Y52315D02*
D03*
X61000Y61185D02*
D03*
Y71815D02*
D03*
D13*
X34000Y64520D02*
D03*
Y79480D02*
D03*
D14*
X38724Y72000D02*
D03*
X29276D02*
D03*
D15*
X14047Y72000D02*
D03*
X19953D02*
D03*
X24547Y8500D02*
D03*
X30453D02*
D03*
D16*
X39906Y42413D02*
D03*
X28095D02*
D03*
D17*
X34000Y43201D02*
D03*
D18*
X30260Y20169D02*
D03*
X37740D02*
D03*
X34000Y28831D02*
D03*
D19*
X49832Y7665D02*
X48999Y8498D01*
X47333D01*
X46500Y7665D01*
Y4333D01*
X47333Y3500D01*
X48999D01*
X49832Y4333D01*
X51498Y8498D02*
Y3500D01*
Y5999D01*
X54831D01*
Y8498D01*
Y3500D01*
X56497Y8498D02*
X58163D01*
X57330D01*
Y3500D01*
X56497D01*
X58163D01*
X60662D02*
Y8498D01*
X63994Y3500D01*
Y8498D01*
X65661Y3500D02*
Y6832D01*
X67327Y8498D01*
X68993Y6832D01*
Y3500D01*
Y5999D01*
X65661D01*
X75657Y7665D02*
X78989Y4333D01*
X75657D02*
X78989Y7665D01*
X75657Y5999D02*
X78989D01*
X77323Y4333D02*
Y7665D01*
D20*
X76000Y91000D02*
D03*
X8500Y9000D02*
D03*
D21*
Y19000D02*
D03*
Y29000D02*
D03*
D22*
X24000Y79500D02*
D03*
X65000Y47000D02*
D03*
X7000D02*
D03*
Y69500D02*
D03*
X59000Y84500D02*
D03*
X26000Y90500D02*
D03*
X8355Y89976D02*
D03*
X47500Y34000D02*
D03*
X61000Y27000D02*
D03*
X73000Y27500D02*
D03*
X73500Y39000D02*
D03*
X38000Y12500D02*
D03*
X42000Y60000D02*
D03*
M02*
