%FSLAX25Y25*%
%MOIN*%
G70*
G01*
G75*
G04 Layer_Physical_Order=2*
G04 Layer_Color=16711680*
%ADD10C,0.01500*%
%ADD11R,0.05512X0.04331*%
%ADD12R,0.10236X0.04331*%
%ADD13R,0.02953X0.04724*%
%ADD14R,0.04724X0.02953*%
%ADD15R,0.04331X0.05512*%
%ADD16R,0.02362X0.05512*%
%ADD17R,0.02362X0.07087*%
%ADD18R,0.02165X0.06299*%
%ADD19C,0.00700*%
%ADD20R,0.05906X0.05906*%
%ADD21C,0.05906*%
%ADD22C,0.03000*%
G36*
X72047Y95971D02*
Y94953D01*
X72047Y94556D01*
X72047Y94556D01*
X72047D01*
Y87047D01*
X79556D01*
X79556Y87047D01*
Y87047D01*
X79953Y87047D01*
X80971Y86029D01*
Y17198D01*
X55800D01*
Y9198D01*
X55300D01*
Y1529D01*
X1529D01*
Y95971D01*
X72047D01*
Y95971D01*
D02*
G37*
%LPC*%
G36*
X47000Y33500D02*
X45050D01*
X45145Y33024D01*
X45698Y32198D01*
X46525Y31645D01*
X47000Y31550D01*
Y33500D01*
D02*
G37*
G36*
X49949D02*
X48000D01*
Y31550D01*
X48476Y31645D01*
X49302Y32198D01*
X49855Y33024D01*
X49949Y33500D01*
D02*
G37*
G36*
X47000Y36450D02*
X46525Y36355D01*
X45698Y35802D01*
X45145Y34975D01*
X45050Y34500D01*
X47000D01*
Y36450D01*
D02*
G37*
G36*
X9000Y32921D02*
Y29500D01*
X12421D01*
X12351Y30032D01*
X11953Y30993D01*
X11319Y31819D01*
X10493Y32453D01*
X9532Y32851D01*
X9000Y32921D01*
D02*
G37*
G36*
X72500Y29950D02*
X72025Y29855D01*
X71198Y29302D01*
X70645Y28475D01*
X70551Y28000D01*
X72500D01*
Y29950D01*
D02*
G37*
G36*
X73500D02*
Y28000D01*
X75450D01*
X75355Y28475D01*
X74802Y29302D01*
X73975Y29855D01*
X73500Y29950D01*
D02*
G37*
G36*
X8000Y32921D02*
X7468Y32851D01*
X6507Y32453D01*
X5681Y31819D01*
X5047Y30993D01*
X4649Y30032D01*
X4579Y29500D01*
X8000D01*
Y32921D01*
D02*
G37*
G36*
X74000Y41449D02*
Y39500D01*
X75950D01*
X75855Y39976D01*
X75302Y40802D01*
X74476Y41355D01*
X74000Y41449D01*
D02*
G37*
G36*
X6500Y46500D02*
X4550D01*
X4645Y46025D01*
X5198Y45198D01*
X6024Y44645D01*
X6500Y44550D01*
Y46500D01*
D02*
G37*
G36*
X9449D02*
X7500D01*
Y44550D01*
X7975Y44645D01*
X8802Y45198D01*
X9355Y46025D01*
X9449Y46500D01*
D02*
G37*
G36*
X73000Y41449D02*
X72524Y41355D01*
X71698Y40802D01*
X71145Y39976D01*
X71051Y39500D01*
X73000D01*
Y41449D01*
D02*
G37*
G36*
X48000Y36450D02*
Y34500D01*
X49949D01*
X49855Y34975D01*
X49302Y35802D01*
X48476Y36355D01*
X48000Y36450D01*
D02*
G37*
G36*
X73000Y38500D02*
X71051D01*
X71145Y38025D01*
X71698Y37198D01*
X72524Y36645D01*
X73000Y36551D01*
Y38500D01*
D02*
G37*
G36*
X75950D02*
X74000D01*
Y36551D01*
X74476Y36645D01*
X75302Y37198D01*
X75855Y38025D01*
X75950Y38500D01*
D02*
G37*
G36*
X38500Y14950D02*
Y13000D01*
X40450D01*
X40355Y13476D01*
X39802Y14302D01*
X38976Y14855D01*
X38500Y14950D01*
D02*
G37*
G36*
X8500Y22987D02*
X7468Y22851D01*
X6507Y22453D01*
X5681Y21819D01*
X5047Y20993D01*
X4649Y20032D01*
X4513Y19000D01*
X4649Y17968D01*
X5047Y17007D01*
X5681Y16181D01*
X6507Y15547D01*
X7468Y15149D01*
X8500Y15013D01*
X9532Y15149D01*
X10493Y15547D01*
X11319Y16181D01*
X11953Y17007D01*
X12351Y17968D01*
X12487Y19000D01*
X12351Y20032D01*
X11953Y20993D01*
X11319Y21819D01*
X10493Y22453D01*
X9532Y22851D01*
X8500Y22987D01*
D02*
G37*
G36*
X60500Y26500D02*
X58551D01*
X58645Y26024D01*
X59198Y25198D01*
X60024Y24645D01*
X60500Y24551D01*
Y26500D01*
D02*
G37*
G36*
X37500Y14950D02*
X37025Y14855D01*
X36198Y14302D01*
X35645Y13476D01*
X35550Y13000D01*
X37500D01*
Y14950D01*
D02*
G37*
G36*
X12453Y12953D02*
X4547D01*
Y5047D01*
X12453D01*
Y12953D01*
D02*
G37*
G36*
X37500Y12000D02*
X35550D01*
X35645Y11525D01*
X36198Y10698D01*
X37025Y10145D01*
X37500Y10051D01*
Y12000D01*
D02*
G37*
G36*
X40450D02*
X38500D01*
Y10051D01*
X38976Y10145D01*
X39802Y10698D01*
X40355Y11525D01*
X40450Y12000D01*
D02*
G37*
G36*
X12421Y28500D02*
X9000D01*
Y25079D01*
X9532Y25149D01*
X10493Y25547D01*
X11319Y26181D01*
X11953Y27007D01*
X12351Y27968D01*
X12421Y28500D01*
D02*
G37*
G36*
X60500Y29449D02*
X60024Y29355D01*
X59198Y28802D01*
X58645Y27975D01*
X58551Y27500D01*
X60500D01*
Y29449D01*
D02*
G37*
G36*
X61500D02*
Y27500D01*
X63450D01*
X63355Y27975D01*
X62802Y28802D01*
X61976Y29355D01*
X61500Y29449D01*
D02*
G37*
G36*
X8000Y28500D02*
X4579D01*
X4649Y27968D01*
X5047Y27007D01*
X5681Y26181D01*
X6507Y25547D01*
X7468Y25149D01*
X8000Y25079D01*
Y28500D01*
D02*
G37*
G36*
X63450Y26500D02*
X61500D01*
Y24551D01*
X61976Y24645D01*
X62802Y25198D01*
X63355Y26024D01*
X63450Y26500D01*
D02*
G37*
G36*
X72500Y27000D02*
X70551D01*
X70645Y26524D01*
X71198Y25698D01*
X72025Y25145D01*
X72500Y25051D01*
Y27000D01*
D02*
G37*
G36*
X75450D02*
X73500D01*
Y25051D01*
X73975Y25145D01*
X74802Y25698D01*
X75355Y26524D01*
X75450Y27000D01*
D02*
G37*
G36*
X64500Y46500D02*
X62550D01*
X62645Y46025D01*
X63198Y45198D01*
X64025Y44645D01*
X64500Y44550D01*
Y46500D01*
D02*
G37*
G36*
X58500Y86949D02*
X58025Y86855D01*
X57198Y86302D01*
X56645Y85475D01*
X56551Y85000D01*
X58500D01*
Y86949D01*
D02*
G37*
G36*
X59500D02*
Y85000D01*
X61449D01*
X61355Y85475D01*
X60802Y86302D01*
X59975Y86855D01*
X59500Y86949D01*
D02*
G37*
G36*
X7855Y89476D02*
X5905D01*
X6000Y89000D01*
X6553Y88173D01*
X7379Y87621D01*
X7855Y87526D01*
Y89476D01*
D02*
G37*
G36*
X61449Y84000D02*
X59500D01*
Y82051D01*
X59975Y82145D01*
X60802Y82698D01*
X61355Y83525D01*
X61449Y84000D01*
D02*
G37*
G36*
X23500Y81950D02*
X23024Y81855D01*
X22198Y81302D01*
X21645Y80475D01*
X21551Y80000D01*
X23500D01*
Y81950D01*
D02*
G37*
G36*
X24500D02*
Y80000D01*
X26449D01*
X26355Y80475D01*
X25802Y81302D01*
X24975Y81855D01*
X24500Y81950D01*
D02*
G37*
G36*
X58500Y84000D02*
X56551D01*
X56645Y83525D01*
X57198Y82698D01*
X58025Y82145D01*
X58500Y82051D01*
Y84000D01*
D02*
G37*
G36*
X8855Y92425D02*
Y90475D01*
X10804D01*
X10710Y90951D01*
X10157Y91778D01*
X9330Y92330D01*
X8855Y92425D01*
D02*
G37*
G36*
X25500Y92949D02*
X25025Y92855D01*
X24198Y92302D01*
X23645Y91475D01*
X23550Y91000D01*
X25500D01*
Y92949D01*
D02*
G37*
G36*
X26500D02*
Y91000D01*
X28449D01*
X28355Y91475D01*
X27802Y92302D01*
X26976Y92855D01*
X26500Y92949D01*
D02*
G37*
G36*
X7855Y92425D02*
X7379Y92330D01*
X6553Y91778D01*
X6000Y90951D01*
X5905Y90475D01*
X7855D01*
Y92425D01*
D02*
G37*
G36*
X10804Y89476D02*
X8855D01*
Y87526D01*
X9330Y87621D01*
X10157Y88173D01*
X10710Y89000D01*
X10804Y89476D01*
D02*
G37*
G36*
X25500Y90000D02*
X23550D01*
X23645Y89525D01*
X24198Y88698D01*
X25025Y88145D01*
X25500Y88051D01*
Y90000D01*
D02*
G37*
G36*
X28449D02*
X26500D01*
Y88051D01*
X26976Y88145D01*
X27802Y88698D01*
X28355Y89525D01*
X28449Y90000D01*
D02*
G37*
G36*
X26449Y79000D02*
X24500D01*
Y77051D01*
X24975Y77145D01*
X25802Y77698D01*
X26355Y78525D01*
X26449Y79000D01*
D02*
G37*
G36*
X65500Y49450D02*
Y47500D01*
X67449D01*
X67355Y47976D01*
X66802Y48802D01*
X65975Y49355D01*
X65500Y49450D01*
D02*
G37*
G36*
X41500Y59500D02*
X39551D01*
X39645Y59025D01*
X40198Y58198D01*
X41025Y57645D01*
X41500Y57551D01*
Y59500D01*
D02*
G37*
G36*
X44449D02*
X42500D01*
Y57551D01*
X42976Y57645D01*
X43802Y58198D01*
X44355Y59025D01*
X44449Y59500D01*
D02*
G37*
G36*
X64500Y49450D02*
X64025Y49355D01*
X63198Y48802D01*
X62645Y47976D01*
X62550Y47500D01*
X64500D01*
Y49450D01*
D02*
G37*
G36*
X67449Y46500D02*
X65500D01*
Y44550D01*
X65975Y44645D01*
X66802Y45198D01*
X67355Y46025D01*
X67449Y46500D01*
D02*
G37*
G36*
X6500Y49450D02*
X6024Y49355D01*
X5198Y48802D01*
X4645Y47976D01*
X4550Y47500D01*
X6500D01*
Y49450D01*
D02*
G37*
G36*
X7500D02*
Y47500D01*
X9449D01*
X9355Y47976D01*
X8802Y48802D01*
X7975Y49355D01*
X7500Y49450D01*
D02*
G37*
G36*
X6500Y71949D02*
X6024Y71855D01*
X5198Y71302D01*
X4645Y70476D01*
X4550Y70000D01*
X6500D01*
Y71949D01*
D02*
G37*
G36*
X7500D02*
Y70000D01*
X9449D01*
X9355Y70476D01*
X8802Y71302D01*
X7975Y71855D01*
X7500Y71949D01*
D02*
G37*
G36*
X23500Y79000D02*
X21551D01*
X21645Y78525D01*
X22198Y77698D01*
X23024Y77145D01*
X23500Y77051D01*
Y79000D01*
D02*
G37*
G36*
X9449Y69000D02*
X7500D01*
Y67050D01*
X7975Y67145D01*
X8802Y67698D01*
X9355Y68524D01*
X9449Y69000D01*
D02*
G37*
G36*
X41500Y62450D02*
X41025Y62355D01*
X40198Y61802D01*
X39645Y60975D01*
X39551Y60500D01*
X41500D01*
Y62450D01*
D02*
G37*
G36*
X42500D02*
Y60500D01*
X44449D01*
X44355Y60975D01*
X43802Y61802D01*
X42976Y62355D01*
X42500Y62450D01*
D02*
G37*
G36*
X6500Y69000D02*
X4550D01*
X4645Y68524D01*
X5198Y67698D01*
X6024Y67145D01*
X6500Y67050D01*
Y69000D01*
D02*
G37*
%LPD*%
D19*
X60332Y6665D02*
X59499Y7498D01*
X57833D01*
X57000Y6665D01*
Y3333D01*
X57833Y2500D01*
X59499D01*
X60332Y3333D01*
X61998Y5832D02*
Y2500D01*
Y4166D01*
X62831Y4999D01*
X63665Y5832D01*
X64498D01*
X67830Y2500D02*
X69496D01*
X70329Y3333D01*
Y4999D01*
X69496Y5832D01*
X67830D01*
X66997Y4999D01*
Y3333D01*
X67830Y2500D01*
X71995Y5832D02*
Y3333D01*
X72828Y2500D01*
X73661Y3333D01*
X74494Y2500D01*
X75327Y3333D01*
Y5832D01*
X79493Y2500D02*
X77827D01*
X76994Y3333D01*
Y4999D01*
X77827Y5832D01*
X79493D01*
X80326Y4999D01*
Y4166D01*
X76994D01*
X57500Y15498D02*
Y10500D01*
X60832D01*
X62498D02*
X64165D01*
X63331D01*
Y15498D01*
X62498D01*
X67497Y10500D02*
X69163D01*
X69996Y11333D01*
Y12999D01*
X69163Y13832D01*
X67497D01*
X66664Y12999D01*
Y11333D01*
X67497Y10500D01*
X71662Y13832D02*
Y11333D01*
X72495Y10500D01*
X74994D01*
Y9667D01*
X74161Y8834D01*
X73328D01*
X74994Y10500D02*
Y13832D01*
X79993Y15498D02*
Y10500D01*
X77494D01*
X76661Y11333D01*
Y12999D01*
X77494Y13832D01*
X79993D01*
D20*
X76000Y91000D02*
D03*
X8500Y9000D02*
D03*
D21*
Y19000D02*
D03*
Y29000D02*
D03*
D22*
X24000Y79500D02*
D03*
X65000Y47000D02*
D03*
X7000D02*
D03*
Y69500D02*
D03*
X59000Y84500D02*
D03*
X26000Y90500D02*
D03*
X8355Y89976D02*
D03*
X47500Y34000D02*
D03*
X61000Y27000D02*
D03*
X73000Y27500D02*
D03*
X73500Y39000D02*
D03*
X38000Y12500D02*
D03*
X42000Y60000D02*
D03*
M02*
