M48
;Layer_Color=9474304
;FILE_FORMAT=2:5
INCH,LZ
;TYPE=PLATED
T1F00S00C0.01500
T2F00S00C0.03543
%
T01
X00565Y00275
X0069
X00815
X0081Y00385
X0093
X0094Y00275
X01065
Y00385
Y00515
X0093
X0081
X008Y00715
X0095315Y00625
X0116Y00585
X01285Y00655
X0133Y0072
X01375Y0082
X01295Y00935
X01165
X01215Y00995
X01365Y0105
Y0118
X015
X0163
Y0105
X015
Y0091
X0163
Y0078
X0152815Y0064
X0154Y00565
Y00495
X0153Y0043
X0151584Y0036242
X0150859Y0028603
X015Y001
X0127815Y0026
X01065Y00145
X00945
X00825
X0113815Y00065
X0058Y00425
X00515Y00925
X00665Y00995
X00685Y01065
X0066Y01185
X0077Y01215
X00895
X01025
X012Y0121
X0095Y011
X0099Y01045
X0095Y01
X00765Y0094
X0052Y01195
X0047Y00835
X0034
X002
X0007
X00065Y0072
Y0059
Y0049
Y00385
Y00275
X0019
Y0038
X00315Y00275
X0044
X0048Y0042
X0046Y0071
X0022366Y0098366
X0007Y0096
T02
X01615Y0016
Y0026
Y0036
X0008Y01185
M30
