%FSLAX25Y25*%
%MOIN*%
G70*
G01*
G75*
G04 Layer_Physical_Order=2*
G04 Layer_Color=16711680*
%ADD10C,0.02000*%
%ADD11C,0.04000*%
%ADD12R,0.02362X0.03347*%
%ADD13R,0.05118X0.03347*%
%ADD14R,0.03347X0.05118*%
%ADD15R,0.06299X0.02165*%
%ADD16R,0.04331X0.10236*%
%ADD17R,0.03740X0.05315*%
%ADD18R,0.05315X0.03740*%
%ADD19C,0.05000*%
%ADD20C,0.06700*%
%ADD21C,0.03000*%
%ADD22C,0.00700*%
%ADD23C,0.05906*%
%ADD24R,0.05906X0.05906*%
%ADD25C,0.03000*%
G36*
X65000Y11500D02*
X2039D01*
Y92961D01*
X65000D01*
Y11500D01*
D02*
G37*
%LPC*%
G36*
X31000Y26449D02*
X30525Y26355D01*
X29698Y25802D01*
X29145Y24975D01*
X29050Y24500D01*
X31000D01*
Y26449D01*
D02*
G37*
G36*
X24000D02*
Y24500D01*
X25949D01*
X25855Y24975D01*
X25302Y25802D01*
X24475Y26355D01*
X24000Y26449D01*
D02*
G37*
G36*
X23000D02*
X22524Y26355D01*
X21698Y25802D01*
X21145Y24975D01*
X21050Y24500D01*
X23000D01*
Y26449D01*
D02*
G37*
G36*
X32000D02*
Y24500D01*
X33950D01*
X33855Y24975D01*
X33302Y25802D01*
X32476Y26355D01*
X32000Y26449D01*
D02*
G37*
G36*
X60449Y36500D02*
X55550D01*
X55645Y36024D01*
X56198Y35198D01*
Y34302D01*
X55645Y33476D01*
X55550Y33000D01*
X60449D01*
X60355Y33476D01*
X59802Y34302D01*
Y35198D01*
X60355Y36024D01*
X60449Y36500D01*
D02*
G37*
G36*
Y32000D02*
X58500D01*
Y30051D01*
X58975Y30145D01*
X59802Y30698D01*
X60355Y31525D01*
X60449Y32000D01*
D02*
G37*
G36*
X57500D02*
X55550D01*
X55645Y31525D01*
X56198Y30698D01*
X57025Y30145D01*
X57500Y30051D01*
Y32000D01*
D02*
G37*
G36*
X33950Y23500D02*
X32000D01*
Y21551D01*
X32476Y21645D01*
X33302Y22198D01*
X33855Y23024D01*
X33950Y23500D01*
D02*
G37*
G36*
X10000Y23449D02*
X9525Y23355D01*
X8698Y22802D01*
X8145Y21975D01*
X8050Y21500D01*
X10000D01*
Y23449D01*
D02*
G37*
G36*
X12949Y20500D02*
X11000D01*
Y18551D01*
X11475Y18645D01*
X12302Y19198D01*
X12855Y20024D01*
X12949Y20500D01*
D02*
G37*
G36*
X10000D02*
X8050D01*
X8145Y20024D01*
X8698Y19198D01*
X9525Y18645D01*
X10000Y18551D01*
Y20500D01*
D02*
G37*
G36*
X11000Y23449D02*
Y21500D01*
X12949D01*
X12855Y21975D01*
X12302Y22802D01*
X11475Y23355D01*
X11000Y23449D01*
D02*
G37*
G36*
X31000Y23500D02*
X29050D01*
X29145Y23024D01*
X29698Y22198D01*
X30525Y21645D01*
X31000Y21551D01*
Y23500D01*
D02*
G37*
G36*
X25949D02*
X24000D01*
Y21551D01*
X24475Y21645D01*
X25302Y22198D01*
X25855Y23024D01*
X25949Y23500D01*
D02*
G37*
G36*
X23000D02*
X21050D01*
X21145Y23024D01*
X21698Y22198D01*
X22524Y21645D01*
X23000Y21551D01*
Y23500D01*
D02*
G37*
G36*
X57500Y39450D02*
X57025Y39355D01*
X56198Y38802D01*
X55645Y37975D01*
X55550Y37500D01*
X57500D01*
Y39450D01*
D02*
G37*
G36*
X8500Y69950D02*
Y68000D01*
X10449D01*
X10355Y68476D01*
X9802Y69302D01*
X8975Y69855D01*
X8500Y69950D01*
D02*
G37*
G36*
X57500Y70450D02*
X57025Y70355D01*
X56198Y69802D01*
X55645Y68976D01*
X55550Y68500D01*
X57500D01*
Y70450D01*
D02*
G37*
G36*
X60449Y67500D02*
X58500D01*
Y65551D01*
X58975Y65645D01*
X59802Y66198D01*
X60355Y67024D01*
X60449Y67500D01*
D02*
G37*
G36*
X7500Y69950D02*
X7025Y69855D01*
X6198Y69302D01*
X5645Y68476D01*
X5551Y68000D01*
X7500D01*
Y69950D01*
D02*
G37*
G36*
X18000Y90987D02*
X16968Y90851D01*
X16007Y90453D01*
X15181Y89819D01*
X14547Y88993D01*
X14149Y88032D01*
X14013Y87000D01*
X14149Y85968D01*
X14547Y85007D01*
X15181Y84181D01*
X16007Y83547D01*
X16968Y83149D01*
X18000Y83013D01*
X19032Y83149D01*
X19993Y83547D01*
X20819Y84181D01*
X21453Y85007D01*
X21851Y85968D01*
X21987Y87000D01*
X21851Y88032D01*
X21453Y88993D01*
X20819Y89819D01*
X19993Y90453D01*
X19032Y90851D01*
X18000Y90987D01*
D02*
G37*
G36*
X31953Y90953D02*
X24047D01*
Y83047D01*
X31953D01*
Y90953D01*
D02*
G37*
G36*
X58500Y70450D02*
Y68500D01*
X60449D01*
X60355Y68976D01*
X59802Y69802D01*
X58975Y70355D01*
X58500Y70450D01*
D02*
G37*
G36*
X8000Y90987D02*
X6968Y90851D01*
X6007Y90453D01*
X5181Y89819D01*
X4547Y88993D01*
X4149Y88032D01*
X4013Y87000D01*
X4149Y85968D01*
X4547Y85007D01*
X5181Y84181D01*
X6007Y83547D01*
X6968Y83149D01*
X8000Y83013D01*
X9032Y83149D01*
X9993Y83547D01*
X10819Y84181D01*
X11453Y85007D01*
X11851Y85968D01*
X11987Y87000D01*
X11851Y88032D01*
X11453Y88993D01*
X10819Y89819D01*
X9993Y90453D01*
X9032Y90851D01*
X8000Y90987D01*
D02*
G37*
G36*
X42450Y58000D02*
X40500D01*
Y56050D01*
X40975Y56145D01*
X41802Y56698D01*
X42355Y57525D01*
X42450Y58000D01*
D02*
G37*
G36*
X39500Y60949D02*
X39024Y60855D01*
X38198Y60302D01*
X37645Y59475D01*
X37551Y59000D01*
X39500D01*
Y60949D01*
D02*
G37*
G36*
X58500Y39450D02*
Y37500D01*
X60449D01*
X60355Y37975D01*
X59802Y38802D01*
X58975Y39355D01*
X58500Y39450D01*
D02*
G37*
G36*
X39500Y58000D02*
X37551D01*
X37645Y57525D01*
X38198Y56698D01*
X39024Y56145D01*
X39500Y56050D01*
Y58000D01*
D02*
G37*
G36*
X10449Y67000D02*
X8500D01*
Y65051D01*
X8975Y65145D01*
X9802Y65698D01*
X10355Y66524D01*
X10449Y67000D01*
D02*
G37*
G36*
X57500Y67500D02*
X55550D01*
X55645Y67024D01*
X56198Y66198D01*
X57025Y65645D01*
X57500Y65551D01*
Y67500D01*
D02*
G37*
G36*
X40500Y60949D02*
Y59000D01*
X42450D01*
X42355Y59475D01*
X41802Y60302D01*
X40975Y60855D01*
X40500Y60949D01*
D02*
G37*
G36*
X7500Y67000D02*
X5551D01*
X5645Y66524D01*
X6198Y65698D01*
X7025Y65145D01*
X7500Y65051D01*
Y67000D01*
D02*
G37*
%LPD*%
D22*
X61000Y9498D02*
Y4500D01*
X57668D01*
X56002D02*
X54335D01*
X55169D01*
Y9498D01*
X56002D01*
X51003Y4500D02*
X49337D01*
X48504Y5333D01*
Y6999D01*
X49337Y7832D01*
X51003D01*
X51836Y6999D01*
Y5333D01*
X51003Y4500D01*
X46838Y7832D02*
Y5333D01*
X46005Y4500D01*
X43506D01*
Y3667D01*
X44339Y2834D01*
X45172D01*
X43506Y4500D02*
Y7832D01*
X38507Y9498D02*
Y4500D01*
X41006D01*
X41840Y5333D01*
Y6999D01*
X41006Y7832D01*
X38507D01*
X36008Y3667D02*
X35175Y4500D01*
Y5333D01*
X36008D01*
Y4500D01*
X35175D01*
X36008Y3667D01*
X36841Y2834D01*
X23512Y8665D02*
X24345Y9498D01*
X26011D01*
X26844Y8665D01*
Y5333D01*
X26011Y4500D01*
X24345D01*
X23512Y5333D01*
X21846Y7832D02*
Y4500D01*
Y6166D01*
X21013Y6999D01*
X20180Y7832D01*
X19347D01*
X16015Y4500D02*
X14348D01*
X13515Y5333D01*
Y6999D01*
X14348Y7832D01*
X16015D01*
X16848Y6999D01*
Y5333D01*
X16015Y4500D01*
X11849Y7832D02*
Y5333D01*
X11016Y4500D01*
X10183Y5333D01*
X9350Y4500D01*
X8517Y5333D01*
Y7832D01*
X4352Y4500D02*
X6018D01*
X6851Y5333D01*
Y6999D01*
X6018Y7832D01*
X4352D01*
X3519Y6999D01*
Y6166D01*
X6851D01*
D23*
X8000Y87000D02*
D03*
X18000D02*
D03*
D24*
X28000D02*
D03*
D25*
X23500Y24000D02*
D03*
X31500D02*
D03*
X40000Y58500D02*
D03*
X10500Y21000D02*
D03*
X58000Y37000D02*
D03*
Y32500D02*
D03*
Y68000D02*
D03*
X8000Y67500D02*
D03*
X47000Y87500D02*
D03*
X53000D02*
D03*
X59000D02*
D03*
X47000Y81250D02*
D03*
X53000D02*
D03*
X59000D02*
D03*
X50000Y75000D02*
D03*
X56000D02*
D03*
X40857Y23000D02*
D03*
X47071D02*
D03*
X53286D02*
D03*
X59500D02*
D03*
X40857Y16000D02*
D03*
X47071D02*
D03*
X53286D02*
D03*
X59500D02*
D03*
X34643D02*
D03*
X28429D02*
D03*
X22214D02*
D03*
X16000D02*
D03*
X5000Y59000D02*
D03*
X10250D02*
D03*
X15500D02*
D03*
X5000Y53000D02*
D03*
X10250D02*
D03*
X5000Y47000D02*
D03*
X10250D02*
D03*
X5000Y41000D02*
D03*
X23500Y76500D02*
D03*
X28500D02*
D03*
Y71500D02*
D03*
X33500D02*
D03*
Y66500D02*
D03*
X38500D02*
D03*
X33500Y61500D02*
D03*
Y56500D02*
D03*
X15500Y65000D02*
D03*
X50500Y28000D02*
D03*
M02*
