M48
;Layer_Color=9474304
;FILE_FORMAT=2:5
INCH,LZ
;TYPE=PLATED
T1F00S00C0.02000
T2F00S00C0.03000
T3F00S00C0.03543
T4F00S00C0.03622
T5F00S00C0.09173
%
T01
X005872Y-029092
X0058643Y-0283243
X01063Y-03003
X0103616Y-0303716
X0177Y-0245
X01065Y-01005
X0102
X00905Y-0112
X0117Y-00855
T02
X0014Y-00385
X0034
Y-00085
X0014
T03
X022Y-023
Y-02
Y-019
X021Y-023
X02
X019
X018
X017
X016
X015
X012
X011
X01
X009
X008
X007
X006
X005
X002
Y-022
Y-021
Y-02
Y-019
X00281Y-02567
Y-02667
Y-02767
Y-02867
Y-02967
Y-03067
X00347Y-03341
X00447
X00547
X002Y-018
Y-017
Y-016
Y-013
Y-012
Y-011
Y-01
Y-009
Y-008
Y-007
Y-006
X01Y-004
X011
X012
X013
X014
X015
X016
X0187Y-00385
X022Y-004
Y-005
Y-006
Y-007
Y-008
Y-009
Y-01
Y-013
Y-014
Y-015
Y-016
Y-017
Y-018
Y-003
X0187Y-00285
Y-00185
X016Y-003
X015
X014
X013
X012
X011
X01
X0077Y-0008
X0067
X0057
T04
X0151344Y-0303721
X0161187
Y-0293879
X0151344
T05
X0171856Y-0322501
Y-0275099
M30
