%FSLAX25Y25*%
%MOIN*%
G70*
G01*
G75*
G04 Layer_Physical_Order=2*
G04 Layer_Color=16711680*
%ADD10R,0.04331X0.05512*%
%ADD11O,0.08268X0.01378*%
%ADD12O,0.01181X0.07087*%
%ADD13O,0.07087X0.01181*%
%ADD14C,0.01200*%
%ADD15C,0.01000*%
%ADD16C,0.02000*%
%ADD17C,0.01500*%
%ADD18C,0.00500*%
%ADD19C,0.00800*%
%ADD20C,0.05906*%
%ADD21R,0.05906X0.05906*%
%ADD22C,0.05500*%
%ADD23C,0.11811*%
%ADD24R,0.05906X0.05906*%
%ADD25R,0.06000X0.10000*%
%ADD26O,0.06000X0.10000*%
%ADD27C,0.03500*%
%ADD28C,0.03300*%
%ADD29C,0.03400*%
%ADD30R,0.05512X0.04331*%
%ADD31C,0.01800*%
%ADD32C,0.01900*%
G36*
X96750Y-283951D02*
X96710Y-283930D01*
X96632Y-283912D01*
X96516Y-283896D01*
X96173Y-283870D01*
X94657Y-283843D01*
Y-282643D01*
X96750Y-282536D01*
Y-283951D01*
D02*
G37*
G36*
X171797Y-281004D02*
X170948Y-281011D01*
X169427Y-281114D01*
X168754Y-281211D01*
X168139Y-281338D01*
X167583Y-281496D01*
X167085Y-281683D01*
X166646Y-281901D01*
X166265Y-282149D01*
X165942Y-282427D01*
X164528Y-281013D01*
X164806Y-280691D01*
X165054Y-280310D01*
X165272Y-279870D01*
X165460Y-279372D01*
X165617Y-278816D01*
X165744Y-278201D01*
X165841Y-277528D01*
X165944Y-276007D01*
X165951Y-275158D01*
X171797Y-281004D01*
D02*
G37*
G36*
X154057Y-279138D02*
X154087Y-279480D01*
X154137Y-279782D01*
X154207Y-280044D01*
X154297Y-280265D01*
X154407Y-280446D01*
X154537Y-280587D01*
X154687Y-280688D01*
X154857Y-280748D01*
X155047Y-280768D01*
X151047D01*
X151237Y-280748D01*
X151407Y-280688D01*
X151557Y-280587D01*
X151687Y-280446D01*
X151797Y-280265D01*
X151887Y-280044D01*
X151957Y-279782D01*
X152007Y-279480D01*
X152037Y-279138D01*
X152047Y-278756D01*
X154047D01*
X154057Y-279138D01*
D02*
G37*
G36*
X60018Y-282137D02*
X60147Y-282243D01*
X60280Y-282337D01*
X60418Y-282418D01*
X60560Y-282487D01*
X60707Y-282543D01*
X60858Y-282587D01*
X61013Y-282618D01*
X61173Y-282637D01*
X61337Y-282643D01*
Y-283843D01*
X61173Y-283850D01*
X61013Y-283868D01*
X60858Y-283900D01*
X60707Y-283943D01*
X60560Y-284000D01*
X60418Y-284068D01*
X60280Y-284150D01*
X60147Y-284243D01*
X60018Y-284350D01*
X59893Y-284468D01*
Y-282018D01*
X60018Y-282137D01*
D02*
G37*
G36*
X154857Y-286252D02*
X154687Y-286312D01*
X154537Y-286413D01*
X154407Y-286554D01*
X154297Y-286735D01*
X154207Y-286956D01*
X154137Y-287218D01*
X154087Y-287520D01*
X154057Y-287862D01*
X154047Y-288244D01*
X152047D01*
X152037Y-287862D01*
X152007Y-287520D01*
X151957Y-287218D01*
X151887Y-286956D01*
X151797Y-286735D01*
X151687Y-286554D01*
X151557Y-286413D01*
X151407Y-286312D01*
X151237Y-286252D01*
X151047Y-286232D01*
X155047D01*
X154857Y-286252D01*
D02*
G37*
G36*
X160763D02*
X160593Y-286312D01*
X160443Y-286413D01*
X160313Y-286554D01*
X160203Y-286735D01*
X160113Y-286956D01*
X160043Y-287218D01*
X159993Y-287520D01*
X159963Y-287862D01*
X159953Y-288244D01*
X157953D01*
X157943Y-287862D01*
X157913Y-287520D01*
X157863Y-287218D01*
X157793Y-286956D01*
X157703Y-286735D01*
X157593Y-286554D01*
X157463Y-286413D01*
X157313Y-286312D01*
X157143Y-286252D01*
X156953Y-286232D01*
X160953D01*
X160763Y-286252D01*
D02*
G37*
G36*
X161114Y-281690D02*
X161175Y-281860D01*
X161275Y-282010D01*
X161416Y-282140D01*
X161597Y-282250D01*
X161818Y-282340D01*
X162080Y-282410D01*
X162382Y-282460D01*
X162724Y-282490D01*
X163106Y-282500D01*
Y-284500D01*
X162724Y-284510D01*
X162382Y-284540D01*
X162080Y-284590D01*
X161818Y-284660D01*
X161597Y-284750D01*
X161416Y-284860D01*
X161275Y-284990D01*
X161175Y-285140D01*
X161114Y-285310D01*
X161094Y-285500D01*
Y-281500D01*
X161114Y-281690D01*
D02*
G37*
G36*
X159963Y-279138D02*
X159993Y-279480D01*
X160043Y-279782D01*
X160113Y-280044D01*
X160203Y-280265D01*
X160313Y-280446D01*
X160443Y-280587D01*
X160593Y-280688D01*
X160763Y-280748D01*
X160953Y-280768D01*
X156953D01*
X157143Y-280748D01*
X157313Y-280688D01*
X157463Y-280587D01*
X157593Y-280446D01*
X157703Y-280265D01*
X157793Y-280044D01*
X157863Y-279782D01*
X157913Y-279480D01*
X157943Y-279138D01*
X157953Y-278756D01*
X159953D01*
X159963Y-279138D01*
D02*
G37*
G36*
X191294Y-232654D02*
X190881Y-232858D01*
X188912Y-233980D01*
X188762Y-234097D01*
X188645Y-234204D01*
X187316Y-233835D01*
X187484Y-233645D01*
X187617Y-233443D01*
X187715Y-233231D01*
X187778Y-233007D01*
X187806Y-232773D01*
X187799Y-232528D01*
X187757Y-232273D01*
X187680Y-232006D01*
X187569Y-231728D01*
X187422Y-231440D01*
X191294Y-232654D01*
D02*
G37*
G36*
X96122Y-128080D02*
X96391Y-128138D01*
X96650Y-128229D01*
X96904Y-128248D01*
X97152Y-128301D01*
X97188Y-128299D01*
X97204Y-128312D01*
X131457Y-162565D01*
Y-198171D01*
X130995Y-198363D01*
X95543Y-162911D01*
Y-128371D01*
X95696Y-128195D01*
X96043Y-128040D01*
X96122Y-128080D01*
D02*
G37*
G36*
X72632Y-49522D02*
X73434Y-50566D01*
X94434Y-71566D01*
X95478Y-72368D01*
X96338Y-72724D01*
X96695Y-72871D01*
X98000Y-73043D01*
X118411D01*
X145957Y-100589D01*
Y-169411D01*
X142005Y-173363D01*
X141543Y-173171D01*
Y-160476D01*
X141371Y-159171D01*
X140867Y-157955D01*
X140066Y-156910D01*
X110615Y-127459D01*
X110821Y-126958D01*
X111309Y-126756D01*
X123618D01*
Y-113244D01*
X121539D01*
Y-89030D01*
X122023Y-88400D01*
X122602Y-87001D01*
X122800Y-85500D01*
X122602Y-83999D01*
X122023Y-82600D01*
X121101Y-81399D01*
X119900Y-80477D01*
X118501Y-79898D01*
X117000Y-79700D01*
X115499Y-79898D01*
X114100Y-80477D01*
X112899Y-81399D01*
X111977Y-82600D01*
X111398Y-83999D01*
X111294Y-84787D01*
X110337Y-85744D01*
X104923D01*
X72043Y-52864D01*
Y-49405D01*
X72543Y-49306D01*
X72632Y-49522D01*
D02*
G37*
G36*
X179329Y-243519D02*
X179218Y-243640D01*
X179118Y-243766D01*
X179030Y-243898D01*
X178954Y-244036D01*
X178890Y-244179D01*
X178838Y-244328D01*
X178798Y-244483D01*
X178770Y-244644D01*
X178754Y-244810D01*
X178750Y-244983D01*
X177017Y-243250D01*
X177190Y-243246D01*
X177356Y-243230D01*
X177517Y-243202D01*
X177672Y-243162D01*
X177821Y-243110D01*
X177964Y-243046D01*
X178102Y-242970D01*
X178234Y-242882D01*
X178360Y-242782D01*
X178481Y-242671D01*
X179329Y-243519D01*
D02*
G37*
G36*
X154857Y-272252D02*
X154687Y-272312D01*
X154537Y-272413D01*
X154407Y-272554D01*
X154297Y-272735D01*
X154207Y-272956D01*
X154137Y-273218D01*
X154087Y-273520D01*
X154057Y-273862D01*
X154047Y-274244D01*
X152047D01*
X152037Y-273862D01*
X152007Y-273520D01*
X151957Y-273218D01*
X151887Y-272956D01*
X151797Y-272735D01*
X151687Y-272554D01*
X151557Y-272413D01*
X151407Y-272312D01*
X151237Y-272252D01*
X151047Y-272232D01*
X155047D01*
X154857Y-272252D01*
D02*
G37*
G36*
X160763D02*
X160593Y-272312D01*
X160443Y-272413D01*
X160313Y-272554D01*
X160203Y-272735D01*
X160113Y-272956D01*
X160043Y-273218D01*
X159993Y-273520D01*
X159963Y-273862D01*
X159953Y-274244D01*
X157953D01*
X157943Y-273862D01*
X157913Y-273520D01*
X157863Y-273218D01*
X157793Y-272956D01*
X157703Y-272735D01*
X157593Y-272554D01*
X157463Y-272413D01*
X157313Y-272312D01*
X157143Y-272252D01*
X156953Y-272232D01*
X160953D01*
X160763Y-272252D01*
D02*
G37*
G36*
X150741Y-265766D02*
X151513Y-266425D01*
X151848Y-266662D01*
X152148Y-266836D01*
X152413Y-266947D01*
X152645Y-266996D01*
X152841Y-266982D01*
X153004Y-266906D01*
X153132Y-266768D01*
X150906Y-270175D01*
X150991Y-269994D01*
X151026Y-269791D01*
X151010Y-269564D01*
X150944Y-269315D01*
X150826Y-269044D01*
X150658Y-268750D01*
X150440Y-268433D01*
X150170Y-268093D01*
X149850Y-267731D01*
X149480Y-267347D01*
X150303Y-265342D01*
X150741Y-265766D01*
D02*
G37*
G36*
X75994Y-291044D02*
X75994Y-291093D01*
X75983Y-291248D01*
X75978Y-291276D01*
X75973Y-291300D01*
X75967Y-291319D01*
X75959Y-291334D01*
X75951Y-291345D01*
X75145Y-290453D01*
X76006Y-289519D01*
X75994Y-291044D01*
D02*
G37*
G36*
X104893Y-302581D02*
X104971Y-302630D01*
X105061Y-302674D01*
X105166Y-302711D01*
X105284Y-302743D01*
X105416Y-302769D01*
X105561Y-302790D01*
X105892Y-302813D01*
X106078Y-302816D01*
Y-304616D01*
X105892Y-304619D01*
X105561Y-304642D01*
X105416Y-304662D01*
X105284Y-304688D01*
X105166Y-304720D01*
X105061Y-304758D01*
X104971Y-304801D01*
X104893Y-304851D01*
X104830Y-304906D01*
Y-302526D01*
X104893Y-302581D01*
D02*
G37*
G36*
X102402Y-303091D02*
X102980Y-303079D01*
Y-304352D01*
X102955Y-304346D01*
X102895Y-304339D01*
X102668Y-304329D01*
X102402Y-304327D01*
Y-304906D01*
X102284Y-304794D01*
X102161Y-304693D01*
X102033Y-304605D01*
X101901Y-304528D01*
X101763Y-304463D01*
X101621Y-304410D01*
X101474Y-304369D01*
X101323Y-304339D01*
X101166Y-304322D01*
X101005Y-304316D01*
Y-303116D01*
X101166Y-303110D01*
X101323Y-303092D01*
X101474Y-303063D01*
X101621Y-303021D01*
X101763Y-302968D01*
X101901Y-302903D01*
X102033Y-302827D01*
X102161Y-302738D01*
X102284Y-302638D01*
X102402Y-302526D01*
Y-303091D01*
D02*
G37*
G36*
X81633Y-298844D02*
X81531Y-298880D01*
X81441Y-298941D01*
X81363Y-299026D01*
X81297Y-299135D01*
X81243Y-299268D01*
X81201Y-299426D01*
X81171Y-299608D01*
X81153Y-299814D01*
X81151Y-299900D01*
X81153Y-299986D01*
X81171Y-300192D01*
X81201Y-300374D01*
X81243Y-300532D01*
X81297Y-300665D01*
X81363Y-300774D01*
X81441Y-300859D01*
X81531Y-300920D01*
X81633Y-300956D01*
X81747Y-300968D01*
X81151D01*
X81255Y-302993D01*
X79840D01*
X79860Y-302953D01*
X79878Y-302875D01*
X79895Y-302760D01*
X79920Y-302416D01*
X79946Y-300968D01*
X79347D01*
X79461Y-300956D01*
X79563Y-300920D01*
X79653Y-300859D01*
X79731Y-300774D01*
X79797Y-300665D01*
X79851Y-300532D01*
X79893Y-300374D01*
X79923Y-300192D01*
X79941Y-299986D01*
X79944Y-299900D01*
X79941Y-299814D01*
X79923Y-299608D01*
X79893Y-299426D01*
X79851Y-299268D01*
X79797Y-299135D01*
X79731Y-299026D01*
X79653Y-298941D01*
X79563Y-298880D01*
X79461Y-298844D01*
X79347Y-298832D01*
X81747D01*
X81633Y-298844D01*
D02*
G37*
G36*
X88618Y-302630D02*
X88654Y-302732D01*
X88714Y-302822D01*
X88798Y-302900D01*
X88906Y-302966D01*
X89038Y-303020D01*
X89194Y-303062D01*
X89374Y-303092D01*
X89578Y-303110D01*
X89806Y-303116D01*
Y-304316D01*
X89578Y-304322D01*
X89374Y-304340D01*
X89194Y-304370D01*
X89038Y-304412D01*
X88906Y-304466D01*
X88798Y-304532D01*
X88714Y-304610D01*
X88654Y-304700D01*
X88618Y-304802D01*
X88606Y-304916D01*
Y-302516D01*
X88618Y-302630D01*
D02*
G37*
G36*
X131457Y-245829D02*
Y-301707D01*
X131451Y-301761D01*
X131440Y-301817D01*
X131429Y-301860D01*
X131416Y-301894D01*
X131400Y-301927D01*
X131379Y-301965D01*
X131346Y-302013D01*
X131313Y-302055D01*
X122411Y-310957D01*
X89075D01*
X89074Y-310956D01*
X89342Y-310456D01*
X92618D01*
Y-308355D01*
X100299D01*
X100741Y-308695D01*
X102128Y-309269D01*
X103616Y-309465D01*
X105104Y-309269D01*
X106490Y-308695D01*
X106538Y-308658D01*
X109301D01*
X109684Y-308709D01*
X110977Y-308538D01*
X112181Y-308040D01*
X113215Y-307246D01*
X114660Y-305801D01*
X114966Y-305566D01*
X115768Y-304522D01*
X116271Y-303305D01*
X116443Y-302000D01*
Y-297187D01*
X116271Y-295881D01*
X115768Y-294665D01*
X114966Y-293621D01*
X102500Y-281154D01*
Y-274132D01*
X130995Y-245637D01*
X131457Y-245829D01*
D02*
G37*
G36*
X82357Y-306452D02*
X82187Y-306512D01*
X82037Y-306613D01*
X81907Y-306754D01*
X81797Y-306935D01*
X81707Y-307156D01*
X81637Y-307418D01*
X81587Y-307720D01*
X81557Y-308062D01*
X81547Y-308444D01*
X79547D01*
X79537Y-308062D01*
X79507Y-307720D01*
X79457Y-307418D01*
X79387Y-307156D01*
X79297Y-306935D01*
X79187Y-306754D01*
X79057Y-306613D01*
X78907Y-306512D01*
X78737Y-306452D01*
X78547Y-306432D01*
X82547D01*
X82357Y-306452D01*
D02*
G37*
G36*
X137514Y-299952D02*
X137557Y-300249D01*
X137627Y-300479D01*
X137726Y-300640D01*
X137854Y-300732D01*
X138009Y-300757D01*
X138193Y-300713D01*
X138405Y-300601D01*
X138646Y-300420D01*
X138914Y-300172D01*
X137207Y-304707D01*
X134086Y-305000D01*
X134354Y-304711D01*
X134595Y-304411D01*
X134807Y-304099D01*
X134991Y-303775D01*
X135146Y-303439D01*
X135274Y-303092D01*
X135373Y-302733D01*
X135443Y-302362D01*
X135486Y-301980D01*
X135500Y-301586D01*
X137500Y-299586D01*
X137514Y-299952D01*
D02*
G37*
G36*
X105053Y-298197D02*
X105173Y-298293D01*
X105298Y-298378D01*
X105426Y-298452D01*
X105558Y-298514D01*
X105695Y-298564D01*
X105836Y-298603D01*
X105981Y-298630D01*
X106130Y-298646D01*
X106283Y-298650D01*
X104650Y-300284D01*
X104646Y-300130D01*
X104630Y-299981D01*
X104603Y-299836D01*
X104564Y-299695D01*
X104514Y-299558D01*
X104452Y-299426D01*
X104378Y-299297D01*
X104293Y-299173D01*
X104197Y-299053D01*
X104089Y-298937D01*
X104937Y-298089D01*
X105053Y-298197D01*
D02*
G37*
G36*
X87059Y-292386D02*
X87077Y-292592D01*
X87107Y-292774D01*
X87149Y-292932D01*
X87203Y-293065D01*
X87269Y-293174D01*
X87347Y-293259D01*
X87437Y-293320D01*
X87539Y-293356D01*
X87653Y-293368D01*
X85253D01*
X85367Y-293356D01*
X85469Y-293320D01*
X85559Y-293259D01*
X85637Y-293174D01*
X85703Y-293065D01*
X85757Y-292932D01*
X85799Y-292774D01*
X85829Y-292592D01*
X85847Y-292386D01*
X85853Y-292156D01*
X87053D01*
X87059Y-292386D01*
D02*
G37*
G36*
X154047Y-290070D02*
X154024Y-293262D01*
X151049Y-291145D01*
X151239Y-291109D01*
X151408Y-291047D01*
X151558Y-290958D01*
X151688Y-290841D01*
X151798Y-290697D01*
X151888Y-290526D01*
X151957Y-290328D01*
X152007Y-290103D01*
X152037Y-289850D01*
X152047Y-289570D01*
X154047Y-290070D01*
D02*
G37*
G36*
X60095Y-289814D02*
X60224Y-289920D01*
X60357Y-290014D01*
X60495Y-290095D01*
X60638Y-290164D01*
X60784Y-290220D01*
X60935Y-290264D01*
X61090Y-290296D01*
X61250Y-290314D01*
X61414Y-290320D01*
Y-291521D01*
X61250Y-291527D01*
X61090Y-291546D01*
X60935Y-291577D01*
X60784Y-291620D01*
X60638Y-291677D01*
X60495Y-291745D01*
X60357Y-291827D01*
X60224Y-291920D01*
X60095Y-292027D01*
X59970Y-292145D01*
Y-289696D01*
X60095Y-289814D01*
D02*
G37*
G36*
X146882Y-270467D02*
Y-276256D01*
X146882D01*
X146882Y-276744D01*
X146882D01*
Y-288809D01*
X146548Y-289083D01*
X145704Y-290110D01*
X145078Y-291283D01*
X144692Y-292555D01*
X144603Y-293457D01*
X142000D01*
X141919Y-293467D01*
X141543Y-293138D01*
Y-265781D01*
X142005Y-265590D01*
X146882Y-270467D01*
D02*
G37*
G36*
X161159Y-296629D02*
X160904Y-296636D01*
X160655Y-296662D01*
X160413Y-296707D01*
X160178Y-296772D01*
X159951Y-296856D01*
X159730Y-296959D01*
X159516Y-297081D01*
X159309Y-297223D01*
X159109Y-297384D01*
X158916Y-297564D01*
X157501Y-296150D01*
X157681Y-295957D01*
X157842Y-295757D01*
X157984Y-295550D01*
X158106Y-295336D01*
X158209Y-295115D01*
X158293Y-294887D01*
X158358Y-294652D01*
X158404Y-294410D01*
X158430Y-294162D01*
X158437Y-293906D01*
X161159Y-296629D01*
D02*
G37*
G36*
X88606Y-295014D02*
X88643Y-295116D01*
X88703Y-295206D01*
X88788Y-295284D01*
X88897Y-295350D01*
X89030Y-295404D01*
X89188Y-295446D01*
X89370Y-295476D01*
X89576Y-295494D01*
X89806Y-295500D01*
Y-296700D01*
X89576Y-296706D01*
X89370Y-296724D01*
X89188Y-296754D01*
X89030Y-296796D01*
X88897Y-296850D01*
X88788Y-296916D01*
X88703Y-296994D01*
X88643Y-297084D01*
X88606Y-297186D01*
X88594Y-297300D01*
Y-294900D01*
X88606Y-295014D01*
D02*
G37*
G36*
X78076Y-292772D02*
X78553Y-293180D01*
X78757Y-293325D01*
X78938Y-293430D01*
X79096Y-293495D01*
X79232Y-293520D01*
X79344Y-293505D01*
X79434Y-293451D01*
X79500Y-293356D01*
X78394Y-295644D01*
X78435Y-295524D01*
X78448Y-295393D01*
X78434Y-295251D01*
X78391Y-295098D01*
X78320Y-294934D01*
X78221Y-294758D01*
X78094Y-294572D01*
X77939Y-294375D01*
X77756Y-294166D01*
X77545Y-293947D01*
X77803Y-292508D01*
X78076Y-292772D01*
D02*
G37*
G36*
X100902Y-120316D02*
X100962Y-120486D01*
X101063Y-120636D01*
X101203Y-120766D01*
X101384Y-120876D01*
X101606Y-120966D01*
X101867Y-121036D01*
X102169Y-121086D01*
X102511Y-121116D01*
X102893Y-121126D01*
Y-123126D01*
X102511Y-123136D01*
X102169Y-123166D01*
X101867Y-123216D01*
X101606Y-123286D01*
X101384Y-123376D01*
X101203Y-123486D01*
X101143Y-123542D01*
X101227Y-123662D01*
X101525Y-124031D01*
X102308Y-124870D01*
X100303Y-125694D01*
X99919Y-125324D01*
X99220Y-124737D01*
X98903Y-124520D01*
X98609Y-124353D01*
X98337Y-124237D01*
X98088Y-124172D01*
X97861Y-124157D01*
X97657Y-124193D01*
X97474Y-124279D01*
X100882Y-122049D01*
Y-120126D01*
X100902Y-120316D01*
D02*
G37*
G36*
X16991Y-38941D02*
X17034Y-39222D01*
X17106Y-39505D01*
X17206Y-39787D01*
X17334Y-40069D01*
X17491Y-40353D01*
X17676Y-40636D01*
X17890Y-40920D01*
X18132Y-41204D01*
X18402Y-41488D01*
Y-44316D01*
X18239Y-44159D01*
X17927Y-43894D01*
X17778Y-43786D01*
X17635Y-43695D01*
X17495Y-43620D01*
X17361Y-43563D01*
X17232Y-43521D01*
X17108Y-43496D01*
X16988Y-43488D01*
X16976Y-38660D01*
X16991Y-38941D01*
D02*
G37*
G36*
X116482Y-86750D02*
X118225D01*
X118087Y-86892D01*
X117964Y-87036D01*
X117855Y-87181D01*
X117761Y-87327D01*
X117681Y-87474D01*
X117616Y-87623D01*
X117565Y-87772D01*
X117529Y-87923D01*
X117507Y-88074D01*
X117500Y-88227D01*
X116500D01*
X116493Y-88074D01*
X116471Y-87923D01*
X116435Y-87772D01*
X116384Y-87623D01*
X116319Y-87474D01*
X116241Y-87332D01*
X116086Y-87378D01*
X115935Y-87436D01*
X115793Y-87506D01*
X115661Y-87587D01*
X115538Y-87679D01*
X115425Y-87782D01*
X114718Y-87075D01*
X114821Y-86962D01*
X114913Y-86839D01*
X114994Y-86707D01*
X115064Y-86565D01*
X115122Y-86414D01*
X115170Y-86254D01*
X115207Y-86084D01*
X115232Y-85905D01*
X115247Y-85716D01*
X115250Y-85518D01*
X116482Y-86750D01*
D02*
G37*
G36*
X186888Y-41441D02*
X186732Y-41328D01*
X186548Y-41271D01*
X186336D01*
X186096Y-41328D01*
X185827Y-41441D01*
X185530Y-41611D01*
X185205Y-41837D01*
X184851Y-42120D01*
X184059Y-42855D01*
X182645Y-41441D01*
X183041Y-41031D01*
X183663Y-40295D01*
X183889Y-39970D01*
X184059Y-39673D01*
X184172Y-39404D01*
X184229Y-39164D01*
Y-38952D01*
X184172Y-38768D01*
X184059Y-38612D01*
X186888Y-41441D01*
D02*
G37*
G36*
X152960Y-40323D02*
X152987Y-40607D01*
X153034Y-40880D01*
X153101Y-41144D01*
X153188Y-41397D01*
X153295Y-41640D01*
X153422Y-41873D01*
X153570Y-42095D01*
X153737Y-42308D01*
X153924Y-42510D01*
X152510Y-43924D01*
X152308Y-43737D01*
X152095Y-43570D01*
X151873Y-43422D01*
X151640Y-43295D01*
X151397Y-43188D01*
X151144Y-43101D01*
X150880Y-43034D01*
X150607Y-42987D01*
X150323Y-42960D01*
X150030Y-42953D01*
X152953Y-40029D01*
X152960Y-40323D01*
D02*
G37*
G36*
X104548Y-93500D02*
X104478Y-93514D01*
X104387Y-93555D01*
X104274Y-93624D01*
X104139Y-93721D01*
X103804Y-93997D01*
X103139Y-94618D01*
X102874Y-94880D01*
X102401Y-94407D01*
X102394Y-95244D01*
X102393Y-95266D01*
X102390Y-95307D01*
X102387Y-95325D01*
X102384Y-95341D01*
X102379Y-95356D01*
X102374Y-95370D01*
X102368Y-95382D01*
X102361Y-95392D01*
X102354Y-95401D01*
X101687Y-94653D01*
X102406Y-93866D01*
X102405Y-93932D01*
X102429Y-93908D01*
X103423Y-92773D01*
X103492Y-92660D01*
X103533Y-92569D01*
X103547Y-92499D01*
X104548Y-93500D01*
D02*
G37*
G36*
X102507Y-97926D02*
X102529Y-98077D01*
X102565Y-98228D01*
X102616Y-98377D01*
X102681Y-98526D01*
X102761Y-98673D01*
X102855Y-98819D01*
X102964Y-98964D01*
X103087Y-99108D01*
X103225Y-99250D01*
X100775D01*
X100913Y-99108D01*
X101036Y-98964D01*
X101145Y-98819D01*
X101239Y-98673D01*
X101319Y-98526D01*
X101384Y-98377D01*
X101435Y-98228D01*
X101471Y-98077D01*
X101493Y-97926D01*
X101500Y-97773D01*
X102500D01*
X102507Y-97926D01*
D02*
G37*
G36*
X113313Y-89894D02*
X113121Y-90093D01*
X112819Y-90452D01*
X112707Y-90613D01*
X112623Y-90761D01*
X112566Y-90896D01*
X112536Y-91018D01*
X112532Y-91127D01*
X112556Y-91224D01*
X112606Y-91308D01*
X111330Y-89756D01*
X111401Y-89819D01*
X111488Y-89852D01*
X111591Y-89855D01*
X111709Y-89829D01*
X111843Y-89773D01*
X111992Y-89688D01*
X112157Y-89573D01*
X112337Y-89428D01*
X112744Y-89049D01*
X113313Y-89894D01*
D02*
G37*
G36*
X102241Y-88766D02*
X103013Y-89425D01*
X103348Y-89662D01*
X103648Y-89836D01*
X103913Y-89947D01*
X104145Y-89996D01*
X104341Y-89982D01*
X104504Y-89907D01*
X104632Y-89768D01*
X102406Y-93175D01*
X102491Y-92994D01*
X102526Y-92791D01*
X102510Y-92564D01*
X102444Y-92315D01*
X102326Y-92044D01*
X102158Y-91750D01*
X101940Y-91433D01*
X101670Y-91093D01*
X101350Y-90731D01*
X100980Y-90347D01*
X101803Y-88342D01*
X102241Y-88766D01*
D02*
G37*
G36*
X78864Y-10321D02*
X78683Y-10541D01*
X78523Y-10768D01*
X78384Y-11001D01*
X78267Y-11242D01*
X78171Y-11490D01*
X78096Y-11744D01*
X78043Y-12006D01*
X78011Y-12274D01*
X78000Y-12550D01*
X76000D01*
X75989Y-12274D01*
X75957Y-12006D01*
X75904Y-11744D01*
X75829Y-11490D01*
X75733Y-11242D01*
X75616Y-11001D01*
X75477Y-10768D01*
X75317Y-10541D01*
X75136Y-10321D01*
X74933Y-10109D01*
X79067D01*
X78864Y-10321D01*
D02*
G37*
G36*
X68864D02*
X68683Y-10541D01*
X68523Y-10768D01*
X68384Y-11001D01*
X68267Y-11242D01*
X68171Y-11490D01*
X68096Y-11744D01*
X68043Y-12006D01*
X68011Y-12274D01*
X68000Y-12550D01*
X66000D01*
X65989Y-12274D01*
X65957Y-12006D01*
X65904Y-11744D01*
X65829Y-11490D01*
X65733Y-11242D01*
X65616Y-11001D01*
X65477Y-10768D01*
X65317Y-10541D01*
X65136Y-10321D01*
X64933Y-10109D01*
X69067D01*
X68864Y-10321D01*
D02*
G37*
G36*
X70924Y-5490D02*
X70737Y-5692D01*
X70570Y-5905D01*
X70423Y-6128D01*
X70295Y-6360D01*
X70188Y-6603D01*
X70101Y-6857D01*
X70034Y-7120D01*
X69987Y-7393D01*
X69960Y-7677D01*
X69953Y-7970D01*
X67030Y-5047D01*
X67323Y-5040D01*
X67607Y-5013D01*
X67880Y-4966D01*
X68143Y-4899D01*
X68397Y-4812D01*
X68640Y-4705D01*
X68872Y-4578D01*
X69095Y-4430D01*
X69308Y-4263D01*
X69510Y-4076D01*
X70924Y-5490D01*
D02*
G37*
G36*
X235461Y-345461D02*
X157500D01*
Y-332002D01*
X78522D01*
Y-345461D01*
X4539D01*
Y-4539D01*
X6860D01*
X7158Y-4940D01*
X7101Y-5128D01*
X6966Y-6500D01*
Y-10500D01*
X7101Y-11872D01*
X7502Y-13192D01*
X8152Y-14408D01*
X9026Y-15474D01*
X10092Y-16348D01*
X11308Y-16998D01*
X12628Y-17399D01*
X14000Y-17534D01*
X15372Y-17399D01*
X16692Y-16998D01*
X17908Y-16348D01*
X18974Y-15474D01*
X19848Y-14408D01*
X20498Y-13192D01*
X20899Y-11872D01*
X21034Y-10500D01*
Y-6500D01*
X20899Y-5128D01*
X20842Y-4940D01*
X21140Y-4539D01*
X26860D01*
X27158Y-4940D01*
X27101Y-5128D01*
X26966Y-6500D01*
Y-10500D01*
X27101Y-11872D01*
X27501Y-13192D01*
X28152Y-14408D01*
X29026Y-15474D01*
X30092Y-16348D01*
X31308Y-16998D01*
X32628Y-17399D01*
X34000Y-17534D01*
X35372Y-17399D01*
X36692Y-16998D01*
X37908Y-16348D01*
X38974Y-15474D01*
X39849Y-14408D01*
X40499Y-13192D01*
X40899Y-11872D01*
X41034Y-10500D01*
Y-6500D01*
X40899Y-5128D01*
X40842Y-4940D01*
X41140Y-4539D01*
X53047D01*
Y-7500D01*
X57000D01*
Y-8000D01*
X57500D01*
Y-11953D01*
X60953D01*
X60953Y-11953D01*
Y-11953D01*
D01*
X61391Y-12125D01*
X61949Y-12805D01*
X61957Y-12816D01*
Y-54953D01*
X62129Y-56258D01*
X62633Y-57474D01*
X63434Y-58519D01*
X97959Y-93044D01*
X97616Y-93872D01*
X97461Y-95047D01*
Y-96970D01*
X96977Y-97600D01*
X96398Y-98999D01*
X96318Y-99603D01*
X95885Y-99853D01*
X95343Y-99629D01*
X94037Y-99457D01*
X82089D01*
X21109Y-38477D01*
X21040Y-38396D01*
X20981Y-38317D01*
X20927Y-38028D01*
X20870Y-37606D01*
X20831Y-37511D01*
X20812Y-37411D01*
X20629Y-37027D01*
X20465Y-36634D01*
X20403Y-36553D01*
X20358Y-36460D01*
X20082Y-36137D01*
X19822Y-35800D01*
X19740Y-35738D01*
X19674Y-35660D01*
X19323Y-35419D01*
X18985Y-35161D01*
X18890Y-35122D01*
X18806Y-35064D01*
X18404Y-34922D01*
X18011Y-34760D01*
X18000Y-34759D01*
Y-32500D01*
X14500D01*
Y-38500D01*
X13500D01*
Y-32500D01*
X10000D01*
Y-35500D01*
X9633Y-35978D01*
X9129Y-37195D01*
X8957Y-38500D01*
X9129Y-39805D01*
X9633Y-41022D01*
X10000Y-41500D01*
Y-44500D01*
X12868D01*
X13225Y-44857D01*
X13241Y-44896D01*
X13363Y-45259D01*
X13443Y-45380D01*
X13499Y-45514D01*
X13733Y-45818D01*
X13945Y-46137D01*
X14054Y-46233D01*
X14142Y-46348D01*
X14447Y-46580D01*
X14734Y-46834D01*
X14864Y-46899D01*
X14979Y-46987D01*
X15334Y-47133D01*
X15666Y-47298D01*
X20953Y-52585D01*
X20762Y-53047D01*
X13047D01*
Y-66953D01*
X13254D01*
X13507Y-67453D01*
X13148Y-68637D01*
X13014Y-70000D01*
X13148Y-71363D01*
X13545Y-72674D01*
X14191Y-73881D01*
X14801Y-74625D01*
X15024Y-75000D01*
X14801Y-75375D01*
X14191Y-76119D01*
X13545Y-77326D01*
X13148Y-78637D01*
X13014Y-80000D01*
X13148Y-81363D01*
X13545Y-82674D01*
X14191Y-83881D01*
X14801Y-84625D01*
X15024Y-85000D01*
X14801Y-85375D01*
X14191Y-86119D01*
X13545Y-87326D01*
X13148Y-88637D01*
X13014Y-90000D01*
X13148Y-91363D01*
X13545Y-92674D01*
X14191Y-93881D01*
X14801Y-94625D01*
X15024Y-95000D01*
X14801Y-95375D01*
X14191Y-96119D01*
X13545Y-97326D01*
X13148Y-98637D01*
X13014Y-100000D01*
X13148Y-101363D01*
X13545Y-102674D01*
X14191Y-103881D01*
X14801Y-104625D01*
X15024Y-105000D01*
X14801Y-105375D01*
X14191Y-106119D01*
X13545Y-107326D01*
X13148Y-108637D01*
X13014Y-110000D01*
X13148Y-111363D01*
X13545Y-112674D01*
X14191Y-113881D01*
X14801Y-114625D01*
X15024Y-115000D01*
X14801Y-115375D01*
X14191Y-116119D01*
X13545Y-117326D01*
X13148Y-118637D01*
X13014Y-120000D01*
X13148Y-121363D01*
X13545Y-122674D01*
X14191Y-123881D01*
X14801Y-124625D01*
X15024Y-125000D01*
X14801Y-125375D01*
X14191Y-126119D01*
X13545Y-127326D01*
X13148Y-128637D01*
X13014Y-130000D01*
X13148Y-131363D01*
X13545Y-132674D01*
X14191Y-133881D01*
X15060Y-134940D01*
X16119Y-135809D01*
X17326Y-136455D01*
X18637Y-136852D01*
X20000Y-136986D01*
X21363Y-136852D01*
X22674Y-136455D01*
X23881Y-135809D01*
X24940Y-134940D01*
X25809Y-133881D01*
X26455Y-132674D01*
X26852Y-131363D01*
X26986Y-130000D01*
X26852Y-128637D01*
X26455Y-127326D01*
X25809Y-126119D01*
X25199Y-125375D01*
X24976Y-125000D01*
X25199Y-124625D01*
X25809Y-123881D01*
X26455Y-122674D01*
X26852Y-121363D01*
X26986Y-120000D01*
X26852Y-118637D01*
X26455Y-117326D01*
X25809Y-116119D01*
X25199Y-115375D01*
X24976Y-115000D01*
X25199Y-114625D01*
X25809Y-113881D01*
X26455Y-112674D01*
X26852Y-111363D01*
X26986Y-110000D01*
X26852Y-108637D01*
X26455Y-107326D01*
X25809Y-106119D01*
X25199Y-105375D01*
X24976Y-105000D01*
X25199Y-104625D01*
X25809Y-103881D01*
X26455Y-102674D01*
X26852Y-101363D01*
X26986Y-100000D01*
X26852Y-98637D01*
X26455Y-97326D01*
X25809Y-96119D01*
X25199Y-95375D01*
X24976Y-95000D01*
X25199Y-94625D01*
X25809Y-93881D01*
X26455Y-92674D01*
X26852Y-91363D01*
X26986Y-90000D01*
X26852Y-88637D01*
X26455Y-87326D01*
X25809Y-86119D01*
X25199Y-85375D01*
X24976Y-85000D01*
X25199Y-84625D01*
X25809Y-83881D01*
X26455Y-82674D01*
X26852Y-81363D01*
X26986Y-80000D01*
X26852Y-78637D01*
X26455Y-77326D01*
X25809Y-76119D01*
X25199Y-75375D01*
X24976Y-75000D01*
X25199Y-74625D01*
X25809Y-73881D01*
X26455Y-72674D01*
X26852Y-71363D01*
X26986Y-70000D01*
X26852Y-68637D01*
X26493Y-67453D01*
X26746Y-66953D01*
X26953D01*
Y-59238D01*
X27415Y-59047D01*
X76434Y-108066D01*
X77478Y-108868D01*
X78695Y-109371D01*
X80000Y-109543D01*
X80000Y-109543D01*
X84844D01*
X85122Y-109959D01*
X84898Y-110499D01*
X84700Y-112000D01*
X84898Y-113501D01*
X85457Y-114850D01*
Y-165000D01*
X85629Y-166305D01*
X86133Y-167522D01*
X86934Y-168566D01*
X126457Y-208089D01*
Y-226270D01*
X125957Y-226395D01*
X125809Y-226119D01*
X124940Y-225060D01*
X123881Y-224191D01*
X122674Y-223545D01*
X121363Y-223148D01*
X120000Y-223014D01*
X118637Y-223148D01*
X117326Y-223545D01*
X116119Y-224191D01*
X115375Y-224801D01*
X115000Y-225024D01*
X114625Y-224801D01*
X113881Y-224191D01*
X112674Y-223545D01*
X111363Y-223148D01*
X110000Y-223014D01*
X108637Y-223148D01*
X107326Y-223545D01*
X106119Y-224191D01*
X105375Y-224801D01*
X105000Y-225024D01*
X104625Y-224801D01*
X103881Y-224191D01*
X102674Y-223545D01*
X101363Y-223148D01*
X100000Y-223014D01*
X98637Y-223148D01*
X97326Y-223545D01*
X96119Y-224191D01*
X95375Y-224801D01*
X95000Y-225024D01*
X94625Y-224801D01*
X93881Y-224191D01*
X92674Y-223545D01*
X91363Y-223148D01*
X90000Y-223014D01*
X88637Y-223148D01*
X87326Y-223545D01*
X86119Y-224191D01*
X85375Y-224801D01*
X85000Y-225024D01*
X84625Y-224801D01*
X83881Y-224191D01*
X82674Y-223545D01*
X81363Y-223148D01*
X80000Y-223014D01*
X78637Y-223148D01*
X77326Y-223545D01*
X76119Y-224191D01*
X75375Y-224801D01*
X75000Y-225024D01*
X74625Y-224801D01*
X73881Y-224191D01*
X72674Y-223545D01*
X71363Y-223148D01*
X70000Y-223014D01*
X68637Y-223148D01*
X67326Y-223545D01*
X66119Y-224191D01*
X65375Y-224801D01*
X65000Y-225024D01*
X64625Y-224801D01*
X63881Y-224191D01*
X62674Y-223545D01*
X61363Y-223148D01*
X60000Y-223014D01*
X58637Y-223148D01*
X57453Y-223507D01*
X56953Y-223254D01*
Y-223047D01*
X43047D01*
Y-236953D01*
X56953D01*
Y-236746D01*
X57453Y-236493D01*
X58637Y-236852D01*
X60000Y-236986D01*
X61363Y-236852D01*
X62674Y-236455D01*
X63881Y-235809D01*
X64625Y-235199D01*
X65000Y-234976D01*
X65375Y-235199D01*
X66119Y-235809D01*
X67326Y-236455D01*
X68637Y-236852D01*
X70000Y-236986D01*
X71363Y-236852D01*
X72674Y-236455D01*
X73881Y-235809D01*
X74625Y-235199D01*
X75000Y-234976D01*
X75375Y-235199D01*
X76119Y-235809D01*
X77326Y-236455D01*
X78637Y-236852D01*
X80000Y-236986D01*
X81363Y-236852D01*
X82674Y-236455D01*
X83881Y-235809D01*
X84625Y-235199D01*
X85000Y-234976D01*
X85375Y-235199D01*
X86119Y-235809D01*
X87326Y-236455D01*
X88637Y-236852D01*
X90000Y-236986D01*
X91363Y-236852D01*
X92674Y-236455D01*
X93881Y-235809D01*
X94625Y-235199D01*
X95000Y-234976D01*
X95375Y-235199D01*
X96119Y-235809D01*
X97326Y-236455D01*
X98637Y-236852D01*
X100000Y-236986D01*
X101363Y-236852D01*
X102674Y-236455D01*
X103881Y-235809D01*
X104625Y-235199D01*
X105000Y-234976D01*
X105375Y-235199D01*
X106119Y-235809D01*
X107326Y-236455D01*
X108637Y-236852D01*
X110000Y-236986D01*
X111363Y-236852D01*
X112674Y-236455D01*
X113881Y-235809D01*
X114625Y-235199D01*
X115000Y-234976D01*
X115375Y-235199D01*
X116119Y-235809D01*
X117326Y-236455D01*
X118637Y-236852D01*
X120000Y-236986D01*
X121363Y-236852D01*
X122674Y-236455D01*
X123881Y-235809D01*
X124940Y-234940D01*
X125809Y-233881D01*
X125957Y-233605D01*
X126457Y-233730D01*
Y-235911D01*
X93891Y-268477D01*
X93089Y-269522D01*
X92585Y-270738D01*
X92414Y-272043D01*
Y-278604D01*
X62042D01*
X61543Y-278221D01*
X60144Y-277641D01*
X58643Y-277444D01*
X57142Y-277641D01*
X55743Y-278221D01*
X54542Y-279142D01*
X53621Y-280344D01*
X53041Y-281742D01*
X52844Y-283243D01*
X53041Y-284744D01*
X53621Y-286143D01*
X54542Y-287344D01*
X55250Y-287887D01*
X54702Y-288601D01*
X54239Y-289720D01*
X54081Y-290920D01*
X54239Y-292121D01*
X54702Y-293240D01*
X55440Y-294201D01*
X56401Y-294939D01*
X57520Y-295402D01*
X57659Y-295420D01*
X57868Y-295589D01*
X57914Y-295609D01*
X57953Y-295639D01*
X58394Y-295822D01*
X58831Y-296016D01*
X58880Y-296024D01*
X58926Y-296042D01*
X59400Y-296105D01*
X59872Y-296179D01*
X59921Y-296174D01*
X59970Y-296180D01*
X60444Y-296118D01*
X60919Y-296067D01*
X60965Y-296049D01*
X61014Y-296042D01*
X61456Y-295860D01*
X61901Y-295688D01*
X61941Y-295658D01*
X61988Y-295639D01*
X62091Y-295560D01*
X73446D01*
X74501Y-296615D01*
X74525Y-296687D01*
X74584Y-296970D01*
X74691Y-297184D01*
X74767Y-297412D01*
X74927Y-297653D01*
X75056Y-297911D01*
X75216Y-298090D01*
X75349Y-298290D01*
X75361Y-298301D01*
X75335Y-298405D01*
X75341Y-298620D01*
X75313Y-298832D01*
X75354Y-299144D01*
X75362Y-299458D01*
X75422Y-299664D01*
X75450Y-299876D01*
X75460Y-299900D01*
X75450Y-299924D01*
X75422Y-300136D01*
X75362Y-300342D01*
X75354Y-300656D01*
X75313Y-300968D01*
X75341Y-301181D01*
X75335Y-301395D01*
X75409Y-301700D01*
X75450Y-302012D01*
X75532Y-302210D01*
X75582Y-302418D01*
X75655Y-302552D01*
X75504Y-303700D01*
Y-303827D01*
X75502Y-303829D01*
X75285Y-304058D01*
X75183Y-304245D01*
X75053Y-304415D01*
X74932Y-304706D01*
X74782Y-304983D01*
X74732Y-305190D01*
X74650Y-305388D01*
X74609Y-305700D01*
X74535Y-306007D01*
X74541Y-306220D01*
X74513Y-306432D01*
X74554Y-306745D01*
X74562Y-307060D01*
X74622Y-307264D01*
X74650Y-307476D01*
X74771Y-307768D01*
X74860Y-308070D01*
X74972Y-308252D01*
X75053Y-308449D01*
X75245Y-308699D01*
X75410Y-308968D01*
X75504Y-309058D01*
Y-310047D01*
X75676Y-311352D01*
X76180Y-312569D01*
X76981Y-313613D01*
X82934Y-319566D01*
X83978Y-320368D01*
X84838Y-320724D01*
X85195Y-320871D01*
X86500Y-321043D01*
X124500D01*
X125805Y-320871D01*
X127022Y-320368D01*
X128066Y-319566D01*
X140066Y-307566D01*
X143967Y-303665D01*
X144524Y-303680D01*
X144561Y-303721D01*
X144692Y-305045D01*
X145078Y-306317D01*
X145704Y-307489D01*
X146548Y-308517D01*
X147576Y-309361D01*
X148749Y-309988D01*
X150021Y-310374D01*
X151344Y-310504D01*
X152667Y-310374D01*
X153940Y-309988D01*
X155112Y-309361D01*
X156140Y-308517D01*
X156391D01*
X157418Y-309361D01*
X158591Y-309988D01*
X159863Y-310374D01*
X161187Y-310504D01*
X162510Y-310374D01*
X163782Y-309988D01*
X164955Y-309361D01*
X165983Y-308517D01*
X166826Y-307489D01*
X167453Y-306317D01*
X167839Y-305045D01*
X167969Y-303721D01*
X167839Y-302398D01*
X167453Y-301126D01*
X166826Y-299953D01*
X165983Y-298925D01*
X164955Y-298082D01*
X164899Y-298052D01*
X165056Y-297673D01*
X165063Y-297618D01*
X165083Y-297565D01*
X165132Y-297096D01*
X165155Y-296920D01*
X165554Y-296400D01*
X166058Y-295184D01*
X166230Y-293879D01*
X166058Y-292573D01*
X165554Y-291357D01*
X164753Y-290313D01*
X163996Y-289556D01*
Y-288858D01*
X164090Y-288769D01*
X164255Y-288499D01*
X164307Y-288431D01*
X164760Y-288371D01*
X165977Y-287867D01*
X167021Y-287066D01*
X168702Y-285385D01*
X168846Y-285331D01*
X169098Y-285260D01*
X169451Y-285187D01*
X169852Y-285129D01*
X171100Y-285044D01*
X171827Y-285039D01*
X172334Y-284968D01*
X172841Y-284901D01*
X172855Y-284896D01*
X172870Y-284894D01*
X173341Y-284694D01*
X173814Y-284498D01*
X173826Y-284489D01*
X173840Y-284483D01*
X174245Y-284168D01*
X174650Y-283857D01*
X174659Y-283845D01*
X174671Y-283836D01*
X174980Y-283426D01*
X175291Y-283022D01*
X175297Y-283008D01*
X175306Y-282996D01*
X175498Y-282522D01*
X175694Y-282049D01*
X175696Y-282034D01*
X175702Y-282019D01*
X175765Y-281512D01*
X175831Y-281004D01*
X175829Y-280989D01*
X175831Y-280974D01*
X175806Y-280791D01*
X176762Y-280006D01*
X177625Y-278954D01*
X178267Y-277755D01*
X178662Y-276453D01*
X178746Y-275599D01*
X171856D01*
Y-275099D01*
X171356D01*
Y-268210D01*
X170502Y-268294D01*
X169201Y-268689D01*
X168001Y-269330D01*
X166949Y-270193D01*
X166164Y-271149D01*
X165981Y-271124D01*
X165966Y-271126D01*
X165951Y-271124D01*
X165442Y-271191D01*
X164936Y-271253D01*
X164730Y-270819D01*
X164722Y-270799D01*
X164718Y-270783D01*
X164567Y-270506D01*
X164447Y-270215D01*
X164317Y-270045D01*
X164215Y-269858D01*
X163998Y-269629D01*
X163996Y-269627D01*
Y-269500D01*
X163824Y-268195D01*
X163677Y-267839D01*
X163320Y-266978D01*
X162519Y-265934D01*
X162519Y-265934D01*
X161474Y-265132D01*
X160258Y-264629D01*
X159213Y-264491D01*
Y-262744D01*
X153423D01*
X146043Y-255364D01*
Y-236953D01*
X156953D01*
Y-236746D01*
X157453Y-236493D01*
X158637Y-236852D01*
X160000Y-236986D01*
X161363Y-236852D01*
X162674Y-236455D01*
X163881Y-235809D01*
X164625Y-235199D01*
X165000Y-234976D01*
X165375Y-235199D01*
X166119Y-235809D01*
X167326Y-236455D01*
X168637Y-236852D01*
X170000Y-236986D01*
X171363Y-236852D01*
X172674Y-236455D01*
X173881Y-235809D01*
X174625Y-235199D01*
X175000Y-234976D01*
X175375Y-235199D01*
X176119Y-235809D01*
X177326Y-236455D01*
X178133Y-236699D01*
X178254Y-237184D01*
X176123Y-239316D01*
X175499Y-239398D01*
X174100Y-239977D01*
X172899Y-240899D01*
X171977Y-242100D01*
X171398Y-243499D01*
X171200Y-245000D01*
X171398Y-246501D01*
X171977Y-247900D01*
X172899Y-249101D01*
X174100Y-250023D01*
X175499Y-250602D01*
X177000Y-250800D01*
X178501Y-250602D01*
X179900Y-250023D01*
X181101Y-249101D01*
X182023Y-247900D01*
X182602Y-246501D01*
X182684Y-245877D01*
X191296Y-237265D01*
X192775Y-236422D01*
X193079Y-236272D01*
X193118Y-236246D01*
X193162Y-236230D01*
X193380Y-236077D01*
X193881Y-235809D01*
X194625Y-235199D01*
X195000Y-234976D01*
X195375Y-235199D01*
X196119Y-235809D01*
X197326Y-236455D01*
X198637Y-236852D01*
X200000Y-236986D01*
X201363Y-236852D01*
X202674Y-236455D01*
X203881Y-235809D01*
X204625Y-235199D01*
X205000Y-234976D01*
X205375Y-235199D01*
X206119Y-235809D01*
X207326Y-236455D01*
X208637Y-236852D01*
X210000Y-236986D01*
X211363Y-236852D01*
X212674Y-236455D01*
X213881Y-235809D01*
X214625Y-235199D01*
X215000Y-234976D01*
X215375Y-235199D01*
X216119Y-235809D01*
X217326Y-236455D01*
X218637Y-236852D01*
X220000Y-236986D01*
X221363Y-236852D01*
X222674Y-236455D01*
X223881Y-235809D01*
X224940Y-234940D01*
X225809Y-233881D01*
X226455Y-232674D01*
X226852Y-231363D01*
X226986Y-230000D01*
X226852Y-228637D01*
X226455Y-227326D01*
X225809Y-226119D01*
X224940Y-225060D01*
X223881Y-224191D01*
X222674Y-223545D01*
X221363Y-223148D01*
X220000Y-223014D01*
X218637Y-223148D01*
X217326Y-223545D01*
X216119Y-224191D01*
X215375Y-224801D01*
X215000Y-225024D01*
X214625Y-224801D01*
X213881Y-224191D01*
X212674Y-223545D01*
X211363Y-223148D01*
X210000Y-223014D01*
X208637Y-223148D01*
X207326Y-223545D01*
X206119Y-224191D01*
X205375Y-224801D01*
X205000Y-225024D01*
X204625Y-224801D01*
X203881Y-224191D01*
X202674Y-223545D01*
X201363Y-223148D01*
X200000Y-223014D01*
X198637Y-223148D01*
X197326Y-223545D01*
X196119Y-224191D01*
X195375Y-224801D01*
X195000Y-225024D01*
X194625Y-224801D01*
X193881Y-224191D01*
X192674Y-223545D01*
X191363Y-223148D01*
X190000Y-223014D01*
X188637Y-223148D01*
X187326Y-223545D01*
X186119Y-224191D01*
X185375Y-224801D01*
X185000Y-225024D01*
X184625Y-224801D01*
X183881Y-224191D01*
X182674Y-223545D01*
X181363Y-223148D01*
X180000Y-223014D01*
X178637Y-223148D01*
X177326Y-223545D01*
X176119Y-224191D01*
X175375Y-224801D01*
X175000Y-225024D01*
X174625Y-224801D01*
X173881Y-224191D01*
X172674Y-223545D01*
X171363Y-223148D01*
X170000Y-223014D01*
X168637Y-223148D01*
X167326Y-223545D01*
X166119Y-224191D01*
X165375Y-224801D01*
X165000Y-225024D01*
X164625Y-224801D01*
X163881Y-224191D01*
X162674Y-223545D01*
X161363Y-223148D01*
X160000Y-223014D01*
X158637Y-223148D01*
X157453Y-223507D01*
X156953Y-223254D01*
Y-223047D01*
X146043D01*
Y-183589D01*
X154566Y-175066D01*
X155368Y-174022D01*
X155871Y-172805D01*
X156043Y-171500D01*
X156043Y-171500D01*
Y-98500D01*
X155871Y-97195D01*
X155724Y-96838D01*
X155368Y-95978D01*
X154566Y-94934D01*
X124066Y-64434D01*
X123022Y-63633D01*
X121805Y-63129D01*
X120500Y-62957D01*
X100089D01*
X82043Y-44911D01*
Y-12816D01*
X82051Y-12805D01*
X82809Y-11881D01*
X83455Y-10674D01*
X83852Y-9363D01*
X83986Y-8000D01*
X83978Y-7914D01*
X84314Y-7543D01*
X186411D01*
X189457Y-10589D01*
Y-11560D01*
X189055Y-11858D01*
X188363Y-11648D01*
X187000Y-11514D01*
X185637Y-11648D01*
X184326Y-12045D01*
X183119Y-12691D01*
X182195Y-13449D01*
X182184Y-13457D01*
X181500D01*
X180195Y-13629D01*
X178978Y-14132D01*
X177934Y-14934D01*
X167415Y-25453D01*
X166953Y-25262D01*
Y-23047D01*
X153047D01*
Y-23255D01*
X152547Y-23507D01*
X151363Y-23148D01*
X150000Y-23014D01*
X148637Y-23148D01*
X147326Y-23545D01*
X146119Y-24191D01*
X145060Y-25060D01*
X144940D01*
X143881Y-24191D01*
X142674Y-23545D01*
X141363Y-23148D01*
X140000Y-23014D01*
X138637Y-23148D01*
X137326Y-23545D01*
X136119Y-24191D01*
X135375Y-24801D01*
X135000Y-25024D01*
X134625Y-24801D01*
X133881Y-24191D01*
X132674Y-23545D01*
X131363Y-23148D01*
X130000Y-23014D01*
X128637Y-23148D01*
X127326Y-23545D01*
X126119Y-24191D01*
X125060Y-25060D01*
X124191Y-26119D01*
X123545Y-27326D01*
X123530Y-27377D01*
X123038Y-27466D01*
X122819Y-27181D01*
X121993Y-26547D01*
X121032Y-26149D01*
X120500Y-26079D01*
Y-30000D01*
X119500D01*
Y-26079D01*
X118968Y-26149D01*
X118007Y-26547D01*
X117181Y-27181D01*
X116962Y-27466D01*
X116470Y-27377D01*
X116455Y-27326D01*
X115809Y-26119D01*
X114940Y-25060D01*
X113881Y-24191D01*
X112674Y-23545D01*
X111363Y-23148D01*
X110000Y-23014D01*
X108637Y-23148D01*
X107326Y-23545D01*
X106119Y-24191D01*
X105060Y-25060D01*
X104940D01*
X103881Y-24191D01*
X102674Y-23545D01*
X101363Y-23148D01*
X100000Y-23014D01*
X98637Y-23148D01*
X97326Y-23545D01*
X96119Y-24191D01*
X95060Y-25060D01*
X94191Y-26119D01*
X93545Y-27326D01*
X93148Y-28637D01*
X93014Y-30000D01*
X93148Y-31363D01*
X93545Y-32674D01*
X94191Y-33881D01*
X94801Y-34625D01*
X95024Y-35000D01*
X94801Y-35375D01*
X94191Y-36119D01*
X93545Y-37326D01*
X93148Y-38637D01*
X93014Y-40000D01*
X93148Y-41363D01*
X93545Y-42674D01*
X94191Y-43881D01*
X95060Y-44940D01*
X96119Y-45809D01*
X97326Y-46455D01*
X98637Y-46852D01*
X100000Y-46986D01*
X101363Y-46852D01*
X102674Y-46455D01*
X103881Y-45809D01*
X104940Y-44940D01*
X105060D01*
X106119Y-45809D01*
X107326Y-46455D01*
X108637Y-46852D01*
X110000Y-46986D01*
X111363Y-46852D01*
X112674Y-46455D01*
X113881Y-45809D01*
X114625Y-45199D01*
X115000Y-44976D01*
X115375Y-45199D01*
X116119Y-45809D01*
X117326Y-46455D01*
X118637Y-46852D01*
X120000Y-46986D01*
X121363Y-46852D01*
X122674Y-46455D01*
X123881Y-45809D01*
X124625Y-45199D01*
X125000Y-44976D01*
X125375Y-45199D01*
X126119Y-45809D01*
X127326Y-46455D01*
X128637Y-46852D01*
X130000Y-46986D01*
X131363Y-46852D01*
X132674Y-46455D01*
X133881Y-45809D01*
X134940Y-44940D01*
X135060D01*
X136119Y-45809D01*
X137326Y-46455D01*
X138637Y-46852D01*
X140000Y-46986D01*
X141363Y-46852D01*
X142674Y-46455D01*
X143881Y-45809D01*
X144625Y-45199D01*
X145000Y-44976D01*
X145375Y-45199D01*
X146119Y-45809D01*
X147326Y-46455D01*
X148637Y-46852D01*
X149826Y-46969D01*
X149839Y-46971D01*
X152434Y-49566D01*
X153478Y-50367D01*
X154695Y-50871D01*
X156000Y-51043D01*
X179500D01*
X180805Y-50871D01*
X182022Y-50367D01*
X183066Y-49566D01*
X187030Y-45602D01*
X187191Y-45453D01*
X193953D01*
Y-31547D01*
X193746D01*
X193493Y-31047D01*
X193852Y-29863D01*
X193969Y-28674D01*
X193971Y-28661D01*
X198066Y-24566D01*
X198867Y-23522D01*
X199371Y-22305D01*
X199543Y-21000D01*
Y-8500D01*
X199371Y-7195D01*
X198867Y-5978D01*
X198146Y-5039D01*
X198305Y-4539D01*
X235461D01*
Y-345461D01*
D02*
G37*
G36*
X163924Y-37490D02*
X163737Y-37692D01*
X163570Y-37905D01*
X163423Y-38127D01*
X163295Y-38360D01*
X163188Y-38603D01*
X163101Y-38857D01*
X163034Y-39120D01*
X162987Y-39393D01*
X162960Y-39677D01*
X162953Y-39970D01*
X160029Y-37047D01*
X160323Y-37040D01*
X160607Y-37013D01*
X160880Y-36966D01*
X161144Y-36899D01*
X161397Y-36812D01*
X161640Y-36705D01*
X161872Y-36577D01*
X162095Y-36430D01*
X162308Y-36263D01*
X162510Y-36076D01*
X163924Y-37490D01*
D02*
G37*
G36*
X180087Y-27752D02*
X180014Y-28500D01*
X180148Y-29863D01*
X180507Y-31047D01*
X180254Y-31547D01*
X180047D01*
Y-38321D01*
X177411Y-40957D01*
X167264D01*
X166929Y-40586D01*
X166969Y-40174D01*
X166971Y-40161D01*
X179607Y-27525D01*
X180087Y-27752D01*
D02*
G37*
G36*
X184891Y-20567D02*
X184679Y-20364D01*
X184459Y-20183D01*
X184232Y-20023D01*
X183999Y-19884D01*
X183758Y-19767D01*
X183510Y-19671D01*
X183256Y-19596D01*
X182994Y-19543D01*
X182726Y-19511D01*
X182450Y-19500D01*
Y-17500D01*
X182726Y-17489D01*
X182994Y-17457D01*
X183256Y-17404D01*
X183510Y-17329D01*
X183758Y-17233D01*
X183999Y-17116D01*
X184232Y-16977D01*
X184459Y-16817D01*
X184679Y-16636D01*
X184891Y-16433D01*
Y-20567D01*
D02*
G37*
G36*
X190924Y-25990D02*
X190737Y-26192D01*
X190570Y-26405D01*
X190422Y-26627D01*
X190295Y-26860D01*
X190188Y-27103D01*
X190101Y-27356D01*
X190034Y-27620D01*
X189987Y-27893D01*
X189960Y-28177D01*
X189953Y-28471D01*
X187030Y-25547D01*
X187323Y-25540D01*
X187607Y-25513D01*
X187880Y-25466D01*
X188144Y-25399D01*
X188397Y-25312D01*
X188640Y-25205D01*
X188873Y-25078D01*
X189095Y-24930D01*
X189308Y-24763D01*
X189510Y-24576D01*
X190924Y-25990D01*
D02*
G37*
G36*
X95418Y-116906D02*
X95411Y-116870D01*
X95390Y-116839D01*
X95355Y-116811D01*
X95306Y-116787D01*
X95243Y-116767D01*
X95167Y-116750D01*
X95076Y-116737D01*
X94972Y-116728D01*
X94721Y-116720D01*
Y-115720D01*
X94853Y-115719D01*
X95167Y-115691D01*
X95243Y-115674D01*
X95306Y-115654D01*
X95355Y-115630D01*
X95390Y-115602D01*
X95411Y-115570D01*
X95418Y-115535D01*
Y-116906D01*
D02*
G37*
G36*
X91514Y-112069D02*
X91555Y-112160D01*
X91624Y-112273D01*
X91721Y-112408D01*
X91783Y-112484D01*
X92250Y-112018D01*
X92253Y-112216D01*
X92268Y-112405D01*
X92294Y-112584D01*
X92330Y-112754D01*
X92378Y-112914D01*
X92436Y-113065D01*
X92506Y-113207D01*
X92587Y-113339D01*
X92679Y-113462D01*
X92769Y-113561D01*
X92880Y-113673D01*
X92173Y-114380D01*
X92061Y-114269D01*
X91962Y-114179D01*
X91839Y-114087D01*
X91707Y-114006D01*
X91565Y-113936D01*
X91526Y-113921D01*
X91509Y-114112D01*
X91500Y-114486D01*
X89500D01*
X89498Y-114291D01*
X89464Y-113801D01*
X89444Y-113669D01*
X89419Y-113553D01*
X89390Y-113454D01*
X89356Y-113370D01*
X89318Y-113302D01*
X89275Y-113250D01*
X90917D01*
X90773Y-113124D01*
X90660Y-113055D01*
X90569Y-113014D01*
X90499Y-113000D01*
X91500Y-111999D01*
X91514Y-112069D01*
D02*
G37*
G36*
X113357Y-110902D02*
X113187Y-110963D01*
X113037Y-111064D01*
X112907Y-111205D01*
X112797Y-111386D01*
X112707Y-111607D01*
X112637Y-111869D01*
X112587Y-112170D01*
X112557Y-112512D01*
X112547Y-112893D01*
X110547D01*
X110541Y-112513D01*
X110495Y-111873D01*
X110455Y-111614D01*
X110404Y-111393D01*
X110340Y-111214D01*
X110266Y-111074D01*
X110179Y-110974D01*
X110082Y-110914D01*
X109973Y-110893D01*
X113547Y-110881D01*
X113357Y-110902D01*
D02*
G37*
G36*
X108248Y-117285D02*
X108489Y-117490D01*
X108701Y-117643D01*
X108885Y-117743D01*
X109040Y-117792D01*
X109168Y-117789D01*
X109267Y-117734D01*
X109337Y-117627D01*
X109380Y-117467D01*
X109394Y-117256D01*
Y-122685D01*
Y-122744D01*
X109374Y-122817D01*
X109314Y-122881D01*
X109214Y-122939D01*
X109074Y-122988D01*
X108894Y-123030D01*
X108674Y-123065D01*
X108414Y-123092D01*
X107774Y-123122D01*
X107394Y-123126D01*
Y-121126D01*
X107774Y-121116D01*
X108114Y-121086D01*
X108414Y-121036D01*
X108674Y-120966D01*
X108758Y-120931D01*
X108630Y-120733D01*
X108354Y-120359D01*
X107676Y-119567D01*
X107273Y-119149D01*
X107980Y-117028D01*
X108248Y-117285D01*
D02*
G37*
G36*
X112557Y-115638D02*
X112587Y-115980D01*
X112637Y-116282D01*
X112707Y-116544D01*
X112797Y-116765D01*
X112907Y-116946D01*
X113037Y-117087D01*
X113187Y-117188D01*
X113357Y-117248D01*
X113547Y-117268D01*
X109547D01*
X109737Y-117248D01*
X109907Y-117188D01*
X110057Y-117087D01*
X110187Y-116946D01*
X110297Y-116765D01*
X110387Y-116544D01*
X110457Y-116282D01*
X110507Y-115980D01*
X110537Y-115638D01*
X110547Y-115256D01*
X112547D01*
X112557Y-115638D01*
D02*
G37*
G36*
X117505Y-116448D02*
X117520Y-116620D01*
X117545Y-116772D01*
X117580Y-116904D01*
X117625Y-117015D01*
X117680Y-117106D01*
X117745Y-117177D01*
X117820Y-117228D01*
X117905Y-117258D01*
X118000Y-117268D01*
X116000D01*
X116095Y-117258D01*
X116180Y-117228D01*
X116255Y-117177D01*
X116320Y-117106D01*
X116375Y-117015D01*
X116420Y-116904D01*
X116455Y-116772D01*
X116480Y-116620D01*
X116495Y-116448D01*
X116500Y-116256D01*
X117500D01*
X117505Y-116448D01*
D02*
G37*
G36*
X112629Y-106326D02*
X112663Y-106737D01*
X112917D01*
X112862Y-106819D01*
X112812Y-106914D01*
X112769Y-107023D01*
X112733Y-107138D01*
X112769Y-107253D01*
X112812Y-107361D01*
X112862Y-107456D01*
X112917Y-107538D01*
X112661D01*
X112638Y-107762D01*
X112629Y-107949D01*
X112626Y-108150D01*
X111626D01*
X111623Y-107949D01*
X111589Y-107538D01*
X111335D01*
X111390Y-107456D01*
X111440Y-107361D01*
X111483Y-107253D01*
X111519Y-107138D01*
X111483Y-107023D01*
X111440Y-106914D01*
X111390Y-106819D01*
X111335Y-106737D01*
X111591D01*
X111614Y-106514D01*
X111623Y-106326D01*
X111626Y-106126D01*
X112626D01*
X112629Y-106326D01*
D02*
G37*
G36*
X111690Y-104262D02*
X111974Y-104504D01*
X112258Y-104717D01*
X112541Y-104902D01*
X112824Y-105059D01*
X113107Y-105188D01*
X113389Y-105288D01*
X113671Y-105359D01*
X113953Y-105403D01*
X114234Y-105418D01*
X109973Y-105406D01*
X109959Y-105388D01*
X109917Y-105343D01*
X108577Y-103991D01*
X111406D01*
X111690Y-104262D01*
D02*
G37*
G36*
X103087Y-101892D02*
X102964Y-102036D01*
X102855Y-102181D01*
X102761Y-102327D01*
X102681Y-102474D01*
X102616Y-102623D01*
X102565Y-102772D01*
X102529Y-102923D01*
X102507Y-103074D01*
X102500Y-103227D01*
X101500D01*
X101493Y-103074D01*
X101471Y-102923D01*
X101435Y-102772D01*
X101384Y-102623D01*
X101319Y-102474D01*
X101239Y-102327D01*
X101145Y-102181D01*
X101036Y-102036D01*
X100913Y-101892D01*
X100775Y-101750D01*
X103225D01*
X103087Y-101892D01*
D02*
G37*
G36*
X108256Y-100584D02*
X108277Y-100660D01*
X108313Y-100743D01*
X108363Y-100834D01*
X108427Y-100933D01*
X108506Y-101041D01*
X108707Y-101280D01*
X108965Y-101551D01*
X107551Y-102965D01*
X107411Y-102829D01*
X107041Y-102506D01*
X106933Y-102427D01*
X106834Y-102363D01*
X106743Y-102313D01*
X106660Y-102278D01*
X106585Y-102257D01*
X106518Y-102250D01*
X108250Y-100517D01*
X108256Y-100584D01*
D02*
G37*
G36*
X103708Y-104923D02*
X104111Y-105270D01*
X104283Y-105392D01*
X104434Y-105480D01*
X104566Y-105533D01*
X104677Y-105553D01*
X104768Y-105538D01*
X104840Y-105489D01*
X104891Y-105406D01*
X104067Y-107411D01*
X104097Y-107306D01*
X104105Y-107194D01*
X104090Y-107073D01*
X104053Y-106944D01*
X103993Y-106806D01*
X103911Y-106661D01*
X103807Y-106507D01*
X103681Y-106345D01*
X103531Y-106175D01*
X103360Y-105996D01*
X103477Y-104699D01*
X103708Y-104923D01*
D02*
G37*
%LPC*%
G36*
X172356Y-315611D02*
Y-322001D01*
X178746D01*
X178662Y-321147D01*
X178267Y-319845D01*
X177625Y-318646D01*
X176762Y-317594D01*
X175711Y-316731D01*
X174511Y-316090D01*
X173210Y-315695D01*
X172356Y-315611D01*
D02*
G37*
G36*
X35053Y-249747D02*
X21147D01*
Y-263653D01*
X21354D01*
X21607Y-264153D01*
X21248Y-265337D01*
X21114Y-266700D01*
X21248Y-268063D01*
X21645Y-269374D01*
X22291Y-270581D01*
X22901Y-271325D01*
X23124Y-271700D01*
X22901Y-272075D01*
X22291Y-272819D01*
X21645Y-274026D01*
X21248Y-275337D01*
X21114Y-276700D01*
X21248Y-278063D01*
X21645Y-279374D01*
X22291Y-280581D01*
X22901Y-281325D01*
X23124Y-281700D01*
X22901Y-282075D01*
X22291Y-282819D01*
X21645Y-284026D01*
X21248Y-285337D01*
X21114Y-286700D01*
X21248Y-288063D01*
X21645Y-289374D01*
X22291Y-290581D01*
X22901Y-291325D01*
X23124Y-291700D01*
X22901Y-292075D01*
X22291Y-292819D01*
X21645Y-294026D01*
X21248Y-295337D01*
X21114Y-296700D01*
X21248Y-298063D01*
X21645Y-299374D01*
X22291Y-300581D01*
X22901Y-301325D01*
X23124Y-301700D01*
X22901Y-302075D01*
X22291Y-302819D01*
X21645Y-304026D01*
X21248Y-305337D01*
X21114Y-306700D01*
X21248Y-308063D01*
X21645Y-309374D01*
X22291Y-310581D01*
X23160Y-311640D01*
X24219Y-312509D01*
X25426Y-313155D01*
X26737Y-313552D01*
X28100Y-313686D01*
X29463Y-313552D01*
X30774Y-313155D01*
X31981Y-312509D01*
X33040Y-311640D01*
X33909Y-310581D01*
X34555Y-309374D01*
X34952Y-308063D01*
X35086Y-306700D01*
X34952Y-305337D01*
X34555Y-304026D01*
X33909Y-302819D01*
X33299Y-302075D01*
X33076Y-301700D01*
X33299Y-301325D01*
X33909Y-300581D01*
X34555Y-299374D01*
X34952Y-298063D01*
X35086Y-296700D01*
X34952Y-295337D01*
X34555Y-294026D01*
X33909Y-292819D01*
X33299Y-292075D01*
X33076Y-291700D01*
X33299Y-291325D01*
X33909Y-290581D01*
X34555Y-289374D01*
X34952Y-288063D01*
X35086Y-286700D01*
X34952Y-285337D01*
X34555Y-284026D01*
X33909Y-282819D01*
X33299Y-282075D01*
X33076Y-281700D01*
X33299Y-281325D01*
X33909Y-280581D01*
X34555Y-279374D01*
X34952Y-278063D01*
X35086Y-276700D01*
X34952Y-275337D01*
X34555Y-274026D01*
X33909Y-272819D01*
X33299Y-272075D01*
X33076Y-271700D01*
X33299Y-271325D01*
X33909Y-270581D01*
X34555Y-269374D01*
X34952Y-268063D01*
X35086Y-266700D01*
X34952Y-265337D01*
X34593Y-264153D01*
X34846Y-263653D01*
X35053D01*
Y-249747D01*
D02*
G37*
G36*
X171356Y-323001D02*
X164966D01*
X165050Y-323854D01*
X165445Y-325156D01*
X166086Y-326356D01*
X166949Y-327407D01*
X168001Y-328270D01*
X169201Y-328911D01*
X170502Y-329306D01*
X171356Y-329391D01*
Y-323001D01*
D02*
G37*
G36*
X44700Y-327114D02*
X43337Y-327248D01*
X42026Y-327645D01*
X40819Y-328291D01*
X40075Y-328901D01*
X39700Y-329124D01*
X39325Y-328901D01*
X38581Y-328291D01*
X37374Y-327645D01*
X36063Y-327248D01*
X34700Y-327114D01*
X33337Y-327248D01*
X32026Y-327645D01*
X30819Y-328291D01*
X29760Y-329160D01*
X28891Y-330219D01*
X28245Y-331426D01*
X27848Y-332737D01*
X27714Y-334100D01*
X27848Y-335463D01*
X28245Y-336774D01*
X28891Y-337981D01*
X29760Y-339040D01*
X30819Y-339909D01*
X32026Y-340555D01*
X33337Y-340952D01*
X34700Y-341086D01*
X36063Y-340952D01*
X37374Y-340555D01*
X38581Y-339909D01*
X39325Y-339299D01*
X39700Y-339076D01*
X40075Y-339299D01*
X40819Y-339909D01*
X42026Y-340555D01*
X43337Y-340952D01*
X44700Y-341086D01*
X46063Y-340952D01*
X47247Y-340593D01*
X47747Y-340845D01*
Y-341053D01*
X61653D01*
Y-327147D01*
X47747D01*
Y-327355D01*
X47247Y-327607D01*
X46063Y-327248D01*
X44700Y-327114D01*
D02*
G37*
G36*
X171356Y-315611D02*
X170502Y-315695D01*
X169201Y-316090D01*
X168001Y-316731D01*
X166949Y-317594D01*
X166086Y-318646D01*
X165445Y-319845D01*
X165050Y-321147D01*
X164966Y-322001D01*
X171356D01*
Y-315611D01*
D02*
G37*
G36*
X178746Y-323001D02*
X172356D01*
Y-329391D01*
X173210Y-329306D01*
X174511Y-328911D01*
X175711Y-328270D01*
X176762Y-327407D01*
X177625Y-326356D01*
X178267Y-325156D01*
X178662Y-323854D01*
X178746Y-323001D01*
D02*
G37*
G36*
X100882Y-122053D02*
X100754Y-122170D01*
X100677Y-122334D01*
X100662Y-122531D01*
X100709Y-122763D01*
X100820Y-123028D01*
X100882Y-123136D01*
Y-122053D01*
D02*
G37*
G36*
X220000Y-23014D02*
X218637Y-23148D01*
X217326Y-23545D01*
X216119Y-24191D01*
X215060Y-25060D01*
X214191Y-26119D01*
X213545Y-27326D01*
X213148Y-28637D01*
X213014Y-30000D01*
X213148Y-31363D01*
X213545Y-32674D01*
X214191Y-33881D01*
X214801Y-34625D01*
X215024Y-35000D01*
X214801Y-35375D01*
X214191Y-36119D01*
X213545Y-37326D01*
X213148Y-38637D01*
X213014Y-40000D01*
X213148Y-41363D01*
X213545Y-42674D01*
X214191Y-43881D01*
X214801Y-44625D01*
X215024Y-45000D01*
X214801Y-45375D01*
X214191Y-46119D01*
X213545Y-47326D01*
X213148Y-48637D01*
X213014Y-50000D01*
X213148Y-51363D01*
X213545Y-52674D01*
X214191Y-53881D01*
X214801Y-54625D01*
X215024Y-55000D01*
X214801Y-55375D01*
X214191Y-56119D01*
X213545Y-57326D01*
X213148Y-58637D01*
X213014Y-60000D01*
X213148Y-61363D01*
X213545Y-62674D01*
X214191Y-63881D01*
X214801Y-64625D01*
X215024Y-65000D01*
X214801Y-65375D01*
X214191Y-66119D01*
X213545Y-67326D01*
X213148Y-68637D01*
X213014Y-70000D01*
X213148Y-71363D01*
X213545Y-72674D01*
X214191Y-73881D01*
X214801Y-74625D01*
X215024Y-75000D01*
X214801Y-75375D01*
X214191Y-76119D01*
X213545Y-77326D01*
X213148Y-78637D01*
X213014Y-80000D01*
X213148Y-81363D01*
X213545Y-82674D01*
X214191Y-83881D01*
X214801Y-84625D01*
X215024Y-85000D01*
X214801Y-85375D01*
X214191Y-86119D01*
X213545Y-87326D01*
X213148Y-88637D01*
X213014Y-90000D01*
X213148Y-91363D01*
X213507Y-92547D01*
X213254Y-93047D01*
X213047D01*
Y-106953D01*
X226953D01*
Y-93047D01*
X226746D01*
X226493Y-92547D01*
X226852Y-91363D01*
X226986Y-90000D01*
X226852Y-88637D01*
X226455Y-87326D01*
X225809Y-86119D01*
X225199Y-85375D01*
X224976Y-85000D01*
X225199Y-84625D01*
X225809Y-83881D01*
X226455Y-82674D01*
X226852Y-81363D01*
X226986Y-80000D01*
X226852Y-78637D01*
X226455Y-77326D01*
X225809Y-76119D01*
X225199Y-75375D01*
X224976Y-75000D01*
X225199Y-74625D01*
X225809Y-73881D01*
X226455Y-72674D01*
X226852Y-71363D01*
X226986Y-70000D01*
X226852Y-68637D01*
X226455Y-67326D01*
X225809Y-66119D01*
X225199Y-65375D01*
X224976Y-65000D01*
X225199Y-64625D01*
X225809Y-63881D01*
X226455Y-62674D01*
X226852Y-61363D01*
X226986Y-60000D01*
X226852Y-58637D01*
X226455Y-57326D01*
X225809Y-56119D01*
X225199Y-55375D01*
X224976Y-55000D01*
X225199Y-54625D01*
X225809Y-53881D01*
X226455Y-52674D01*
X226852Y-51363D01*
X226986Y-50000D01*
X226852Y-48637D01*
X226455Y-47326D01*
X225809Y-46119D01*
X225199Y-45375D01*
X224976Y-45000D01*
X225199Y-44625D01*
X225809Y-43881D01*
X226455Y-42674D01*
X226852Y-41363D01*
X226986Y-40000D01*
X226852Y-38637D01*
X226455Y-37326D01*
X225809Y-36119D01*
X225199Y-35375D01*
X224976Y-35000D01*
X225199Y-34625D01*
X225809Y-33881D01*
X226455Y-32674D01*
X226852Y-31363D01*
X226986Y-30000D01*
X226852Y-28637D01*
X226455Y-27326D01*
X225809Y-26119D01*
X224940Y-25060D01*
X223881Y-24191D01*
X222674Y-23545D01*
X221363Y-23148D01*
X220000Y-23014D01*
D02*
G37*
G36*
X34000Y-29466D02*
X32628Y-29601D01*
X31308Y-30002D01*
X30092Y-30652D01*
X29026Y-31526D01*
X28152Y-32592D01*
X27501Y-33808D01*
X27101Y-35128D01*
X26966Y-36500D01*
Y-40500D01*
X27101Y-41872D01*
X27501Y-43192D01*
X28152Y-44408D01*
X29026Y-45474D01*
X30092Y-46349D01*
X31308Y-46999D01*
X32628Y-47399D01*
X34000Y-47534D01*
X35372Y-47399D01*
X36692Y-46999D01*
X37908Y-46349D01*
X38974Y-45474D01*
X39849Y-44408D01*
X40499Y-43192D01*
X40899Y-41872D01*
X41034Y-40500D01*
Y-36500D01*
X40899Y-35128D01*
X40499Y-33808D01*
X39849Y-32592D01*
X38974Y-31526D01*
X37908Y-30652D01*
X36692Y-30002D01*
X35372Y-29601D01*
X34000Y-29466D01*
D02*
G37*
G36*
X172356Y-268210D02*
Y-274599D01*
X178746D01*
X178662Y-273745D01*
X178267Y-272444D01*
X177625Y-271244D01*
X176762Y-270193D01*
X175711Y-269330D01*
X174511Y-268689D01*
X173210Y-268294D01*
X172356Y-268210D01*
D02*
G37*
G36*
X56500Y-8500D02*
X53047D01*
Y-11953D01*
X56500D01*
Y-8500D01*
D02*
G37*
G36*
X220000Y-123014D02*
X218637Y-123148D01*
X217326Y-123545D01*
X216119Y-124191D01*
X215060Y-125060D01*
X214191Y-126119D01*
X213545Y-127326D01*
X213148Y-128637D01*
X213014Y-130000D01*
X213148Y-131363D01*
X213545Y-132674D01*
X214191Y-133881D01*
X214801Y-134625D01*
X215024Y-135000D01*
X214801Y-135375D01*
X214191Y-136119D01*
X213545Y-137326D01*
X213148Y-138637D01*
X213014Y-140000D01*
X213148Y-141363D01*
X213545Y-142674D01*
X214191Y-143881D01*
X214801Y-144625D01*
X215024Y-145000D01*
X214801Y-145375D01*
X214191Y-146119D01*
X213545Y-147326D01*
X213148Y-148637D01*
X213014Y-150000D01*
X213148Y-151363D01*
X213545Y-152674D01*
X214191Y-153881D01*
X214801Y-154625D01*
X215024Y-155000D01*
X214801Y-155375D01*
X214191Y-156119D01*
X213545Y-157326D01*
X213148Y-158637D01*
X213014Y-160000D01*
X213148Y-161363D01*
X213545Y-162674D01*
X214191Y-163881D01*
X214801Y-164625D01*
X215024Y-165000D01*
X214801Y-165375D01*
X214191Y-166119D01*
X213545Y-167326D01*
X213148Y-168637D01*
X213014Y-170000D01*
X213148Y-171363D01*
X213545Y-172674D01*
X214191Y-173881D01*
X214801Y-174625D01*
X215024Y-175000D01*
X214801Y-175375D01*
X214191Y-176119D01*
X213545Y-177326D01*
X213148Y-178637D01*
X213014Y-180000D01*
X213148Y-181363D01*
X213545Y-182674D01*
X214191Y-183881D01*
X214801Y-184625D01*
X215024Y-185000D01*
X214801Y-185375D01*
X214191Y-186119D01*
X213545Y-187326D01*
X213148Y-188637D01*
X213014Y-190000D01*
X213148Y-191363D01*
X213507Y-192547D01*
X213254Y-193047D01*
X213047D01*
Y-206953D01*
X226953D01*
Y-193047D01*
X226746D01*
X226493Y-192547D01*
X226852Y-191363D01*
X226986Y-190000D01*
X226852Y-188637D01*
X226455Y-187326D01*
X225809Y-186119D01*
X225199Y-185375D01*
X224976Y-185000D01*
X225199Y-184625D01*
X225809Y-183881D01*
X226455Y-182674D01*
X226852Y-181363D01*
X226986Y-180000D01*
X226852Y-178637D01*
X226455Y-177326D01*
X225809Y-176119D01*
X225199Y-175375D01*
X224976Y-175000D01*
X225199Y-174625D01*
X225809Y-173881D01*
X226455Y-172674D01*
X226852Y-171363D01*
X226986Y-170000D01*
X226852Y-168637D01*
X226455Y-167326D01*
X225809Y-166119D01*
X225199Y-165375D01*
X224976Y-165000D01*
X225199Y-164625D01*
X225809Y-163881D01*
X226455Y-162674D01*
X226852Y-161363D01*
X226986Y-160000D01*
X226852Y-158637D01*
X226455Y-157326D01*
X225809Y-156119D01*
X225199Y-155375D01*
X224976Y-155000D01*
X225199Y-154625D01*
X225809Y-153881D01*
X226455Y-152674D01*
X226852Y-151363D01*
X226986Y-150000D01*
X226852Y-148637D01*
X226455Y-147326D01*
X225809Y-146119D01*
X225199Y-145375D01*
X224976Y-145000D01*
X225199Y-144625D01*
X225809Y-143881D01*
X226455Y-142674D01*
X226852Y-141363D01*
X226986Y-140000D01*
X226852Y-138637D01*
X226455Y-137326D01*
X225809Y-136119D01*
X225199Y-135375D01*
X224976Y-135000D01*
X225199Y-134625D01*
X225809Y-133881D01*
X226455Y-132674D01*
X226852Y-131363D01*
X226986Y-130000D01*
X226852Y-128637D01*
X226455Y-127326D01*
X225809Y-126119D01*
X224940Y-125060D01*
X223881Y-124191D01*
X222674Y-123545D01*
X221363Y-123148D01*
X220000Y-123014D01*
D02*
G37*
G36*
X26953Y-153047D02*
X13047D01*
Y-166953D01*
X13254D01*
X13507Y-167453D01*
X13148Y-168637D01*
X13014Y-170000D01*
X13148Y-171363D01*
X13545Y-172674D01*
X14191Y-173881D01*
X14801Y-174625D01*
X15024Y-175000D01*
X14801Y-175375D01*
X14191Y-176119D01*
X13545Y-177326D01*
X13148Y-178637D01*
X13014Y-180000D01*
X13148Y-181363D01*
X13545Y-182674D01*
X14191Y-183881D01*
X14801Y-184625D01*
X15024Y-185000D01*
X14801Y-185375D01*
X14191Y-186119D01*
X13545Y-187326D01*
X13148Y-188637D01*
X13014Y-190000D01*
X13148Y-191363D01*
X13545Y-192674D01*
X14191Y-193881D01*
X14801Y-194625D01*
X15024Y-195000D01*
X14801Y-195375D01*
X14191Y-196119D01*
X13545Y-197326D01*
X13148Y-198637D01*
X13014Y-200000D01*
X13148Y-201363D01*
X13545Y-202674D01*
X14191Y-203881D01*
X14801Y-204625D01*
X15024Y-205000D01*
X14801Y-205375D01*
X14191Y-206119D01*
X13545Y-207326D01*
X13148Y-208637D01*
X13014Y-210000D01*
X13148Y-211363D01*
X13545Y-212674D01*
X14191Y-213881D01*
X14801Y-214625D01*
X15024Y-215000D01*
X14801Y-215375D01*
X14191Y-216119D01*
X13545Y-217326D01*
X13148Y-218637D01*
X13014Y-220000D01*
X13148Y-221363D01*
X13545Y-222674D01*
X14191Y-223881D01*
X14801Y-224625D01*
X15024Y-225000D01*
X14801Y-225375D01*
X14191Y-226119D01*
X13545Y-227326D01*
X13148Y-228637D01*
X13014Y-230000D01*
X13148Y-231363D01*
X13545Y-232674D01*
X14191Y-233881D01*
X15060Y-234940D01*
X16119Y-235809D01*
X17326Y-236455D01*
X18637Y-236852D01*
X20000Y-236986D01*
X21363Y-236852D01*
X22674Y-236455D01*
X23881Y-235809D01*
X24940Y-234940D01*
X25809Y-233881D01*
X26455Y-232674D01*
X26852Y-231363D01*
X26986Y-230000D01*
X26852Y-228637D01*
X26455Y-227326D01*
X25809Y-226119D01*
X25199Y-225375D01*
X24976Y-225000D01*
X25199Y-224625D01*
X25809Y-223881D01*
X26455Y-222674D01*
X26852Y-221363D01*
X26986Y-220000D01*
X26852Y-218637D01*
X26455Y-217326D01*
X25809Y-216119D01*
X25199Y-215375D01*
X24976Y-215000D01*
X25199Y-214625D01*
X25809Y-213881D01*
X26455Y-212674D01*
X26852Y-211363D01*
X26986Y-210000D01*
X26852Y-208637D01*
X26455Y-207326D01*
X25809Y-206119D01*
X25199Y-205375D01*
X24976Y-205000D01*
X25199Y-204625D01*
X25809Y-203881D01*
X26455Y-202674D01*
X26852Y-201363D01*
X26986Y-200000D01*
X26852Y-198637D01*
X26455Y-197326D01*
X25809Y-196119D01*
X25199Y-195375D01*
X24976Y-195000D01*
X25199Y-194625D01*
X25809Y-193881D01*
X26455Y-192674D01*
X26852Y-191363D01*
X26986Y-190000D01*
X26852Y-188637D01*
X26455Y-187326D01*
X25809Y-186119D01*
X25199Y-185375D01*
X24976Y-185000D01*
X25199Y-184625D01*
X25809Y-183881D01*
X26455Y-182674D01*
X26852Y-181363D01*
X26986Y-180000D01*
X26852Y-178637D01*
X26455Y-177326D01*
X25809Y-176119D01*
X25199Y-175375D01*
X24976Y-175000D01*
X25199Y-174625D01*
X25809Y-173881D01*
X26455Y-172674D01*
X26852Y-171363D01*
X26986Y-170000D01*
X26852Y-168637D01*
X26493Y-167453D01*
X26746Y-166953D01*
X26953D01*
Y-153047D01*
D02*
G37*
%LPD*%
D10*
X104547Y-92500D02*
D03*
X110453D02*
D03*
X158953Y-269500D02*
D03*
X153047D02*
D03*
X153047Y-283500D02*
D03*
X158953D02*
D03*
X86453Y-303700D02*
D03*
X80547D02*
D03*
X84053Y-288300D02*
D03*
X78147D02*
D03*
X80547Y-296100D02*
D03*
X86453D02*
D03*
X106220Y-108150D02*
D03*
X112126D02*
D03*
X111547Y-120000D02*
D03*
X117453D02*
D03*
D14*
X58720Y-290920D02*
X75368D01*
X80547Y-303700D02*
Y-296100D01*
X80547Y-303700D02*
X80547Y-303700D01*
X75527Y-290920D02*
X78147Y-288300D01*
X75368Y-290920D02*
X80547Y-296100D01*
X86468Y-303716D02*
X103616D01*
X86453Y-303700D02*
X86468Y-303716D01*
X102100Y-296100D02*
X106300Y-300300D01*
X86453Y-296100D02*
X102100D01*
X86453D02*
Y-290700D01*
X84053Y-288300D02*
X86453Y-290700D01*
X58643Y-283243D02*
X97457D01*
X177000Y-245000D02*
X190000Y-232000D01*
Y-230000D01*
D15*
X112126Y-108150D02*
Y-106126D01*
X90500Y-112000D02*
X94721Y-116220D01*
X98150D01*
X102000Y-103929D02*
Y-100500D01*
Y-103929D02*
X106220Y-108150D01*
X102000Y-95047D02*
X104547Y-92500D01*
X102000Y-100500D02*
Y-95047D01*
X110453Y-92047D02*
X117000Y-85500D01*
X110453Y-92500D02*
Y-92047D01*
X117000Y-119547D02*
Y-85500D01*
Y-119547D02*
X117453Y-120000D01*
X148501Y-338002D02*
X149501Y-337002D01*
X151500D01*
X152500Y-338002D01*
Y-342000D01*
X151500Y-343000D01*
X149501D01*
X148501Y-342000D01*
X146502Y-339001D02*
Y-343000D01*
Y-341001D01*
X145502Y-340001D01*
X144503Y-339001D01*
X143503D01*
X139504Y-343000D02*
X137505D01*
X136505Y-342000D01*
Y-340001D01*
X137505Y-339001D01*
X139504D01*
X140504Y-340001D01*
Y-342000D01*
X139504Y-343000D01*
X134506Y-339001D02*
Y-342000D01*
X133506Y-343000D01*
X132507Y-342000D01*
X131507Y-343000D01*
X130507Y-342000D01*
Y-339001D01*
X125509Y-343000D02*
X127508D01*
X128508Y-342000D01*
Y-340001D01*
X127508Y-339001D01*
X125509D01*
X124509Y-340001D01*
Y-341001D01*
X128508D01*
X121510Y-344000D02*
X120510Y-343000D01*
Y-342000D01*
X121510D01*
Y-343000D01*
X120510D01*
X121510Y-344000D01*
X122510Y-344999D01*
X110514Y-337002D02*
Y-343000D01*
X106515D01*
X104516D02*
X102516D01*
X103516D01*
Y-337002D01*
X104516D01*
X98518Y-343000D02*
X96518D01*
X95518Y-342000D01*
Y-340001D01*
X96518Y-339001D01*
X98518D01*
X99517Y-340001D01*
Y-342000D01*
X98518Y-343000D01*
X93519Y-339001D02*
Y-342000D01*
X92519Y-343000D01*
X89520D01*
Y-344000D01*
X90520Y-344999D01*
X91520D01*
X89520Y-343000D02*
Y-339001D01*
X83522Y-337002D02*
Y-343000D01*
X86521D01*
X87521Y-342000D01*
Y-340001D01*
X86521Y-339001D01*
X83522D01*
D16*
X106500Y-100500D02*
X112126Y-106126D01*
X67000Y-54953D02*
Y-8000D01*
Y-54953D02*
X104547Y-92500D01*
X67000Y-8000D02*
X72500Y-2500D01*
X188500D01*
X187000Y-28500D02*
X194500Y-21000D01*
Y-8500D01*
X188500Y-2500D02*
X194500Y-8500D01*
X150000Y-40000D02*
X156000Y-46000D01*
X179500D01*
X187000Y-38500D01*
X181500Y-18500D02*
X187000D01*
X160000Y-40000D02*
X181500Y-18500D01*
X14000Y-38500D02*
X80000Y-104500D01*
X109421Y-122126D02*
X111547Y-120000D01*
X98150Y-122126D02*
X109421D01*
X111547Y-120000D02*
Y-108728D01*
X112126Y-108150D01*
X158953Y-291645D02*
X161187Y-293879D01*
X158953Y-291645D02*
Y-283500D01*
Y-269500D01*
X158953Y-269500D02*
X158953Y-269500D01*
X153047Y-283500D02*
Y-269500D01*
Y-283500D02*
X153047Y-283500D01*
Y-292176D02*
Y-283500D01*
X151344Y-293879D02*
X153047Y-292176D01*
X163455Y-283500D02*
X171856Y-275099D01*
X158953Y-283500D02*
X163455D01*
X86500Y-316000D02*
X124500D01*
X80547Y-310047D02*
X86500Y-316000D01*
X80547Y-310047D02*
Y-303700D01*
X77000Y-47000D02*
Y-8000D01*
Y-47000D02*
X98000Y-68000D01*
X120500D01*
X151000Y-98500D01*
Y-171500D02*
Y-98500D01*
X141000Y-181500D02*
X151000Y-171500D01*
X141000Y-257453D02*
Y-181500D01*
Y-257453D02*
X153047Y-269500D01*
X80000Y-104500D02*
X94037D01*
X109537Y-120000D01*
X111547D01*
X111400Y-302000D02*
Y-297187D01*
X97457Y-283243D02*
X111400Y-297187D01*
X97457Y-283243D02*
Y-272043D01*
X131500Y-238000D01*
Y-206000D01*
X90500Y-165000D02*
X131500Y-206000D01*
X90500Y-165000D02*
Y-112000D01*
X98150Y-122126D02*
X136500Y-160476D01*
Y-304000D02*
Y-160476D01*
X124500Y-316000D02*
X136500Y-304000D01*
X156537Y-298529D02*
X161187Y-293879D01*
X149418Y-298529D02*
X156537D01*
X149389Y-298500D02*
X149418Y-298529D01*
X136500Y-304000D02*
X142000Y-298500D01*
X149389D01*
D20*
X28100Y-306700D02*
D03*
Y-296700D02*
D03*
Y-286700D02*
D03*
Y-276700D02*
D03*
Y-266700D02*
D03*
X34700Y-334100D02*
D03*
X44700D02*
D03*
X77000Y-8000D02*
D03*
X67000D02*
D03*
X100000Y-40000D02*
D03*
Y-30000D02*
D03*
X110000Y-40000D02*
D03*
Y-30000D02*
D03*
X120000Y-40000D02*
D03*
Y-30000D02*
D03*
X130000Y-40000D02*
D03*
Y-30000D02*
D03*
X140000Y-40000D02*
D03*
Y-30000D02*
D03*
X150000Y-40000D02*
D03*
Y-30000D02*
D03*
X160000Y-40000D02*
D03*
X187000Y-18500D02*
D03*
Y-28500D02*
D03*
X20000Y-230000D02*
D03*
Y-220000D02*
D03*
Y-210000D02*
D03*
Y-200000D02*
D03*
Y-190000D02*
D03*
Y-180000D02*
D03*
Y-170000D02*
D03*
X120000Y-230000D02*
D03*
X110000D02*
D03*
X100000D02*
D03*
X90000D02*
D03*
X80000D02*
D03*
X70000D02*
D03*
X60000D02*
D03*
X220000D02*
D03*
X210000D02*
D03*
X200000D02*
D03*
X190000D02*
D03*
X180000D02*
D03*
X170000D02*
D03*
X160000D02*
D03*
X220000Y-130000D02*
D03*
Y-140000D02*
D03*
Y-150000D02*
D03*
Y-160000D02*
D03*
Y-170000D02*
D03*
Y-180000D02*
D03*
Y-190000D02*
D03*
Y-30000D02*
D03*
Y-40000D02*
D03*
Y-50000D02*
D03*
Y-60000D02*
D03*
Y-70000D02*
D03*
Y-80000D02*
D03*
Y-90000D02*
D03*
X20000Y-130000D02*
D03*
Y-120000D02*
D03*
Y-110000D02*
D03*
Y-100000D02*
D03*
Y-90000D02*
D03*
Y-80000D02*
D03*
Y-70000D02*
D03*
D21*
X28100Y-256700D02*
D03*
X187000Y-38500D02*
D03*
X20000Y-160000D02*
D03*
X220000Y-200000D02*
D03*
Y-100000D02*
D03*
X20000Y-60000D02*
D03*
D22*
X161187Y-293879D02*
D03*
Y-303721D02*
D03*
X151344Y-293879D02*
D03*
Y-303721D02*
D03*
D23*
X171856Y-322501D02*
D03*
Y-275099D02*
D03*
D24*
X54700Y-334100D02*
D03*
X57000Y-8000D02*
D03*
X160000Y-30000D02*
D03*
X50000Y-230000D02*
D03*
X150000D02*
D03*
D25*
X14000Y-38500D02*
D03*
D26*
Y-8500D02*
D03*
X34000D02*
D03*
Y-38500D02*
D03*
D27*
X58720Y-290920D02*
D03*
X58643Y-283243D02*
D03*
X106500Y-100500D02*
D03*
X90500Y-112000D02*
D03*
X102000Y-100500D02*
D03*
X117000Y-85500D02*
D03*
X177000Y-245000D02*
D03*
D28*
X106300Y-300300D02*
D03*
D29*
X103616Y-303716D02*
D03*
D30*
X98150Y-122126D02*
D03*
Y-116220D02*
D03*
D31*
X103616Y-303716D02*
X109684D01*
D32*
X111400Y-302000D01*
M02*
