%FSLAX25Y25*%
%MOIN*%
G70*
G01*
G75*
G04 Layer_Physical_Order=2*
G04 Layer_Color=16711680*
%ADD10C,0.02000*%
%ADD11C,0.04000*%
%ADD12R,0.13386X0.09055*%
%ADD13R,0.09055X0.09449*%
%ADD14R,0.05709X0.04528*%
%ADD15R,0.05512X0.04134*%
%ADD16R,0.03740X0.05315*%
%ADD17O,0.02362X0.07480*%
%ADD18R,0.06102X0.05315*%
%ADD19R,0.04134X0.05512*%
%ADD20R,0.05315X0.06102*%
%ADD21R,0.04528X0.05709*%
%ADD22R,0.05118X0.03347*%
%ADD23R,0.04331X0.10236*%
%ADD24R,0.06299X0.02165*%
%ADD25R,0.03347X0.05118*%
%ADD26R,0.05315X0.03740*%
%ADD27R,0.05906X0.04921*%
%ADD28R,0.04921X0.05906*%
%ADD29O,0.09843X0.02756*%
%ADD30C,0.00700*%
%ADD31R,0.05906X0.05906*%
%ADD32C,0.05906*%
%ADD33R,0.05906X0.05906*%
%ADD34C,0.03000*%
G36*
X168474Y3026D02*
X64200D01*
Y12698D01*
X3026D01*
Y33000D01*
X3026Y33000D01*
X3026Y33000D01*
Y33000D01*
Y103000D01*
X26000D01*
Y123474D01*
X168474D01*
Y3026D01*
D02*
G37*
%LPC*%
G36*
X166453Y40953D02*
X156547D01*
Y31047D01*
X159461D01*
X159559Y30557D01*
X159002Y30326D01*
X157968Y29532D01*
X157174Y28498D01*
X156675Y27293D01*
X156504Y26000D01*
X156675Y24707D01*
X157174Y23502D01*
X157968Y22468D01*
X159002Y21674D01*
X160207Y21175D01*
X161500Y21004D01*
X162793Y21175D01*
X163998Y21674D01*
X165032Y22468D01*
X165826Y23502D01*
X166325Y24707D01*
X166496Y26000D01*
X166325Y27293D01*
X165826Y28498D01*
X165032Y29532D01*
X163998Y30326D01*
X163441Y30557D01*
X163539Y31047D01*
X166453D01*
Y40953D01*
D02*
G37*
G36*
X137500Y85530D02*
X136586Y85410D01*
X135735Y85057D01*
X135004Y84496D01*
X134443Y83765D01*
X134090Y82914D01*
X134070Y82761D01*
X133879Y82513D01*
X133791Y82299D01*
X133577Y81783D01*
X133474Y81000D01*
Y68753D01*
X133247Y68526D01*
X130306D01*
X130265Y68557D01*
X129414Y68910D01*
X128500Y69030D01*
X127586Y68910D01*
X126735Y68557D01*
X126004Y67996D01*
X125443Y67265D01*
X125090Y66414D01*
X124970Y65500D01*
X125090Y64586D01*
X125443Y63735D01*
X126004Y63004D01*
X126735Y62443D01*
X127586Y62090D01*
X128500Y61970D01*
X129414Y62090D01*
X130265Y62443D01*
X130306Y62474D01*
X134500D01*
X135283Y62577D01*
X135799Y62791D01*
X136013Y62880D01*
X136640Y63360D01*
X138640Y65360D01*
X139120Y65987D01*
X139423Y66717D01*
X139435Y66808D01*
X139526Y67500D01*
X139526Y67500D01*
Y79143D01*
X139996Y79504D01*
X140557Y80235D01*
X140910Y81086D01*
X141030Y82000D01*
X140910Y82914D01*
X140557Y83765D01*
X139996Y84496D01*
X139265Y85057D01*
X138414Y85410D01*
X137500Y85530D01*
D02*
G37*
%LPD*%
D10*
X136500Y81000D02*
X137500Y82000D01*
X134500Y65500D02*
X136500Y67500D01*
Y81000D01*
X128500Y65500D02*
X134500D01*
D30*
X61500Y9998D02*
Y5000D01*
X58168D01*
X56502D02*
X54835D01*
X55669D01*
Y9998D01*
X56502D01*
X51503Y5000D02*
X49837D01*
X49004Y5833D01*
Y7499D01*
X49837Y8332D01*
X51503D01*
X52336Y7499D01*
Y5833D01*
X51503Y5000D01*
X47338Y8332D02*
Y5833D01*
X46505Y5000D01*
X44006D01*
Y4167D01*
X44839Y3334D01*
X45672D01*
X44006Y5000D02*
Y8332D01*
X39007Y9998D02*
Y5000D01*
X41506D01*
X42340Y5833D01*
Y7499D01*
X41506Y8332D01*
X39007D01*
X36508Y4167D02*
X35675Y5000D01*
Y5833D01*
X36508D01*
Y5000D01*
X35675D01*
X36508Y4167D01*
X37341Y3334D01*
X24012Y9165D02*
X24845Y9998D01*
X26511D01*
X27344Y9165D01*
Y5833D01*
X26511Y5000D01*
X24845D01*
X24012Y5833D01*
X22346Y8332D02*
Y5000D01*
Y6666D01*
X21513Y7499D01*
X20680Y8332D01*
X19847D01*
X16515Y5000D02*
X14848D01*
X14015Y5833D01*
Y7499D01*
X14848Y8332D01*
X16515D01*
X17348Y7499D01*
Y5833D01*
X16515Y5000D01*
X12349Y8332D02*
Y5833D01*
X11516Y5000D01*
X10683Y5833D01*
X9850Y5000D01*
X9017Y5833D01*
Y8332D01*
X4852Y5000D02*
X6518D01*
X7351Y5833D01*
Y7499D01*
X6518Y8332D01*
X4852D01*
X4019Y7499D01*
Y6666D01*
X7351D01*
D31*
X161500Y36000D02*
D03*
D32*
Y26000D02*
D03*
Y16000D02*
D03*
D33*
X8000Y118500D02*
D03*
D34*
X137500Y82000D02*
D03*
X66500Y99500D02*
D03*
X48000Y42000D02*
D03*
X46000Y71000D02*
D03*
X58000Y42500D02*
D03*
X22366Y98366D02*
D03*
X51500Y92500D02*
D03*
X52000Y119500D02*
D03*
X113815Y6500D02*
D03*
X116000Y58500D02*
D03*
X127815Y26000D02*
D03*
X150859Y28603D02*
D03*
X95315Y62500D02*
D03*
X80000Y71500D02*
D03*
X152815Y64000D02*
D03*
X34000Y83500D02*
D03*
X7000D02*
D03*
X47000D02*
D03*
X20000D02*
D03*
X6500Y59000D02*
D03*
Y72000D02*
D03*
X106500Y38500D02*
D03*
Y14500D02*
D03*
Y51500D02*
D03*
X93000Y38500D02*
D03*
X69000Y27500D02*
D03*
X93000Y51500D02*
D03*
X81000Y38500D02*
D03*
Y51500D02*
D03*
X163000Y105000D02*
D03*
Y78000D02*
D03*
Y118000D02*
D03*
Y91000D02*
D03*
X150000Y105000D02*
D03*
Y118000D02*
D03*
Y91000D02*
D03*
X136500Y105000D02*
D03*
Y118000D02*
D03*
X116500Y93500D02*
D03*
X129500D02*
D03*
X66000Y118500D02*
D03*
X77000Y121500D02*
D03*
X89500D02*
D03*
X102500D02*
D03*
X120000Y121000D02*
D03*
X6500Y27500D02*
D03*
X19000D02*
D03*
X31500D02*
D03*
X44000D02*
D03*
X81500D02*
D03*
X94000D02*
D03*
X106500D02*
D03*
X56500D02*
D03*
X94500Y14500D02*
D03*
X82500D02*
D03*
X19000Y38000D02*
D03*
X6500Y38500D02*
D03*
Y49000D02*
D03*
X7000Y96000D02*
D03*
X121500Y99500D02*
D03*
X154000Y56500D02*
D03*
Y49500D02*
D03*
X153000Y43000D02*
D03*
X151584Y36242D02*
D03*
X133000Y72000D02*
D03*
X128500Y65500D02*
D03*
X95000Y110000D02*
D03*
X99000Y104500D02*
D03*
X95000Y100000D02*
D03*
X76500Y94000D02*
D03*
X68500Y106500D02*
D03*
X150000Y10000D02*
D03*
M02*
