%FSLAX25Y25*%
%MOIN*%
G70*
G01*
G75*
G04 Layer_Physical_Order=1*
G04 Layer_Color=255*
%ADD10C,0.02000*%
%ADD11C,0.04000*%
%ADD12R,0.13386X0.09055*%
%ADD13R,0.09055X0.09449*%
%ADD14R,0.05709X0.04528*%
%ADD15R,0.05512X0.04134*%
%ADD16R,0.03740X0.05315*%
%ADD17O,0.02362X0.07480*%
%ADD18R,0.06102X0.05315*%
%ADD19R,0.04134X0.05512*%
%ADD20R,0.05315X0.06102*%
%ADD21R,0.04528X0.05709*%
%ADD22R,0.05118X0.03347*%
%ADD23R,0.04331X0.10236*%
%ADD24R,0.06299X0.02165*%
%ADD25R,0.03347X0.05118*%
%ADD26R,0.05315X0.03740*%
%ADD27R,0.05906X0.04921*%
%ADD28R,0.04921X0.05906*%
%ADD29O,0.09843X0.02756*%
%ADD30C,0.00700*%
%ADD31R,0.05906X0.05906*%
%ADD32C,0.05906*%
%ADD33R,0.05906X0.05906*%
%ADD34C,0.03000*%
G36*
X134636Y80291D02*
X135197Y79560D01*
X135928Y78999D01*
X136701Y78679D01*
Y71301D01*
Y69891D01*
X134853Y69125D01*
X132782Y71196D01*
X132156Y71677D01*
X131942Y71766D01*
X131426Y71979D01*
X130643Y72082D01*
X127764D01*
Y73749D01*
X127764D01*
Y80836D01*
X134410D01*
X134636Y80291D01*
D02*
G37*
G36*
X26134Y101730D02*
X33797D01*
X35211Y100315D01*
X35211Y100258D01*
X35211Y100258D01*
X35211D01*
X35212Y100245D01*
Y97411D01*
X34886D01*
Y96509D01*
X26366D01*
Y86604D01*
X35287D01*
Y87702D01*
X43413D01*
Y97234D01*
X45512D01*
Y100974D01*
X53740D01*
Y100462D01*
X54035D01*
Y94836D01*
Y88537D01*
X54134D01*
Y83230D01*
Y77508D01*
X52286Y76743D01*
X49832Y79196D01*
X49206Y79677D01*
X48992Y79765D01*
X48476Y79979D01*
X47693Y80082D01*
X31193D01*
X31193Y80082D01*
X30410Y79979D01*
X29680Y79677D01*
X29325Y79405D01*
X29053Y79196D01*
X29053Y79196D01*
X17553Y67696D01*
X17072Y67069D01*
X16984Y66856D01*
X16770Y66340D01*
X16667Y65556D01*
Y51056D01*
X16770Y50273D01*
X16984Y49757D01*
X17072Y49543D01*
X17553Y48917D01*
X19053Y47417D01*
X19680Y46936D01*
X19894Y46847D01*
X20410Y46634D01*
X21193Y46531D01*
X22982D01*
X23622Y46265D01*
X24504Y46149D01*
X25889D01*
X25908Y46126D01*
X29598Y42435D01*
Y37005D01*
X34365D01*
X36504Y34866D01*
X37131Y34385D01*
X37861Y34082D01*
X38644Y33979D01*
X59142D01*
X59925Y34082D01*
X60441Y34296D01*
X60655Y34385D01*
X61281Y34866D01*
X80446Y54031D01*
X107193D01*
X107453Y54065D01*
X108319Y53305D01*
X108957Y51766D01*
Y47836D01*
Y39962D01*
X109252D01*
Y38864D01*
X109252D01*
Y30730D01*
Y23407D01*
X109154D01*
Y14879D01*
X118701D01*
Y14344D01*
Y6344D01*
X134315D01*
Y8074D01*
X137291D01*
X138075Y8177D01*
X138804Y8479D01*
X139431Y8960D01*
X139650Y9179D01*
D01*
X139657Y9173D01*
X139716Y9245D01*
X140720Y10249D01*
X145264D01*
Y17730D01*
Y18771D01*
X157433D01*
X158216Y18874D01*
X158946Y19176D01*
X159573Y19657D01*
X159573Y19657D01*
X159573Y19657D01*
X161060Y21144D01*
X161693Y21061D01*
X162986Y21231D01*
X164191Y21730D01*
X165225Y22524D01*
X166019Y23559D01*
X166518Y24764D01*
X166671Y25927D01*
X168667Y25796D01*
Y3082D01*
X92532D01*
Y11255D01*
X80036D01*
Y19255D01*
X3219D01*
Y33056D01*
X3219Y33056D01*
X3219Y33056D01*
Y33056D01*
Y103056D01*
X26134D01*
Y101730D01*
D02*
G37*
G36*
X148248Y71275D02*
Y71274D01*
X148248Y71274D01*
X148248Y71274D01*
X148248Y71274D01*
X149105Y70919D01*
X149105Y70919D01*
X149105Y70919D01*
D01*
X149105Y70919D01*
X149106Y70919D01*
Y70919D01*
X158667Y61358D01*
Y41009D01*
X156740D01*
Y31104D01*
X156998D01*
X157177Y30871D01*
X157947Y29310D01*
X157367Y28554D01*
X156868Y27349D01*
X156697Y26056D01*
X147324Y24823D01*
X145264D01*
Y25864D01*
X143534D01*
Y29238D01*
X143607Y29415D01*
X143717Y30245D01*
Y35364D01*
X143607Y36194D01*
X143287Y36968D01*
X143031Y37301D01*
X147648Y41917D01*
X147648Y41917D01*
X147920Y42271D01*
X148128Y42544D01*
X148431Y43273D01*
X148534Y44056D01*
Y47742D01*
X148607Y47919D01*
X148716Y48749D01*
Y53868D01*
X148607Y54698D01*
X148287Y55472D01*
X147777Y56136D01*
X147112Y56646D01*
X146338Y56967D01*
X145508Y57076D01*
X145228Y57321D01*
Y64911D01*
X144835D01*
Y71301D01*
X148051D01*
X148248Y71275D01*
D02*
G37*
G36*
X37199Y52271D02*
X37199Y52271D01*
X37826Y51790D01*
X38555Y51488D01*
X38555Y51488D01*
X38555Y51488D01*
D01*
X38555Y51488D01*
X38555Y51488D01*
X39339Y51385D01*
X39339Y51385D01*
X42625D01*
X42913Y51265D01*
X43067Y51245D01*
X44284Y49659D01*
X44158Y48702D01*
Y46091D01*
X42130D01*
X41086Y45954D01*
X40576Y45742D01*
X38913Y46854D01*
Y47108D01*
X38665D01*
X34882Y48675D01*
X34998Y49556D01*
X34882Y50438D01*
X34567Y51198D01*
X35623Y52897D01*
X36515Y52955D01*
X37199Y52271D01*
D02*
G37*
G36*
X104012Y103655D02*
X96071Y95714D01*
X91815D01*
X88848Y98681D01*
X89613Y100529D01*
X90886D01*
Y113531D01*
X104012D01*
Y103655D01*
D02*
G37*
G36*
X168667Y26317D02*
X166671Y26186D01*
X166518Y27349D01*
X166019Y28554D01*
X165439Y29310D01*
X166209Y30871D01*
X166388Y31104D01*
X166646D01*
Y41009D01*
X164719D01*
Y62612D01*
X164719Y62612D01*
X164616Y63395D01*
X164313Y64125D01*
X164201Y64270D01*
X163832Y64751D01*
X163832Y64751D01*
X153385Y75199D01*
X153392Y75205D01*
X153320Y75264D01*
X152315Y76269D01*
Y80812D01*
X147942D01*
X144559Y84196D01*
X143932Y84677D01*
X143718Y84765D01*
X143202Y84979D01*
X142419Y85082D01*
X140719D01*
Y95556D01*
X140616Y96340D01*
X140439Y96767D01*
X140313Y97069D01*
X140105Y97342D01*
X139832Y97696D01*
X139832Y97696D01*
X118833Y118696D01*
X118206Y119177D01*
X117992Y119265D01*
X117476Y119479D01*
X116693Y119582D01*
X72693D01*
X72693Y119582D01*
X72001Y119491D01*
X71910Y119479D01*
X71545Y119328D01*
X71180Y119177D01*
X70553Y118696D01*
X67940Y116082D01*
X63646D01*
Y117651D01*
X53740D01*
Y116082D01*
X44096D01*
X43413Y116765D01*
Y122911D01*
D01*
Y122911D01*
X44033Y123530D01*
X168667D01*
Y26317D01*
D02*
G37*
G36*
X134667Y94303D02*
Y89364D01*
X126154D01*
Y89364D01*
X110252D01*
Y89364D01*
X110252D01*
D01*
D01*
X109267D01*
X109258Y89433D01*
X109246Y89525D01*
X108943Y90254D01*
X108463Y90881D01*
X106148Y93196D01*
X105521Y93677D01*
X105307Y93765D01*
X105113Y93846D01*
X104909Y94874D01*
X105078Y96163D01*
X109248Y100332D01*
X117067D01*
Y109290D01*
X118915Y110055D01*
X134667Y94303D01*
D02*
G37*
G36*
X73500Y110471D02*
Y100529D01*
X79237D01*
X79270Y100273D01*
X79484Y99757D01*
X79572Y99543D01*
X80053Y98917D01*
X86800Y92170D01*
X86035Y90323D01*
X84512D01*
Y90379D01*
X77249D01*
X77237Y90381D01*
X77224Y90379D01*
X74212D01*
Y90379D01*
X73142D01*
X72244Y91277D01*
Y91277D01*
X63350D01*
Y94836D01*
Y100462D01*
X63646D01*
Y108730D01*
Y110030D01*
X69193D01*
X69976Y110134D01*
X70492Y110347D01*
X70706Y110436D01*
X71333Y110917D01*
X71652Y111237D01*
X73500Y110471D01*
D02*
G37*
D10*
X128147Y65146D02*
G03*
X126466Y65842I-1681J-1681D01*
G01*
X128272Y63695D02*
G03*
X128067Y65250I-1979J530D01*
G01*
X128933D02*
G03*
X128701Y63491I2007J-1159D01*
G01*
X7953Y118500D02*
G03*
X9439Y114911I5076J0D01*
G01*
X9953Y118500D02*
G03*
X12854Y111497I9904J0D01*
G01*
X54016Y60500D02*
G03*
X50956Y59233I0J-4327D01*
G01*
X50878Y54827D02*
G03*
X52342Y54635I965J1671D01*
G01*
X52342Y49365D02*
G03*
X50878Y49173I-499J-1864D01*
G01*
X57333Y63525D02*
G03*
X58500Y66341I-2816J2816D01*
G01*
Y65695D02*
G03*
X59399Y63525I3070J0D01*
G01*
X59505Y56416D02*
G03*
X61543Y55543I2038J1945D01*
G01*
D02*
G03*
X59505Y54671I0J-2817D01*
G01*
X51839Y54500D02*
G03*
X56516Y56437I0J6613D01*
G01*
Y47563D02*
G03*
X51840Y49500I-4676J-4676D01*
G01*
X31667Y92533D02*
G03*
X34160Y91500I2493J2493D01*
G01*
D02*
G03*
X31667Y90467I0J-3526D01*
G01*
X38063Y93984D02*
G03*
X38957Y96141I-2157J2157D01*
G01*
Y96142D02*
G03*
X39850Y93984I3051J0D01*
G01*
X38063Y116516D02*
G03*
X36058Y117347I-2005J-2005D01*
G01*
X35754D02*
G03*
X38063Y118303I0J3266D01*
G01*
X23265Y108615D02*
G03*
X24750Y108000I1485J1485D01*
G01*
D02*
G03*
X23265Y107385I0J-2101D01*
G01*
X13521Y110829D02*
G03*
X16350Y109658I2829J2829D01*
G01*
X38957Y97997D02*
G03*
X38044Y100201I-3117J0D01*
G01*
X56975Y112101D02*
G03*
X54805Y113000I-2170J-2170D01*
G01*
X54159D02*
G03*
X56975Y114167I0J3983D01*
G01*
X60025D02*
G03*
X62841Y113000I2816J2816D01*
G01*
X62195D02*
G03*
X60025Y112101I0J-3070D01*
G01*
X59533Y103833D02*
G03*
X58500Y101340I2493J-2493D01*
G01*
D02*
G03*
X57467Y103833I-3526J0D01*
G01*
X96310Y72254D02*
G03*
X98131Y71500I1821J1821D01*
G01*
D02*
G03*
X96310Y70746I0J-2576D01*
G01*
X94801Y72943D02*
G03*
X96075Y76019I-3076J3076D01*
G01*
X88389Y68361D02*
G03*
X87667Y69825I-1196J320D01*
G01*
X88815Y66448D02*
G03*
X87320Y70057I-5103J0D01*
G01*
X86965Y65484D02*
G03*
X88815Y69951I-4467J4467D01*
G01*
X59115Y91735D02*
G03*
X58500Y90250I1485J-1485D01*
G01*
D02*
G03*
X57885Y91735I-2101J0D01*
G01*
Y99265D02*
G03*
X58500Y100750I-1485J1485D01*
G01*
D02*
G03*
X59115Y99265I2101J0D01*
G01*
X65178Y79410D02*
G03*
X63382Y80154I-1796J-1796D01*
G01*
X98080Y91615D02*
G03*
X99565Y91000I1485J1485D01*
G01*
X99565D02*
G03*
X98080Y90385I0J-2101D01*
G01*
X91165Y89342D02*
G03*
X88336Y88170I0J-4002D01*
G01*
X75952Y86847D02*
G03*
X77044Y87299I0J1544D01*
G01*
X105381Y71609D02*
G03*
X108210Y70437I2829J2829D01*
G01*
X108210D02*
G03*
X105381Y69265I0J-4002D01*
G01*
X105306Y85277D02*
G03*
X106130Y87266I-1989J1989D01*
G01*
Y87266D02*
G03*
X106954Y85277I2814J0D01*
G01*
X90386Y83500D02*
G03*
X94676Y85277I0J6066D01*
G01*
X96075Y74346D02*
G03*
X94676Y77723I-4776J0D01*
G01*
X62291Y74665D02*
G03*
X65457Y73354I3165J3165D01*
G01*
X121820Y18289D02*
G03*
X119895Y19087I-1926J-1926D01*
G01*
X120103D02*
G03*
X121820Y19798I0J2428D01*
G01*
X123329Y17600D02*
G03*
X122575Y15779I1821J-1821D01*
G01*
Y15779D02*
G03*
X121820Y17600I-2576J0D01*
G01*
X151052Y73002D02*
G03*
X148055Y74244I-2997J-2997D01*
G01*
X141329Y74557D02*
G03*
X140575Y72735I1821J-1821D01*
G01*
D02*
G03*
X139820Y74557I-2576J0D01*
G01*
X141329Y66557D02*
G03*
X140575Y64735I1821J-1821D01*
G01*
D02*
G03*
X139820Y66557I-2576J0D01*
G01*
Y69443D02*
G03*
X140575Y71265I-1821J1821D01*
G01*
D02*
G03*
X141329Y69443I2576J0D01*
G01*
X141665Y58516D02*
G03*
X140575Y55883I2633J-2633D01*
G01*
Y56833D02*
G03*
X139878Y58516I-2379J0D01*
G01*
Y61484D02*
G03*
X140575Y63166I-1682J1682D01*
G01*
Y64117D02*
G03*
X141665Y61484I3723J0D01*
G01*
X127265Y61566D02*
G03*
X128500Y64547I-2982J2982D01*
G01*
Y64243D02*
G03*
X129609Y61566I3786J0D01*
G01*
X130315Y55899D02*
G03*
X128679Y59848I-5585J0D01*
G01*
X130315Y51071D02*
G03*
X127265Y58434I-10413J0D01*
G01*
X123381Y35609D02*
G03*
X128472Y33500I5092J5092D01*
G01*
X121820Y12487D02*
G03*
X122575Y14308I-1821J1821D01*
G01*
Y14308D02*
G03*
X123329Y12487I2576J0D01*
G01*
X130810Y11798D02*
G03*
X132631Y11043I1822J1822D01*
G01*
X132631D02*
G03*
X130810Y10289I0J-2575D01*
G01*
X112921Y19980D02*
G03*
X113815Y22138I-2157J2157D01*
G01*
Y22138D02*
G03*
X114709Y19980I3051J0D01*
G01*
X115299D02*
G03*
X117456Y19087I2157J2157D01*
G01*
X117457D02*
G03*
X115299Y18193I0J-3051D01*
G01*
X115381Y53609D02*
G03*
X117478Y52740I2098J2098D01*
G01*
X118942D02*
G03*
X115381Y51265I0J-5037D01*
G01*
X114987Y43391D02*
G03*
X113815Y40561I2830J-2830D01*
G01*
Y40562D02*
G03*
X112643Y43391I-4001J0D01*
G01*
X119893Y45260D02*
G03*
X115381Y43391I0J-6381D01*
G01*
X120372Y51986D02*
G03*
X118550Y52740I-1821J-1821D01*
G01*
X118550D02*
G03*
X120372Y53495I-0J2576D01*
G01*
X123259Y53494D02*
G03*
X125075Y52740I1815J1810D01*
G01*
X125075D02*
G03*
X123259Y51987I-0J-2564D01*
G01*
X124717Y53098D02*
G03*
X122140Y53599I-1661J-1661D01*
G01*
X126815Y51000D02*
G03*
X122921Y51758I-2509J-2509D01*
G01*
X123571Y45260D02*
G03*
X124812Y42262I4239J0D01*
G01*
X120372Y44505D02*
G03*
X118550Y45260I-1822J-1822D01*
G01*
X118550D02*
G03*
X120372Y46014I0J2576D01*
G01*
X113061Y35495D02*
G03*
X113815Y37316I-1821J1821D01*
G01*
Y37316D02*
G03*
X114569Y35495I2576J0D01*
G01*
Y26505D02*
G03*
X113815Y24684I1821J-1821D01*
G01*
Y24684D02*
G03*
X113061Y26505I-2576J0D01*
G01*
X133809Y45494D02*
G03*
X135134Y48693I-3199J3199D01*
G01*
X130187Y32620D02*
G03*
X128062Y33500I-2125J-2125D01*
G01*
X131815Y26131D02*
G03*
X130187Y30061I-5558J0D01*
G01*
X131815Y30537D02*
G03*
X130475Y32001I-1469J0D01*
G01*
X131815Y28353D02*
G03*
X130299Y30009I-1662J0D01*
G01*
X121372Y84486D02*
G03*
X119550Y85240I-1821J-1821D01*
G01*
X119550D02*
G03*
X121372Y85995I-0J2576D01*
G01*
X124258D02*
G03*
X126080Y85240I1821J1821D01*
G01*
X126080D02*
G03*
X124258Y84486I-0J-2576D01*
G01*
X123569Y77005D02*
G03*
X122815Y75184I1821J-1821D01*
G01*
Y75184D02*
G03*
X122061Y77005I-2576J0D01*
G01*
X117465Y74464D02*
G03*
X115414Y76697I-2241J0D01*
G01*
X116565Y77649D02*
G03*
X117464Y75110I3112J-326D01*
G01*
X116258Y85995D02*
G03*
X118080Y85240I1821J1821D01*
G01*
X118080D02*
G03*
X116258Y84486I0J-2576D01*
G01*
X116849Y71903D02*
G03*
X117465Y73388I-1485J1485D01*
G01*
Y73388D02*
G03*
X118080Y71903I2101J0D01*
G01*
X110550Y69885D02*
G03*
X109217Y70437I-1333J-1333D01*
G01*
X108913D02*
G03*
X110550Y71115I0J2316D01*
G01*
X138559Y14260D02*
G03*
X137438Y16965I-3826J0D01*
G01*
X137318Y11263D02*
G03*
X138559Y14260I-2997J2997D01*
G01*
X141758Y22495D02*
G03*
X143580Y21740I1821J1821D01*
G01*
X143580D02*
G03*
X141758Y20986I0J-2576D01*
G01*
X139561Y22495D02*
G03*
X140315Y24316I-1821J1821D01*
G01*
Y24316D02*
G03*
X141069Y22495I2576J0D01*
G01*
X129331Y84150D02*
G03*
X126698Y85240I-2633J-2633D01*
G01*
X127648D02*
G03*
X129331Y85937I0J2379D01*
G01*
X8000Y116350D02*
X16350Y108000D01*
X8000Y116350D02*
Y118500D01*
X42650Y113000D02*
X69000D01*
X116500Y116500D02*
X137500Y95500D01*
X72500Y116500D02*
X116500D01*
X69000Y113000D02*
X72500Y116500D01*
X91165Y91000D02*
Y91835D01*
X82000Y101000D02*
X91165Y91835D01*
X82000Y101000D02*
Y107000D01*
X110346Y105847D02*
Y107000D01*
X97465Y92965D02*
X110346Y105847D01*
X97465Y91000D02*
Y92965D01*
Y91000D02*
Y91000D01*
X34063Y41337D02*
Y42000D01*
X38451Y36949D02*
X58949D01*
X34063Y41337D02*
X38451Y36949D01*
X58949D02*
X79000Y57000D01*
X38303Y117347D02*
X42650Y113000D01*
X79000Y57000D02*
X107000D01*
X115842Y65842D01*
X128500Y60063D02*
Y66000D01*
X115842Y65842D02*
X128500D01*
X137500Y82000D02*
Y95500D01*
Y82000D02*
X142226D01*
X148055Y76171D01*
X21000Y49500D02*
X27854D01*
X47146Y64500D02*
X51000Y68354D01*
Y73500D01*
X47500Y77000D02*
X51000Y73500D01*
X31000Y77000D02*
X47500D01*
X19500Y65500D02*
X31000Y77000D01*
X19500Y51000D02*
Y65500D01*
Y51000D02*
X21000Y49500D01*
X122815Y71685D02*
X125500Y69000D01*
X122815Y71685D02*
Y77760D01*
X97465Y91000D02*
X103815D01*
X140315Y21740D02*
X140315D01*
Y32748D01*
Y21740D02*
X157240D01*
X161500Y26000D01*
X47146Y59500D02*
X48146Y60500D01*
X56866D01*
X58366Y62000D01*
X58500Y62134D02*
Y68154D01*
X130055Y11043D02*
X137098D01*
X135315Y32748D02*
X135559Y32504D01*
X137098Y11043D02*
X140315Y14260D01*
X135559Y18845D02*
Y32504D01*
X140144Y14260D02*
X140315D01*
X135559Y18845D02*
X140144Y14260D01*
X125075Y52740D02*
X126815Y51000D01*
X114118Y52740D02*
X125075D01*
X126815Y46000D02*
X128815Y44000D01*
X132315D01*
X126815Y46000D02*
Y51000D01*
X113815Y34740D02*
X113815Y34740D01*
X113815Y34740D02*
Y44563D01*
X114512Y45260D02*
X121815D01*
X127815Y39260D01*
X140575D01*
X145315Y44000D01*
Y51252D01*
X122815Y34437D02*
X123752Y33500D01*
X129563D01*
X131815Y17284D02*
Y31248D01*
X128815Y20283D02*
X131815Y17284D01*
X129563Y33500D02*
X130315Y32748D01*
X131815Y31248D01*
X114815Y85240D02*
X130618D01*
X140575Y51512D02*
Y76000D01*
X140315Y51252D02*
X140575Y51512D01*
X58500Y74847D02*
Y80154D01*
X64500D01*
X62110Y74847D02*
X65457Y71500D01*
X58500Y74847D02*
X62110D01*
X114815Y77760D02*
X117465Y75110D01*
Y70500D02*
Y75110D01*
X88815Y64043D02*
Y70760D01*
X106130Y81500D02*
Y88685D01*
X103815Y91000D02*
X106130Y88685D01*
X30634Y91500D02*
X37957D01*
X38957Y92500D02*
Y99547D01*
X24000Y108000D02*
X40169D01*
X58500Y86847D02*
Y92350D01*
Y86847D02*
X78776D01*
X79169Y87240D02*
X87406D01*
X91165Y91000D01*
X27854Y64500D02*
X28350D01*
X34850Y71000D01*
X34000Y59500D02*
X39146Y54354D01*
X47146D01*
Y54500D02*
X56957D01*
X27854Y59500D02*
X34000D01*
X47146Y54354D02*
Y54500D01*
X56957D02*
X58000Y55543D01*
X61543D01*
X66634Y60634D01*
Y62000D01*
X49232Y49500D02*
X56957D01*
X58000Y48457D01*
X113815Y19087D02*
X122531D01*
X122575Y11043D02*
Y19043D01*
X113815Y19087D02*
Y27260D01*
X93500Y83500D02*
X95500Y81500D01*
X87831Y83500D02*
X93500D01*
X102752Y71500D02*
X103815Y70437D01*
X96075Y71500D02*
Y80925D01*
X103815Y70437D02*
X111102D01*
X95555Y71500D02*
X102752D01*
X48831Y104000D02*
X57366D01*
X58500Y98650D02*
Y104866D01*
X27854Y48209D02*
X34063Y42000D01*
X30500Y117347D02*
X38303D01*
X127500Y60000D02*
X130315Y57185D01*
Y51252D02*
Y57185D01*
X161500Y36000D02*
Y62555D01*
X148055Y76000D02*
X161500Y62555D01*
X148055Y76000D02*
Y76171D01*
X132315Y44000D02*
X135315Y47000D01*
Y64135D01*
X125500Y69000D02*
X130450D01*
X135315Y64135D01*
D11*
X80000Y67090D02*
G03*
X80958Y64777I3271J0D01*
G01*
X116305Y58500D02*
G03*
X120098Y60071I0J5364D01*
G01*
X80000Y64772D02*
X80772Y64000D01*
X80000Y64772D02*
Y71500D01*
X72543D02*
X80000D01*
X41937Y42000D02*
X48000D01*
Y48646D01*
X41150Y71000D02*
X46000D01*
X58000Y42500D02*
Y48457D01*
X72347Y71697D02*
Y79000D01*
X73106Y79760D01*
X116000Y58500D02*
X119063D01*
X121815Y26563D02*
X127252D01*
X127815Y26000D01*
X95315Y62500D02*
X103752D01*
X73106Y79760D02*
X79169D01*
D12*
X82000Y107000D02*
D03*
D13*
X110346D02*
D03*
D14*
X130815Y77957D02*
D03*
Y85043D02*
D03*
X113815Y12000D02*
D03*
Y19087D02*
D03*
X58000Y48457D02*
D03*
Y55543D02*
D03*
D15*
X140315Y21740D02*
D03*
Y14260D02*
D03*
X114815Y85240D02*
D03*
Y77760D02*
D03*
X122815D02*
D03*
Y85240D02*
D03*
X113815Y27260D02*
D03*
Y34740D02*
D03*
X121815Y45260D02*
D03*
Y52740D02*
D03*
D16*
X111165Y70500D02*
D03*
X117465D02*
D03*
X91165Y91000D02*
D03*
X97465D02*
D03*
X16350Y108000D02*
D03*
X22650D02*
D03*
X41150Y71000D02*
D03*
X34850D02*
D03*
D17*
X130315Y32748D02*
D03*
X135315D02*
D03*
X140315D02*
D03*
X145315D02*
D03*
X130315Y51252D02*
D03*
X135315D02*
D03*
X140315D02*
D03*
X145315D02*
D03*
D18*
X113815Y44563D02*
D03*
Y52437D02*
D03*
X121815Y34437D02*
D03*
Y26563D02*
D03*
X103815Y62563D02*
D03*
Y70437D02*
D03*
X67000Y94437D02*
D03*
Y86563D02*
D03*
D19*
X130055Y11043D02*
D03*
X122575D02*
D03*
X148055Y68000D02*
D03*
X140575D02*
D03*
Y76000D02*
D03*
X148055D02*
D03*
X130055Y19043D02*
D03*
X122575D02*
D03*
X88075Y71500D02*
D03*
X95555D02*
D03*
D20*
X128437Y60000D02*
D03*
X120563D02*
D03*
X34063Y42000D02*
D03*
X41937D02*
D03*
D21*
X147858Y60000D02*
D03*
X140772D02*
D03*
X72543Y71500D02*
D03*
X65457D02*
D03*
X87858Y64000D02*
D03*
X80772D02*
D03*
X46043Y118000D02*
D03*
X38957D02*
D03*
X38957Y92500D02*
D03*
X46043D02*
D03*
D22*
X58500Y74846D02*
D03*
Y68154D02*
D03*
Y80154D02*
D03*
Y86846D02*
D03*
X30500Y98654D02*
D03*
Y105346D02*
D03*
Y110654D02*
D03*
Y117346D02*
D03*
D23*
X95500Y81500D02*
D03*
X106130D02*
D03*
D24*
X79169Y87240D02*
D03*
Y79760D02*
D03*
X87831Y83500D02*
D03*
X40169Y107740D02*
D03*
Y100260D02*
D03*
X48831Y104000D02*
D03*
D25*
X72346Y79000D02*
D03*
X65654D02*
D03*
D26*
X58500Y98650D02*
D03*
Y92350D02*
D03*
D27*
Y104866D02*
D03*
Y113134D02*
D03*
D28*
X22366Y91500D02*
D03*
X30634D02*
D03*
X58366Y62000D02*
D03*
X66634D02*
D03*
D29*
X47146Y49500D02*
D03*
Y54500D02*
D03*
Y59500D02*
D03*
Y64500D02*
D03*
X27854Y49500D02*
D03*
Y54500D02*
D03*
Y59500D02*
D03*
Y64500D02*
D03*
D30*
X3000Y8498D02*
Y3500D01*
X5499D01*
X6332Y4333D01*
Y5166D01*
X5499Y5999D01*
X3000D01*
X5499D01*
X6332Y6832D01*
Y7665D01*
X5499Y8498D01*
X3000D01*
X7998Y3500D02*
X9664D01*
X8831D01*
Y8498D01*
X7998D01*
X12997Y6832D02*
X14663D01*
X15496Y5999D01*
Y3500D01*
X12997D01*
X12164Y4333D01*
X12997Y5166D01*
X15496D01*
X20494Y6832D02*
X17995D01*
X17162Y5999D01*
Y4333D01*
X17995Y3500D01*
X20494D01*
X22161D02*
Y8498D01*
Y5166D02*
X24660Y6832D01*
X22161Y5166D02*
X24660Y3500D01*
X30491Y7665D02*
X29658Y8498D01*
X27992D01*
X27159Y7665D01*
Y4333D01*
X27992Y3500D01*
X29658D01*
X30491Y4333D01*
X32157Y8498D02*
Y3500D01*
Y5999D01*
X32990Y6832D01*
X34656D01*
X35489Y5999D01*
Y3500D01*
X37989Y6832D02*
X39655D01*
X40488Y5999D01*
Y3500D01*
X37989D01*
X37156Y4333D01*
X37989Y5166D01*
X40488D01*
X42987Y7665D02*
Y6832D01*
X42154D01*
X43820D01*
X42987D01*
Y4333D01*
X43820Y3500D01*
X51318D02*
Y8498D01*
X53817D01*
X54650Y7665D01*
Y5999D01*
X53817Y5166D01*
X51318D01*
X52984D02*
X54650Y3500D01*
X56316Y8498D02*
X59648Y3500D01*
Y8498D02*
X56316Y3500D01*
X66313Y8498D02*
Y3500D01*
X68812D01*
X69645Y4333D01*
Y5166D01*
X68812Y5999D01*
X66313D01*
X68812D01*
X69645Y6832D01*
Y7665D01*
X68812Y8498D01*
X66313D01*
X72144Y3500D02*
X73810D01*
X74643Y4333D01*
Y5999D01*
X73810Y6832D01*
X72144D01*
X71311Y5999D01*
Y4333D01*
X72144Y3500D01*
X77143Y6832D02*
X78809D01*
X79642Y5999D01*
Y3500D01*
X77143D01*
X76310Y4333D01*
X77143Y5166D01*
X79642D01*
X81308Y6832D02*
Y3500D01*
Y5166D01*
X82141Y5999D01*
X82974Y6832D01*
X83807D01*
X89639Y8498D02*
Y3500D01*
X87139D01*
X86306Y4333D01*
Y5999D01*
X87139Y6832D01*
X89639D01*
X3000Y11500D02*
Y14832D01*
X4666Y16498D01*
X6332Y14832D01*
Y11500D01*
Y13999D01*
X3000D01*
X7998Y11500D02*
X9664D01*
X8831D01*
Y16498D01*
X7998D01*
X12164Y9834D02*
Y14832D01*
X14663D01*
X15496Y13999D01*
Y12333D01*
X14663Y11500D01*
X12164D01*
X17995Y14832D02*
X19661D01*
X20494Y13999D01*
Y11500D01*
X17995D01*
X17162Y12333D01*
X17995Y13166D01*
X20494D01*
X25493Y14832D02*
X22994D01*
X22161Y13999D01*
Y12333D01*
X22994Y11500D01*
X25493D01*
X27992Y14832D02*
X29658D01*
X30491Y13999D01*
Y11500D01*
X27992D01*
X27159Y12333D01*
X27992Y13166D01*
X30491D01*
X35489Y15665D02*
X34656Y16498D01*
X32990D01*
X32157Y15665D01*
Y14832D01*
X32990Y13999D01*
X34656D01*
X35489Y13166D01*
Y12333D01*
X34656Y11500D01*
X32990D01*
X32157Y12333D01*
X39655Y11500D02*
X37989D01*
X37156Y12333D01*
Y13999D01*
X37989Y14832D01*
X39655D01*
X40488Y13999D01*
Y13166D01*
X37156D01*
X45486Y14832D02*
X42987D01*
X42154Y13999D01*
Y12333D01*
X42987Y11500D01*
X45486D01*
X55483Y15665D02*
X54650Y16498D01*
X52984D01*
X52151Y15665D01*
Y14832D01*
X52984Y13999D01*
X54650D01*
X55483Y13166D01*
Y12333D01*
X54650Y11500D01*
X52984D01*
X52151Y12333D01*
X57982Y11500D02*
X59648D01*
X60481Y12333D01*
Y13999D01*
X59648Y14832D01*
X57982D01*
X57149Y13999D01*
Y12333D01*
X57982Y11500D01*
X62147D02*
X63814D01*
X62981D01*
Y16498D01*
X62147D01*
X66313Y11500D02*
Y14832D01*
X68812D01*
X69645Y13999D01*
Y11500D01*
X71311D02*
X73810D01*
X74643Y12333D01*
X73810Y13166D01*
X72144D01*
X71311Y13999D01*
X72144Y14832D01*
X74643D01*
X76310Y11500D02*
Y12333D01*
X77143D01*
Y11500D01*
X76310D01*
D31*
X161500Y36000D02*
D03*
D32*
Y26000D02*
D03*
Y16000D02*
D03*
D33*
X8000Y118500D02*
D03*
D34*
X137500Y82000D02*
D03*
X66500Y99500D02*
D03*
X48000Y42000D02*
D03*
X46000Y71000D02*
D03*
X58000Y42500D02*
D03*
X22366Y98366D02*
D03*
X51500Y92500D02*
D03*
X52000Y119500D02*
D03*
X113815Y6500D02*
D03*
X116000Y58500D02*
D03*
X127815Y26000D02*
D03*
X150859Y28603D02*
D03*
X95315Y62500D02*
D03*
X80000Y71500D02*
D03*
X152815Y64000D02*
D03*
X34000Y83500D02*
D03*
X7000D02*
D03*
X47000D02*
D03*
X20000D02*
D03*
X6500Y59000D02*
D03*
Y72000D02*
D03*
X106500Y38500D02*
D03*
Y14500D02*
D03*
Y51500D02*
D03*
X93000Y38500D02*
D03*
X69000Y27500D02*
D03*
X93000Y51500D02*
D03*
X81000Y38500D02*
D03*
Y51500D02*
D03*
X163000Y105000D02*
D03*
Y78000D02*
D03*
Y118000D02*
D03*
Y91000D02*
D03*
X150000Y105000D02*
D03*
Y118000D02*
D03*
Y91000D02*
D03*
X136500Y105000D02*
D03*
Y118000D02*
D03*
X116500Y93500D02*
D03*
X129500D02*
D03*
X66000Y118500D02*
D03*
X77000Y121500D02*
D03*
X89500D02*
D03*
X102500D02*
D03*
X120000Y121000D02*
D03*
X6500Y27500D02*
D03*
X19000D02*
D03*
X31500D02*
D03*
X44000D02*
D03*
X81500D02*
D03*
X94000D02*
D03*
X106500D02*
D03*
X56500D02*
D03*
X94500Y14500D02*
D03*
X82500D02*
D03*
X19000Y38000D02*
D03*
X6500Y38500D02*
D03*
Y49000D02*
D03*
X7000Y96000D02*
D03*
X121500Y99500D02*
D03*
X154000Y56500D02*
D03*
Y49500D02*
D03*
X153000Y43000D02*
D03*
X151584Y36242D02*
D03*
X133000Y72000D02*
D03*
X128500Y65500D02*
D03*
X95000Y110000D02*
D03*
X99000Y104500D02*
D03*
X95000Y100000D02*
D03*
X76500Y94000D02*
D03*
X68500Y106500D02*
D03*
X150000Y10000D02*
D03*
M02*
