%FSLAX25Y25*%
%MOIN*%
G70*
G01*
G75*
G04 Layer_Physical_Order=1*
G04 Layer_Color=255*
%ADD10R,0.04331X0.05512*%
%ADD11O,0.08268X0.01378*%
%ADD12O,0.01181X0.07087*%
%ADD13O,0.07087X0.01181*%
%ADD14C,0.01200*%
%ADD15C,0.01000*%
%ADD16C,0.02000*%
%ADD17C,0.01500*%
%ADD18C,0.00500*%
%ADD19C,0.00800*%
%ADD20C,0.05906*%
%ADD21R,0.05906X0.05906*%
%ADD22C,0.05500*%
%ADD23C,0.11811*%
%ADD24R,0.05906X0.05906*%
%ADD25R,0.06000X0.10000*%
%ADD26O,0.06000X0.10000*%
%ADD27C,0.03500*%
%ADD28C,0.03300*%
%ADD29C,0.03400*%
G36*
X70516Y-225531D02*
X70563Y-225753D01*
X70641Y-225985D01*
X70751Y-226228D01*
X70892Y-226480D01*
X71064Y-226742D01*
X71268Y-227015D01*
X71769Y-227589D01*
X72067Y-227891D01*
X67933D01*
X68231Y-227589D01*
X68732Y-227015D01*
X68936Y-226742D01*
X69108Y-226480D01*
X69249Y-226228D01*
X69359Y-225985D01*
X69437Y-225753D01*
X69484Y-225531D01*
X69500Y-225318D01*
X70500D01*
X70516Y-225531D01*
D02*
G37*
G36*
X80516D02*
X80563Y-225753D01*
X80641Y-225985D01*
X80751Y-226228D01*
X80892Y-226480D01*
X81064Y-226742D01*
X81268Y-227015D01*
X81769Y-227589D01*
X82067Y-227891D01*
X77933D01*
X78231Y-227589D01*
X78732Y-227015D01*
X78936Y-226742D01*
X79108Y-226480D01*
X79249Y-226228D01*
X79359Y-225985D01*
X79437Y-225753D01*
X79484Y-225531D01*
X79500Y-225318D01*
X80500D01*
X80516Y-225531D01*
D02*
G37*
G36*
X60516D02*
X60563Y-225753D01*
X60641Y-225985D01*
X60751Y-226228D01*
X60892Y-226480D01*
X61064Y-226742D01*
X61268Y-227015D01*
X61769Y-227589D01*
X62067Y-227891D01*
X57933D01*
X58231Y-227589D01*
X58732Y-227015D01*
X58936Y-226742D01*
X59108Y-226480D01*
X59249Y-226228D01*
X59359Y-225985D01*
X59437Y-225753D01*
X59484Y-225531D01*
X59500Y-225318D01*
X60500D01*
X60516Y-225531D01*
D02*
G37*
G36*
X145461Y-191380D02*
Y-220602D01*
X132600D01*
Y-234860D01*
X125590D01*
X125377Y-234408D01*
X125809Y-233881D01*
X126455Y-232674D01*
X126852Y-231363D01*
X126986Y-230000D01*
X126852Y-228637D01*
X126455Y-227326D01*
X125809Y-226119D01*
X124951Y-225073D01*
X124941Y-225060D01*
X124729Y-224844D01*
X124539Y-224627D01*
Y-191880D01*
X128131Y-188288D01*
X128852Y-187348D01*
X129305Y-186253D01*
X129460Y-185079D01*
Y-176032D01*
X129922Y-175841D01*
X145461Y-191380D01*
D02*
G37*
G36*
X199970Y-232953D02*
X199572Y-232957D01*
X198852Y-233013D01*
X198530Y-233066D01*
X198233Y-233135D01*
X197961Y-233220D01*
X197715Y-233321D01*
X197494Y-233438D01*
X197298Y-233572D01*
X197127Y-233721D01*
X196279Y-232873D01*
X196428Y-232702D01*
X196562Y-232506D01*
X196679Y-232285D01*
X196781Y-232039D01*
X196865Y-231767D01*
X196934Y-231470D01*
X196987Y-231148D01*
X197023Y-230801D01*
X197047Y-230030D01*
X199970Y-232953D01*
D02*
G37*
G36*
X90516Y-225531D02*
X90563Y-225753D01*
X90641Y-225985D01*
X90751Y-226228D01*
X90892Y-226480D01*
X91064Y-226742D01*
X91268Y-227015D01*
X91769Y-227589D01*
X92067Y-227891D01*
X87933D01*
X88231Y-227589D01*
X88732Y-227015D01*
X88936Y-226742D01*
X89108Y-226480D01*
X89249Y-226228D01*
X89359Y-225985D01*
X89437Y-225753D01*
X89484Y-225531D01*
X89500Y-225318D01*
X90500D01*
X90516Y-225531D01*
D02*
G37*
G36*
X160516D02*
X160563Y-225753D01*
X160641Y-225985D01*
X160751Y-226228D01*
X160892Y-226480D01*
X161064Y-226742D01*
X161268Y-227015D01*
X161769Y-227589D01*
X162067Y-227891D01*
X157933D01*
X158231Y-227589D01*
X158732Y-227015D01*
X158936Y-226742D01*
X159108Y-226480D01*
X159249Y-226228D01*
X159359Y-225985D01*
X159437Y-225753D01*
X159484Y-225531D01*
X159500Y-225318D01*
X160500D01*
X160516Y-225531D01*
D02*
G37*
G36*
X170516D02*
X170563Y-225753D01*
X170641Y-225985D01*
X170751Y-226228D01*
X170892Y-226480D01*
X171064Y-226742D01*
X171268Y-227015D01*
X171769Y-227589D01*
X172067Y-227891D01*
X167933D01*
X168231Y-227589D01*
X168732Y-227015D01*
X168936Y-226742D01*
X169108Y-226480D01*
X169249Y-226228D01*
X169359Y-225985D01*
X169437Y-225753D01*
X169484Y-225531D01*
X169500Y-225318D01*
X170500D01*
X170516Y-225531D01*
D02*
G37*
G36*
X120516D02*
X120563Y-225753D01*
X120641Y-225985D01*
X120751Y-226228D01*
X120892Y-226480D01*
X121064Y-226742D01*
X121268Y-227015D01*
X121769Y-227589D01*
X122067Y-227891D01*
X117933D01*
X118231Y-227589D01*
X118732Y-227015D01*
X118936Y-226742D01*
X119108Y-226480D01*
X119249Y-226228D01*
X119359Y-225985D01*
X119437Y-225753D01*
X119484Y-225531D01*
X119500Y-225318D01*
X120500D01*
X120516Y-225531D01*
D02*
G37*
G36*
X100516D02*
X100563Y-225753D01*
X100641Y-225985D01*
X100751Y-226228D01*
X100892Y-226480D01*
X101064Y-226742D01*
X101268Y-227015D01*
X101769Y-227589D01*
X102067Y-227891D01*
X97933D01*
X98231Y-227589D01*
X98732Y-227015D01*
X98936Y-226742D01*
X99108Y-226480D01*
X99249Y-226228D01*
X99359Y-225985D01*
X99437Y-225753D01*
X99484Y-225531D01*
X99500Y-225318D01*
X100500D01*
X100516Y-225531D01*
D02*
G37*
G36*
X110516D02*
X110563Y-225753D01*
X110641Y-225985D01*
X110751Y-226228D01*
X110892Y-226480D01*
X111064Y-226742D01*
X111268Y-227015D01*
X111769Y-227589D01*
X112067Y-227891D01*
X107933D01*
X108231Y-227589D01*
X108732Y-227015D01*
X108936Y-226742D01*
X109108Y-226480D01*
X109249Y-226228D01*
X109359Y-225985D01*
X109437Y-225753D01*
X109484Y-225531D01*
X109500Y-225318D01*
X110500D01*
X110516Y-225531D01*
D02*
G37*
G36*
X175750Y-246225D02*
X175626Y-246106D01*
X175496Y-246000D01*
X175363Y-245906D01*
X175225Y-245825D01*
X175083Y-245756D01*
X174936Y-245700D01*
X174785Y-245656D01*
X174630Y-245625D01*
X174470Y-245606D01*
X174306Y-245600D01*
Y-244400D01*
X174470Y-244394D01*
X174630Y-244375D01*
X174785Y-244344D01*
X174936Y-244300D01*
X175083Y-244244D01*
X175225Y-244175D01*
X175363Y-244094D01*
X175496Y-244000D01*
X175626Y-243894D01*
X175750Y-243775D01*
Y-246225D01*
D02*
G37*
G36*
X30493Y-274912D02*
X31043Y-275381D01*
X31308Y-275572D01*
X31566Y-275733D01*
X31818Y-275865D01*
X32064Y-275968D01*
X32303Y-276041D01*
X32536Y-276085D01*
X32763Y-276100D01*
Y-277300D01*
X32536Y-277315D01*
X32303Y-277359D01*
X32064Y-277432D01*
X31818Y-277535D01*
X31566Y-277667D01*
X31308Y-277828D01*
X31043Y-278019D01*
X30771Y-278239D01*
X30209Y-278767D01*
Y-274633D01*
X30493Y-274912D01*
D02*
G37*
G36*
X64808Y-278763D02*
X64786Y-278756D01*
X64743Y-278749D01*
X64678Y-278744D01*
X64205Y-278729D01*
X63625Y-278725D01*
Y-277525D01*
X64808Y-277487D01*
Y-278763D01*
D02*
G37*
G36*
Y-281322D02*
X64786Y-281315D01*
X64740Y-281308D01*
X64671Y-281303D01*
X64169Y-281288D01*
X63552Y-281284D01*
Y-280084D01*
X64808Y-280047D01*
Y-281322D01*
D02*
G37*
G36*
X91974Y-283881D02*
X91951Y-283874D01*
X91905Y-283867D01*
X91837Y-283862D01*
X91334Y-283847D01*
X90717Y-283843D01*
Y-282643D01*
X91974Y-282606D01*
Y-283881D01*
D02*
G37*
G36*
X96283Y-281363D02*
X96883D01*
X96769Y-281375D01*
X96667Y-281411D01*
X96577Y-281472D01*
X96499Y-281556D01*
X96433Y-281665D01*
X96379Y-281799D01*
X96337Y-281956D01*
X96336Y-281964D01*
X96337Y-281971D01*
X96379Y-282129D01*
X96433Y-282262D01*
X96499Y-282371D01*
X96577Y-282456D01*
X96667Y-282517D01*
X96769Y-282553D01*
X96883Y-282565D01*
X96283D01*
X96283Y-282575D01*
X95083D01*
X95082Y-282565D01*
X94483D01*
X94597Y-282553D01*
X94699Y-282517D01*
X94789Y-282456D01*
X94867Y-282371D01*
X94933Y-282262D01*
X94987Y-282129D01*
X95029Y-281971D01*
X95030Y-281964D01*
X95029Y-281956D01*
X94987Y-281799D01*
X94933Y-281665D01*
X94867Y-281556D01*
X94789Y-281472D01*
X94699Y-281411D01*
X94597Y-281375D01*
X94483Y-281363D01*
X95082D01*
X95083Y-281353D01*
X96283D01*
X96283Y-281363D01*
D02*
G37*
G36*
X108837Y-244602D02*
X77093Y-276345D01*
X76620Y-276112D01*
X76692Y-275566D01*
X76530Y-274342D01*
X76464Y-274181D01*
X106505Y-244140D01*
X108645D01*
X108837Y-244602D01*
D02*
G37*
G36*
X28071Y-269653D02*
X27672Y-269657D01*
X26952Y-269713D01*
X26630Y-269766D01*
X26333Y-269834D01*
X26061Y-269919D01*
X25815Y-270021D01*
X25594Y-270138D01*
X25398Y-270272D01*
X25227Y-270421D01*
X24379Y-269573D01*
X24528Y-269402D01*
X24662Y-269207D01*
X24779Y-268985D01*
X24881Y-268739D01*
X24965Y-268467D01*
X25034Y-268170D01*
X25087Y-267848D01*
X25123Y-267500D01*
X25147Y-266729D01*
X28071Y-269653D01*
D02*
G37*
G36*
X31041Y-255614D02*
X31077Y-255716D01*
X31138Y-255806D01*
X31223Y-255884D01*
X31332Y-255950D01*
X31465Y-256004D01*
X31623Y-256046D01*
X31804Y-256076D01*
X32010Y-256094D01*
X32241Y-256100D01*
Y-257300D01*
X32010Y-257306D01*
X31804Y-257324D01*
X31623Y-257354D01*
X31465Y-257396D01*
X31332Y-257450D01*
X31223Y-257516D01*
X31138Y-257594D01*
X31077Y-257684D01*
X31041Y-257786D01*
X31029Y-257900D01*
Y-255500D01*
X31041Y-255614D01*
D02*
G37*
G36*
X13047Y-166953D02*
X13254D01*
X13507Y-167453D01*
X13148Y-168637D01*
X13014Y-170000D01*
X13148Y-171363D01*
X13545Y-172674D01*
X14191Y-173881D01*
X14801Y-174625D01*
X15024Y-175000D01*
X14801Y-175375D01*
X14191Y-176119D01*
X13545Y-177326D01*
X13148Y-178637D01*
X13014Y-180000D01*
X13148Y-181363D01*
X13545Y-182674D01*
X14191Y-183881D01*
X14801Y-184625D01*
X15024Y-185000D01*
X14801Y-185375D01*
X14191Y-186119D01*
X13545Y-187326D01*
X13148Y-188637D01*
X13014Y-190000D01*
X13148Y-191363D01*
X13545Y-192674D01*
X14191Y-193881D01*
X14801Y-194625D01*
X15024Y-195000D01*
X14801Y-195375D01*
X14191Y-196119D01*
X13545Y-197326D01*
X13148Y-198637D01*
X13014Y-200000D01*
X13148Y-201363D01*
X13545Y-202674D01*
X14191Y-203881D01*
X14801Y-204625D01*
X15024Y-205000D01*
X14801Y-205375D01*
X14191Y-206119D01*
X13545Y-207326D01*
X13148Y-208637D01*
X13014Y-210000D01*
X13148Y-211363D01*
X13545Y-212674D01*
X14191Y-213881D01*
X14801Y-214625D01*
X15024Y-215000D01*
X14801Y-215375D01*
X14191Y-216119D01*
X13545Y-217326D01*
X13148Y-218637D01*
X13014Y-220000D01*
X13148Y-221363D01*
X13545Y-222674D01*
X14191Y-223881D01*
X14801Y-224625D01*
X15024Y-225000D01*
X14801Y-225375D01*
X14191Y-226119D01*
X13545Y-227326D01*
X13148Y-228637D01*
X13014Y-230000D01*
X13148Y-231363D01*
X13545Y-232674D01*
X14191Y-233881D01*
X15060Y-234940D01*
X16119Y-235809D01*
X17326Y-236455D01*
X18637Y-236852D01*
X20000Y-236986D01*
X21363Y-236852D01*
X22674Y-236455D01*
X23881Y-235809D01*
X24940Y-234940D01*
X25809Y-233881D01*
X26139Y-233263D01*
X26209Y-233209D01*
X31709Y-227710D01*
X31709Y-227709D01*
X32100Y-227201D01*
X32600Y-227370D01*
Y-236600D01*
X43047D01*
Y-236953D01*
X56953D01*
Y-236746D01*
X57453Y-236493D01*
X58637Y-236852D01*
X60000Y-236986D01*
X61363Y-236852D01*
X62674Y-236455D01*
X63881Y-235809D01*
X64625Y-235199D01*
X65000Y-234976D01*
X65375Y-235199D01*
X66119Y-235809D01*
X67326Y-236455D01*
X68637Y-236852D01*
X70000Y-236986D01*
X71363Y-236852D01*
X72674Y-236455D01*
X73881Y-235809D01*
X74625Y-235199D01*
X75000Y-234976D01*
X75375Y-235199D01*
X76119Y-235809D01*
X77326Y-236455D01*
X78637Y-236852D01*
X80000Y-236986D01*
X81363Y-236852D01*
X82674Y-236455D01*
X83881Y-235809D01*
X84625Y-235199D01*
X85000Y-234976D01*
X85375Y-235199D01*
X86119Y-235809D01*
X87326Y-236455D01*
X88637Y-236852D01*
X90000Y-236986D01*
X91363Y-236852D01*
X92674Y-236455D01*
X93881Y-235809D01*
X94625Y-235199D01*
X95000Y-234976D01*
X95375Y-235199D01*
X96119Y-235809D01*
X97326Y-236455D01*
X98637Y-236852D01*
X99844Y-236971D01*
X100076Y-237446D01*
X66685Y-270837D01*
X65072D01*
X63848Y-270998D01*
X63291Y-271229D01*
X45481Y-253419D01*
X44520Y-252682D01*
X44192Y-252546D01*
X43401Y-252218D01*
X42800Y-252139D01*
X42200Y-252060D01*
X42200Y-252060D01*
X35053D01*
Y-249747D01*
X21147D01*
Y-263653D01*
X21354D01*
X21607Y-264153D01*
X21248Y-265337D01*
X21136Y-266476D01*
X21115Y-266603D01*
X21098Y-267141D01*
X9819Y-278419D01*
X9082Y-279380D01*
X8946Y-279708D01*
X8618Y-280499D01*
X8539Y-281100D01*
X8460Y-281700D01*
X8460Y-281700D01*
Y-324400D01*
X8460Y-324400D01*
X8539Y-325000D01*
X8618Y-325601D01*
X8946Y-326392D01*
X9082Y-326720D01*
X9819Y-327681D01*
X27100Y-344961D01*
X26931Y-345461D01*
X4539D01*
Y-167075D01*
X4600Y-166600D01*
X13047D01*
Y-166953D01*
D02*
G37*
G36*
X70750Y-274191D02*
X70629Y-274337D01*
X70543Y-274466D01*
X70492Y-274578D01*
X70474Y-274673D01*
X70492Y-274750D01*
X70543Y-274811D01*
X70629Y-274853D01*
X70750Y-274879D01*
X70905Y-274888D01*
X67510D01*
X67678Y-274879D01*
X67846Y-274853D01*
X68015Y-274811D01*
X68184Y-274750D01*
X68353Y-274673D01*
X68523Y-274578D01*
X68693Y-274466D01*
X68864Y-274337D01*
X69036Y-274191D01*
X69208Y-274027D01*
X70905D01*
X70750Y-274191D01*
D02*
G37*
G36*
X50537Y-271598D02*
X50345Y-272060D01*
X33367D01*
X33342Y-272039D01*
X33074Y-271685D01*
X33295Y-271330D01*
X33299Y-271325D01*
X33909Y-270581D01*
X34555Y-269374D01*
X34952Y-268063D01*
X35086Y-266700D01*
X34952Y-265337D01*
X34593Y-264153D01*
X34846Y-263653D01*
X35053D01*
Y-261340D01*
X40278D01*
X50537Y-271598D01*
D02*
G37*
G36*
X180516Y-225531D02*
X180563Y-225753D01*
X180641Y-225985D01*
X180751Y-226228D01*
X180892Y-226480D01*
X181064Y-226742D01*
X181268Y-227015D01*
X181769Y-227589D01*
X182067Y-227891D01*
X177933D01*
X178231Y-227589D01*
X178732Y-227015D01*
X178936Y-226742D01*
X179108Y-226480D01*
X179249Y-226228D01*
X179359Y-225985D01*
X179437Y-225753D01*
X179484Y-225531D01*
X179500Y-225318D01*
X180500D01*
X180516Y-225531D01*
D02*
G37*
G36*
X22411Y-178231D02*
X22985Y-178732D01*
X23258Y-178936D01*
X23520Y-179108D01*
X23772Y-179249D01*
X24015Y-179359D01*
X24247Y-179437D01*
X24469Y-179484D01*
X24682Y-179500D01*
Y-180500D01*
X24469Y-180516D01*
X24247Y-180563D01*
X24015Y-180641D01*
X23772Y-180751D01*
X23520Y-180892D01*
X23258Y-181064D01*
X22985Y-181268D01*
X22411Y-181769D01*
X22109Y-182067D01*
Y-177933D01*
X22411Y-178231D01*
D02*
G37*
G36*
X217891Y-182067D02*
X217589Y-181769D01*
X217015Y-181268D01*
X216742Y-181064D01*
X216480Y-180892D01*
X216228Y-180751D01*
X215985Y-180641D01*
X215753Y-180563D01*
X215531Y-180516D01*
X215318Y-180500D01*
Y-179500D01*
X215531Y-179484D01*
X215753Y-179437D01*
X215985Y-179359D01*
X216228Y-179249D01*
X216480Y-179108D01*
X216742Y-178936D01*
X217015Y-178732D01*
X217589Y-178231D01*
X217891Y-177933D01*
Y-182067D01*
D02*
G37*
G36*
Y-192067D02*
X217589Y-191769D01*
X217015Y-191268D01*
X216742Y-191064D01*
X216480Y-190892D01*
X216228Y-190751D01*
X215985Y-190641D01*
X215753Y-190563D01*
X215531Y-190516D01*
X215318Y-190500D01*
Y-189500D01*
X215531Y-189484D01*
X215753Y-189437D01*
X215985Y-189359D01*
X216228Y-189249D01*
X216480Y-189108D01*
X216742Y-188936D01*
X217015Y-188732D01*
X217589Y-188231D01*
X217891Y-187933D01*
Y-192067D01*
D02*
G37*
G36*
X217071Y-201000D02*
X217061Y-200905D01*
X217031Y-200820D01*
X216980Y-200745D01*
X216909Y-200680D01*
X216818Y-200625D01*
X216707Y-200580D01*
X216575Y-200545D01*
X216424Y-200520D01*
X216251Y-200505D01*
X216059Y-200500D01*
Y-199500D01*
X216251Y-199495D01*
X216424Y-199480D01*
X216575Y-199455D01*
X216707Y-199420D01*
X216818Y-199375D01*
X216909Y-199320D01*
X216980Y-199255D01*
X217031Y-199180D01*
X217061Y-199095D01*
X217071Y-199000D01*
Y-201000D01*
D02*
G37*
G36*
X22411Y-188231D02*
X22985Y-188732D01*
X23258Y-188936D01*
X23520Y-189108D01*
X23772Y-189249D01*
X24015Y-189359D01*
X24247Y-189437D01*
X24469Y-189484D01*
X24682Y-189500D01*
Y-190500D01*
X24469Y-190516D01*
X24247Y-190563D01*
X24015Y-190641D01*
X23772Y-190751D01*
X23520Y-190892D01*
X23258Y-191064D01*
X22985Y-191268D01*
X22411Y-191769D01*
X22109Y-192067D01*
Y-187933D01*
X22411Y-188231D01*
D02*
G37*
G36*
Y-168231D02*
X22985Y-168732D01*
X23258Y-168936D01*
X23520Y-169108D01*
X23772Y-169249D01*
X24015Y-169359D01*
X24247Y-169437D01*
X24469Y-169484D01*
X24682Y-169500D01*
Y-170500D01*
X24469Y-170516D01*
X24247Y-170563D01*
X24015Y-170641D01*
X23772Y-170751D01*
X23520Y-170892D01*
X23258Y-171064D01*
X22985Y-171268D01*
X22411Y-171769D01*
X22109Y-172067D01*
Y-167933D01*
X22411Y-168231D01*
D02*
G37*
G36*
X109710Y-155052D02*
X109702Y-155093D01*
X109695Y-155153D01*
X109680Y-155445D01*
X109673Y-156096D01*
X108673D01*
X108628Y-155029D01*
X109718D01*
X109710Y-155052D01*
D02*
G37*
G36*
X111678D02*
X111670Y-155093D01*
X111664Y-155153D01*
X111649Y-155445D01*
X111642Y-156096D01*
X110642D01*
X110597Y-155029D01*
X111687D01*
X111678Y-155052D01*
D02*
G37*
G36*
X22939Y-159095D02*
X22969Y-159180D01*
X23020Y-159255D01*
X23091Y-159320D01*
X23182Y-159375D01*
X23293Y-159420D01*
X23425Y-159455D01*
X23576Y-159480D01*
X23749Y-159495D01*
X23941Y-159500D01*
Y-160500D01*
X23749Y-160505D01*
X23576Y-160520D01*
X23425Y-160545D01*
X23293Y-160580D01*
X23182Y-160625D01*
X23091Y-160680D01*
X23020Y-160745D01*
X22969Y-160820D01*
X22939Y-160905D01*
X22929Y-161000D01*
Y-159000D01*
X22939Y-159095D01*
D02*
G37*
G36*
X217891Y-172067D02*
X217589Y-171769D01*
X217015Y-171268D01*
X216742Y-171064D01*
X216480Y-170892D01*
X216228Y-170751D01*
X215985Y-170641D01*
X215753Y-170563D01*
X215531Y-170516D01*
X215318Y-170500D01*
Y-169500D01*
X215531Y-169484D01*
X215753Y-169437D01*
X215985Y-169359D01*
X216228Y-169249D01*
X216480Y-169108D01*
X216742Y-168936D01*
X217015Y-168732D01*
X217589Y-168231D01*
X217891Y-167933D01*
Y-172067D01*
D02*
G37*
G36*
Y-162067D02*
X217589Y-161769D01*
X217015Y-161268D01*
X216742Y-161064D01*
X216480Y-160892D01*
X216228Y-160751D01*
X215985Y-160641D01*
X215753Y-160563D01*
X215531Y-160516D01*
X215318Y-160500D01*
Y-159500D01*
X215531Y-159484D01*
X215753Y-159437D01*
X215985Y-159359D01*
X216228Y-159249D01*
X216480Y-159108D01*
X216742Y-158936D01*
X217015Y-158732D01*
X217589Y-158231D01*
X217891Y-157933D01*
Y-162067D01*
D02*
G37*
G36*
X22411Y-198231D02*
X22985Y-198732D01*
X23258Y-198936D01*
X23520Y-199108D01*
X23772Y-199249D01*
X24015Y-199359D01*
X24247Y-199437D01*
X24469Y-199484D01*
X24682Y-199500D01*
Y-200500D01*
X24469Y-200516D01*
X24247Y-200563D01*
X24015Y-200641D01*
X23772Y-200751D01*
X23520Y-200892D01*
X23258Y-201064D01*
X22985Y-201268D01*
X22411Y-201769D01*
X22109Y-202067D01*
Y-197933D01*
X22411Y-198231D01*
D02*
G37*
G36*
X220516Y-225531D02*
X220563Y-225753D01*
X220641Y-225985D01*
X220751Y-226228D01*
X220892Y-226480D01*
X221064Y-226742D01*
X221268Y-227015D01*
X221769Y-227589D01*
X222067Y-227891D01*
X217933D01*
X218231Y-227589D01*
X218732Y-227015D01*
X218936Y-226742D01*
X219108Y-226480D01*
X219249Y-226228D01*
X219359Y-225985D01*
X219437Y-225753D01*
X219484Y-225531D01*
X219500Y-225318D01*
X220500D01*
X220516Y-225531D01*
D02*
G37*
G36*
X50505Y-226252D02*
X50520Y-226424D01*
X50545Y-226575D01*
X50580Y-226707D01*
X50625Y-226818D01*
X50680Y-226909D01*
X50745Y-226980D01*
X50820Y-227031D01*
X50905Y-227061D01*
X51000Y-227071D01*
X49000D01*
X49095Y-227061D01*
X49180Y-227031D01*
X49255Y-226980D01*
X49320Y-226909D01*
X49375Y-226818D01*
X49420Y-226707D01*
X49455Y-226575D01*
X49480Y-226424D01*
X49495Y-226252D01*
X49500Y-226059D01*
X50500D01*
X50505Y-226252D01*
D02*
G37*
G36*
X210516Y-225531D02*
X210563Y-225753D01*
X210641Y-225985D01*
X210751Y-226228D01*
X210892Y-226480D01*
X211064Y-226742D01*
X211268Y-227015D01*
X211769Y-227589D01*
X212067Y-227891D01*
X207933D01*
X208231Y-227589D01*
X208732Y-227015D01*
X208936Y-226742D01*
X209108Y-226480D01*
X209249Y-226228D01*
X209359Y-225985D01*
X209437Y-225753D01*
X209484Y-225531D01*
X209500Y-225318D01*
X210500D01*
X210516Y-225531D01*
D02*
G37*
G36*
X190516D02*
X190563Y-225753D01*
X190641Y-225985D01*
X190751Y-226228D01*
X190892Y-226480D01*
X191064Y-226742D01*
X191268Y-227015D01*
X191769Y-227589D01*
X192067Y-227891D01*
X187933D01*
X188231Y-227589D01*
X188732Y-227015D01*
X188936Y-226742D01*
X189108Y-226480D01*
X189249Y-226228D01*
X189359Y-225985D01*
X189437Y-225753D01*
X189484Y-225531D01*
X189500Y-225318D01*
X190500D01*
X190516Y-225531D01*
D02*
G37*
G36*
X200516D02*
X200563Y-225753D01*
X200641Y-225985D01*
X200751Y-226228D01*
X200892Y-226480D01*
X201064Y-226742D01*
X201268Y-227015D01*
X201769Y-227589D01*
X202067Y-227891D01*
X197933D01*
X198231Y-227589D01*
X198732Y-227015D01*
X198936Y-226742D01*
X199108Y-226480D01*
X199249Y-226228D01*
X199359Y-225985D01*
X199437Y-225753D01*
X199484Y-225531D01*
X199500Y-225318D01*
X200500D01*
X200516Y-225531D01*
D02*
G37*
G36*
X150505Y-226252D02*
X150520Y-226424D01*
X150545Y-226575D01*
X150580Y-226707D01*
X150625Y-226818D01*
X150680Y-226909D01*
X150745Y-226980D01*
X150820Y-227031D01*
X150905Y-227061D01*
X151000Y-227071D01*
X149000D01*
X149095Y-227061D01*
X149180Y-227031D01*
X149255Y-226980D01*
X149320Y-226909D01*
X149375Y-226818D01*
X149420Y-226707D01*
X149455Y-226575D01*
X149480Y-226424D01*
X149495Y-226252D01*
X149500Y-226059D01*
X150500D01*
X150505Y-226252D01*
D02*
G37*
G36*
X24196Y-218511D02*
X24115Y-218604D01*
X24018Y-218738D01*
X23776Y-219130D01*
X23288Y-220027D01*
X22654Y-221293D01*
X21440Y-217422D01*
X21745Y-217579D01*
X22037Y-217700D01*
X22315Y-217787D01*
X22580Y-217838D01*
X22831Y-217854D01*
X23069Y-217835D01*
X23293Y-217781D01*
X23504Y-217692D01*
X23701Y-217568D01*
X23885Y-217408D01*
X24196Y-218511D01*
D02*
G37*
G36*
X22411Y-208231D02*
X22985Y-208732D01*
X23258Y-208936D01*
X23520Y-209108D01*
X23772Y-209249D01*
X24015Y-209359D01*
X24247Y-209437D01*
X24469Y-209484D01*
X24682Y-209500D01*
Y-210500D01*
X24469Y-210516D01*
X24247Y-210563D01*
X24015Y-210641D01*
X23772Y-210751D01*
X23520Y-210892D01*
X23258Y-211064D01*
X22985Y-211268D01*
X22411Y-211769D01*
X22109Y-212067D01*
Y-207933D01*
X22411Y-208231D01*
D02*
G37*
G36*
X96080Y-168001D02*
X46791Y-217291D01*
X46069Y-218231D01*
X45881Y-218684D01*
X45616Y-219325D01*
X45461Y-220500D01*
Y-220602D01*
X33970D01*
X33779Y-220140D01*
X86380Y-167539D01*
X95889D01*
X96080Y-168001D01*
D02*
G37*
G36*
X115461Y-195611D02*
Y-224627D01*
X115343Y-224762D01*
X115314Y-224784D01*
X115037Y-224844D01*
X114964Y-224844D01*
X114686Y-224784D01*
X114657Y-224762D01*
X114539Y-224627D01*
Y-195880D01*
X114999Y-195420D01*
X115461Y-195611D01*
D02*
G37*
G36*
X155461Y-195880D02*
Y-223047D01*
X154539D01*
Y-195611D01*
X155001Y-195420D01*
X155461Y-195880D01*
D02*
G37*
G36*
X64808Y-283881D02*
X64786Y-283874D01*
X64740Y-283867D01*
X64671Y-283862D01*
X64169Y-283847D01*
X63552Y-283843D01*
Y-282643D01*
X64808Y-282606D01*
Y-283881D01*
D02*
G37*
G36*
X146140Y-299422D02*
X145704Y-299953D01*
X145078Y-301126D01*
X144692Y-302398D01*
X144561Y-303721D01*
X144573Y-303838D01*
X144237Y-304209D01*
X130040D01*
X129879Y-303735D01*
X130081Y-303581D01*
X131034Y-302628D01*
X131034Y-302628D01*
X131771Y-301667D01*
X132190Y-300656D01*
X133918D01*
Y-298922D01*
X145904D01*
X146140Y-299422D01*
D02*
G37*
G36*
X64808Y-301794D02*
X64786Y-301787D01*
X64740Y-301781D01*
X64671Y-301775D01*
X64169Y-301760D01*
X63552Y-301757D01*
Y-300557D01*
X64808Y-300519D01*
Y-301794D01*
D02*
G37*
G36*
X99414Y-303085D02*
X99460Y-303092D01*
X99528Y-303097D01*
X100031Y-303112D01*
X100648Y-303116D01*
Y-304316D01*
X99392Y-304353D01*
Y-303078D01*
X99414Y-303085D01*
D02*
G37*
G36*
X102402Y-304906D02*
X102284Y-304794D01*
X102161Y-304693D01*
X102033Y-304605D01*
X101901Y-304528D01*
X101763Y-304463D01*
X101621Y-304410D01*
X101474Y-304369D01*
X101323Y-304339D01*
X101166Y-304322D01*
X101005Y-304316D01*
Y-303116D01*
X101166Y-303110D01*
X101323Y-303092D01*
X101474Y-303063D01*
X101621Y-303021D01*
X101763Y-302968D01*
X101901Y-302903D01*
X102033Y-302827D01*
X102161Y-302738D01*
X102284Y-302638D01*
X102402Y-302526D01*
Y-304906D01*
D02*
G37*
G36*
X64808Y-304353D02*
X64786Y-304346D01*
X64740Y-304340D01*
X64671Y-304334D01*
X64169Y-304319D01*
X63552Y-304316D01*
Y-303116D01*
X64808Y-303078D01*
Y-304353D01*
D02*
G37*
G36*
X91974Y-301794D02*
X91951Y-301787D01*
X91905Y-301781D01*
X91837Y-301775D01*
X91334Y-301760D01*
X90717Y-301757D01*
Y-300557D01*
X91974Y-300519D01*
Y-301794D01*
D02*
G37*
G36*
X64808Y-299235D02*
X64786Y-299228D01*
X64740Y-299222D01*
X64671Y-299216D01*
X64169Y-299201D01*
X63552Y-299198D01*
Y-297998D01*
X64808Y-297960D01*
Y-299235D01*
D02*
G37*
G36*
X128440Y-294647D02*
X128422Y-294725D01*
X128405Y-294840D01*
X128380Y-295184D01*
X128354Y-296632D01*
X128953D01*
X128839Y-296644D01*
X128737Y-296680D01*
X128647Y-296741D01*
X128569Y-296826D01*
X128503Y-296935D01*
X128449Y-297068D01*
X128407Y-297226D01*
X128377Y-297408D01*
X128359Y-297614D01*
X128353Y-297844D01*
X127153D01*
X127147Y-297614D01*
X127129Y-297408D01*
X127099Y-297226D01*
X127057Y-297068D01*
X127003Y-296935D01*
X126937Y-296826D01*
X126859Y-296741D01*
X126769Y-296680D01*
X126667Y-296644D01*
X126553Y-296632D01*
X127149D01*
X127045Y-294607D01*
X128460D01*
X128440Y-294647D01*
D02*
G37*
G36*
X31080Y-296762D02*
X31141Y-297021D01*
X31227Y-297250D01*
X31337Y-297448D01*
X31473Y-297616D01*
X31634Y-297754D01*
X31819Y-297860D01*
X32029Y-297937D01*
X32264Y-297982D01*
X32524Y-297998D01*
X32134Y-299198D01*
X31818Y-299202D01*
X30495Y-299296D01*
X30150Y-299339D01*
X28708Y-299589D01*
X31044Y-296472D01*
X31080Y-296762D01*
D02*
G37*
G36*
X107590Y-299251D02*
X107706Y-299345D01*
X107828Y-299428D01*
X107955Y-299500D01*
X108088Y-299561D01*
X108225Y-299611D01*
X108368Y-299650D01*
X108516Y-299678D01*
X108669Y-299694D01*
X108827Y-299700D01*
Y-300900D01*
X108669Y-300905D01*
X108516Y-300922D01*
X108368Y-300950D01*
X108225Y-300989D01*
X108088Y-301039D01*
X107955Y-301100D01*
X107828Y-301172D01*
X107706Y-301255D01*
X107590Y-301349D01*
X107478Y-301455D01*
Y-299145D01*
X107590Y-299251D01*
D02*
G37*
G36*
X105053Y-298197D02*
X105173Y-298293D01*
X105298Y-298378D01*
X105426Y-298452D01*
X105558Y-298514D01*
X105695Y-298564D01*
X105836Y-298603D01*
X105981Y-298630D01*
X106130Y-298646D01*
X106283Y-298650D01*
X104650Y-300284D01*
X104646Y-300130D01*
X104630Y-299981D01*
X104603Y-299836D01*
X104564Y-299695D01*
X104514Y-299558D01*
X104452Y-299426D01*
X104378Y-299297D01*
X104293Y-299173D01*
X104197Y-299053D01*
X104089Y-298937D01*
X104937Y-298089D01*
X105053Y-298197D01*
D02*
G37*
G36*
X160166Y-306275D02*
X159903Y-306181D01*
X159651Y-306113D01*
X159409Y-306072D01*
X159179Y-306058D01*
X158960Y-306070D01*
X158752Y-306109D01*
X158555Y-306174D01*
X158369Y-306266D01*
X158194Y-306385D01*
X158030Y-306530D01*
X157283Y-305156D01*
X157419Y-305010D01*
X157554Y-304842D01*
X157688Y-304654D01*
X157956Y-304215D01*
X158089Y-303964D01*
X158483Y-303086D01*
X158613Y-302751D01*
X160166Y-306275D01*
D02*
G37*
G36*
X60356Y-308731D02*
X60343Y-308834D01*
X60504Y-310058D01*
X60571Y-310219D01*
X43931Y-326859D01*
X42654Y-327408D01*
X42315Y-327532D01*
X42310Y-327535D01*
X42303Y-327537D01*
X42193Y-327595D01*
X42026Y-327645D01*
X40819Y-328291D01*
X39760Y-329160D01*
X39705Y-329162D01*
X39340Y-328796D01*
Y-326622D01*
X57606Y-308355D01*
X60027D01*
X60356Y-308731D01*
D02*
G37*
G36*
X172887Y-313562D02*
X172981Y-314007D01*
X173138Y-314472D01*
X173357Y-314956D01*
X173639Y-315461D01*
X173984Y-315986D01*
X174391Y-316530D01*
X175394Y-317679D01*
X175990Y-318283D01*
X167722D01*
X168317Y-317679D01*
X169320Y-316530D01*
X169728Y-315986D01*
X170072Y-315461D01*
X170354Y-314956D01*
X170574Y-314472D01*
X170730Y-314007D01*
X170825Y-313562D01*
X170856Y-313137D01*
X172856D01*
X172887Y-313562D01*
D02*
G37*
G36*
X58489Y-331159D02*
X58250Y-331406D01*
X57875Y-331849D01*
X57738Y-332045D01*
X57635Y-332223D01*
X57566Y-332384D01*
X57530Y-332528D01*
X57529Y-332655D01*
X57562Y-332764D01*
X57629Y-332856D01*
X55944Y-331171D01*
X56036Y-331238D01*
X56145Y-331271D01*
X56272Y-331270D01*
X56416Y-331234D01*
X56577Y-331165D01*
X56755Y-331062D01*
X56951Y-330925D01*
X57164Y-330754D01*
X57641Y-330311D01*
X58489Y-331159D01*
D02*
G37*
G36*
X47719Y-330481D02*
X47555Y-330668D01*
X47422Y-330871D01*
X47319Y-331089D01*
X47247Y-331322D01*
X47205Y-331571D01*
X47195Y-331836D01*
X47215Y-332115D01*
X47265Y-332411D01*
X47347Y-332722D01*
X47459Y-333048D01*
X43703Y-331321D01*
X44147Y-331158D01*
X45834Y-330432D01*
X46065Y-330304D01*
X46422Y-330066D01*
X46548Y-329955D01*
X47719Y-330481D01*
D02*
G37*
G36*
X35315Y-329664D02*
X35359Y-329897D01*
X35432Y-330136D01*
X35535Y-330382D01*
X35667Y-330634D01*
X35828Y-330892D01*
X36019Y-331157D01*
X36239Y-331429D01*
X36767Y-331991D01*
X32633D01*
X32912Y-331707D01*
X33381Y-331157D01*
X33572Y-330892D01*
X33733Y-330634D01*
X33865Y-330382D01*
X33968Y-330136D01*
X34041Y-329897D01*
X34085Y-329664D01*
X34100Y-329437D01*
X35300D01*
X35315Y-329664D01*
D02*
G37*
G36*
X46580Y-306258D02*
X31419Y-321419D01*
X30682Y-322380D01*
X30546Y-322708D01*
X30218Y-323499D01*
X30139Y-324100D01*
X30060Y-324700D01*
X30060Y-324700D01*
Y-328834D01*
X29934Y-328981D01*
X29752Y-329167D01*
X29729Y-329197D01*
X28891Y-330219D01*
X28245Y-331426D01*
X28024Y-332156D01*
X27539Y-332278D01*
X17740Y-322478D01*
Y-308555D01*
X18202Y-308363D01*
X19819Y-309981D01*
X19819Y-309981D01*
X20300Y-310349D01*
X20780Y-310718D01*
X21340Y-310950D01*
X21899Y-311182D01*
X22039Y-311200D01*
X22785Y-311298D01*
X22981Y-311466D01*
X23167Y-311648D01*
X23197Y-311671D01*
X24219Y-312509D01*
X25426Y-313155D01*
X26737Y-313552D01*
X28100Y-313686D01*
X29463Y-313552D01*
X30774Y-313155D01*
X31981Y-312509D01*
X33040Y-311640D01*
X33909Y-310581D01*
X34555Y-309374D01*
X34952Y-308063D01*
X35086Y-306700D01*
X35034Y-306167D01*
X35370Y-305796D01*
X46389D01*
X46580Y-306258D01*
D02*
G37*
G36*
X72249Y-305644D02*
X72295Y-305651D01*
X72363Y-305656D01*
X72866Y-305671D01*
X73483Y-305675D01*
Y-306875D01*
X72226Y-306912D01*
Y-305637D01*
X72249Y-305644D01*
D02*
G37*
G36*
X154056Y-303131D02*
X154424Y-303980D01*
X154553Y-304226D01*
X154821Y-304664D01*
X154959Y-304856D01*
X155100Y-305029D01*
X155245Y-305184D01*
X154470Y-306530D01*
X154306Y-306385D01*
X154133Y-306267D01*
X153950Y-306174D01*
X153756Y-306109D01*
X153552Y-306069D01*
X153338Y-306056D01*
X153114Y-306070D01*
X152880Y-306109D01*
X152636Y-306175D01*
X152382Y-306268D01*
X153939Y-302812D01*
X154056Y-303131D01*
D02*
G37*
G36*
X25991Y-308767D02*
X25707Y-308488D01*
X25157Y-308019D01*
X24893Y-307828D01*
X24634Y-307667D01*
X24382Y-307535D01*
X24136Y-307432D01*
X23897Y-307359D01*
X23664Y-307315D01*
X23437Y-307300D01*
Y-306100D01*
X23664Y-306085D01*
X23897Y-306041D01*
X24136Y-305968D01*
X24382Y-305865D01*
X24634Y-305733D01*
X24893Y-305572D01*
X25157Y-305381D01*
X25429Y-305161D01*
X25991Y-304633D01*
Y-308767D01*
D02*
G37*
G36*
X98301Y-309523D02*
X98151Y-309555D01*
X98044Y-309609D01*
X97979Y-309684D01*
X97958Y-309780D01*
X97979Y-309898D01*
X98044Y-310038D01*
X98151Y-310199D01*
X98301Y-310381D01*
X98494Y-310585D01*
X96373D01*
X96159Y-310381D01*
X95945Y-310199D01*
X95732Y-310038D01*
X95519Y-309898D01*
X95306Y-309780D01*
X95094Y-309684D01*
X94883Y-309609D01*
X94672Y-309555D01*
X94462Y-309523D01*
X94252Y-309512D01*
X98494D01*
X98301Y-309523D01*
D02*
G37*
G36*
X69357Y-309521D02*
X69189Y-309546D01*
X69020Y-309590D01*
X68851Y-309650D01*
X68682Y-309727D01*
X68512Y-309822D01*
X68341Y-309934D01*
X68170Y-310063D01*
X67999Y-310209D01*
X67827Y-310373D01*
X66130D01*
X66285Y-310209D01*
X66405Y-310063D01*
X66492Y-309934D01*
X66543Y-309822D01*
X66560Y-309727D01*
X66543Y-309650D01*
X66492Y-309590D01*
X66405Y-309546D01*
X66285Y-309521D01*
X66130Y-309512D01*
X69524D01*
X69357Y-309521D01*
D02*
G37*
G36*
X163944Y-294162D02*
X163970Y-294410D01*
X164015Y-294652D01*
X164080Y-294887D01*
X164164Y-295115D01*
X164267Y-295336D01*
X164389Y-295550D01*
X164531Y-295757D01*
X164692Y-295957D01*
X164872Y-296150D01*
X163458Y-297564D01*
X163265Y-297384D01*
X163064Y-297223D01*
X162857Y-297081D01*
X162644Y-296959D01*
X162423Y-296856D01*
X162195Y-296772D01*
X161960Y-296707D01*
X161718Y-296662D01*
X161470Y-296636D01*
X161214Y-296629D01*
X163936Y-293906D01*
X163944Y-294162D01*
D02*
G37*
G36*
X128839Y-288544D02*
X128737Y-288580D01*
X128647Y-288641D01*
X128569Y-288726D01*
X128503Y-288835D01*
X128449Y-288968D01*
X128407Y-289126D01*
X128377Y-289308D01*
X128359Y-289514D01*
X128353Y-289744D01*
X127153D01*
X127147Y-289514D01*
X127129Y-289308D01*
X127099Y-289126D01*
X127057Y-288968D01*
X127003Y-288835D01*
X126937Y-288726D01*
X126859Y-288641D01*
X126769Y-288580D01*
X126667Y-288544D01*
X126553Y-288532D01*
X128953D01*
X128839Y-288544D01*
D02*
G37*
G36*
X64808Y-288999D02*
X64786Y-288992D01*
X64740Y-288985D01*
X64671Y-288980D01*
X64169Y-288965D01*
X63552Y-288961D01*
Y-287761D01*
X64808Y-287724D01*
Y-288999D01*
D02*
G37*
G36*
X28071Y-289653D02*
X27672Y-289657D01*
X26952Y-289713D01*
X26630Y-289766D01*
X26333Y-289834D01*
X26061Y-289919D01*
X25815Y-290021D01*
X25594Y-290138D01*
X25398Y-290272D01*
X25227Y-290421D01*
X24379Y-289573D01*
X24528Y-289402D01*
X24662Y-289207D01*
X24779Y-288985D01*
X24881Y-288739D01*
X24965Y-288467D01*
X25034Y-288170D01*
X25087Y-287848D01*
X25123Y-287501D01*
X25147Y-286730D01*
X28071Y-289653D01*
D02*
G37*
G36*
X72249Y-290290D02*
X72295Y-290296D01*
X72363Y-290302D01*
X72866Y-290317D01*
X73483Y-290320D01*
Y-291521D01*
X72226Y-291558D01*
Y-290283D01*
X72249Y-290290D01*
D02*
G37*
G36*
X99414D02*
X99460Y-290296D01*
X99528Y-290302D01*
X100031Y-290317D01*
X100648Y-290320D01*
Y-291521D01*
X99392Y-291558D01*
Y-290283D01*
X99414Y-290290D01*
D02*
G37*
G36*
Y-287731D02*
X99460Y-287737D01*
X99528Y-287743D01*
X100031Y-287758D01*
X100648Y-287761D01*
Y-288961D01*
X99392Y-288999D01*
Y-287724D01*
X99414Y-287731D01*
D02*
G37*
G36*
X72249Y-285172D02*
X72295Y-285178D01*
X72363Y-285184D01*
X72866Y-285199D01*
X73483Y-285202D01*
Y-286402D01*
X72226Y-286440D01*
Y-285165D01*
X72249Y-285172D01*
D02*
G37*
G36*
X60018Y-282137D02*
X60147Y-282243D01*
X60280Y-282337D01*
X60418Y-282418D01*
X60560Y-282487D01*
X60707Y-282543D01*
X60858Y-282587D01*
X61013Y-282618D01*
X61173Y-282637D01*
X61337Y-282643D01*
Y-283843D01*
X61173Y-283850D01*
X61013Y-283868D01*
X60858Y-283900D01*
X60707Y-283943D01*
X60560Y-284000D01*
X60418Y-284068D01*
X60280Y-284150D01*
X60147Y-284243D01*
X60018Y-284350D01*
X59893Y-284468D01*
Y-282018D01*
X60018Y-282137D01*
D02*
G37*
G36*
X119706Y-287000D02*
X119694Y-286886D01*
X119657Y-286784D01*
X119597Y-286694D01*
X119512Y-286616D01*
X119403Y-286550D01*
X119270Y-286496D01*
X119112Y-286454D01*
X118930Y-286424D01*
X118724Y-286406D01*
X118494Y-286400D01*
Y-285200D01*
X118724Y-285194D01*
X118930Y-285176D01*
X119112Y-285146D01*
X119270Y-285104D01*
X119403Y-285050D01*
X119512Y-284984D01*
X119597Y-284906D01*
X119657Y-284816D01*
X119694Y-284714D01*
X119706Y-284600D01*
Y-287000D01*
D02*
G37*
G36*
X106794Y-288544D02*
X106841Y-288546D01*
X106877Y-288554D01*
X106904Y-288566D01*
X106920Y-288583D01*
X106927Y-288604D01*
X106924Y-288631D01*
X106910Y-288662D01*
X106887Y-288699D01*
X106853Y-288740D01*
X106810Y-288786D01*
X105962Y-287937D01*
X106794Y-287137D01*
Y-288544D01*
D02*
G37*
G36*
X117006Y-284714D02*
X117043Y-284816D01*
X117103Y-284906D01*
X117188Y-284984D01*
X117297Y-285050D01*
X117430Y-285104D01*
X117588Y-285146D01*
X117770Y-285176D01*
X117976Y-285194D01*
X118206Y-285200D01*
Y-286400D01*
X117976Y-286406D01*
X117770Y-286424D01*
X117588Y-286454D01*
X117430Y-286496D01*
X117297Y-286550D01*
X117188Y-286616D01*
X117103Y-286694D01*
X117043Y-286784D01*
X117006Y-286886D01*
X116994Y-287000D01*
Y-284600D01*
X117006Y-284714D01*
D02*
G37*
G36*
X64808Y-291558D02*
X64786Y-291551D01*
X64740Y-291545D01*
X64671Y-291539D01*
X64169Y-291524D01*
X63552Y-291521D01*
Y-290320D01*
X64808Y-290283D01*
Y-291558D01*
D02*
G37*
G36*
X149380Y-295804D02*
X149195Y-295628D01*
X149000Y-295471D01*
X148797Y-295332D01*
X148585Y-295212D01*
X148365Y-295110D01*
X148136Y-295027D01*
X147898Y-294962D01*
X147651Y-294916D01*
X147396Y-294888D01*
X147132Y-294879D01*
Y-292879D01*
X147396Y-292869D01*
X147651Y-292842D01*
X147898Y-292795D01*
X148136Y-292731D01*
X148365Y-292648D01*
X148585Y-292546D01*
X148797Y-292425D01*
X149000Y-292287D01*
X149195Y-292129D01*
X149380Y-291954D01*
Y-295804D01*
D02*
G37*
G36*
X116906Y-292814D02*
X116943Y-292916D01*
X117003Y-293006D01*
X117088Y-293084D01*
X117197Y-293150D01*
X117330Y-293204D01*
X117488Y-293246D01*
X117670Y-293276D01*
X117876Y-293294D01*
X118106Y-293300D01*
Y-294500D01*
X117876Y-294506D01*
X117670Y-294524D01*
X117488Y-294554D01*
X117330Y-294596D01*
X117197Y-294650D01*
X117088Y-294716D01*
X117003Y-294794D01*
X116943Y-294884D01*
X116906Y-294986D01*
X116894Y-295100D01*
Y-292700D01*
X116906Y-292814D01*
D02*
G37*
G36*
X129926Y-292069D02*
X129986Y-292239D01*
X130086Y-292389D01*
X130226Y-292519D01*
X130406Y-292629D01*
X130626Y-292719D01*
X130886Y-292789D01*
X131186Y-292839D01*
X131526Y-292869D01*
X131906Y-292879D01*
Y-294879D01*
X131526Y-294889D01*
X131186Y-294919D01*
X130886Y-294969D01*
X130626Y-295039D01*
X130406Y-295129D01*
X130226Y-295239D01*
X130086Y-295369D01*
X129986Y-295519D01*
X129926Y-295689D01*
X129906Y-295879D01*
Y-291879D01*
X129926Y-292069D01*
D02*
G37*
G36*
X72249Y-295408D02*
X72295Y-295414D01*
X72363Y-295420D01*
X72866Y-295435D01*
X73483Y-295439D01*
Y-296639D01*
X72226Y-296676D01*
Y-295401D01*
X72249Y-295408D01*
D02*
G37*
G36*
X99414D02*
X99460Y-295414D01*
X99528Y-295420D01*
X100031Y-295435D01*
X100648Y-295439D01*
Y-296639D01*
X99392Y-296676D01*
Y-295401D01*
X99414Y-295408D01*
D02*
G37*
G36*
X119706Y-295100D02*
X119694Y-294986D01*
X119657Y-294884D01*
X119597Y-294794D01*
X119512Y-294716D01*
X119403Y-294650D01*
X119270Y-294596D01*
X119112Y-294554D01*
X118930Y-294524D01*
X118724Y-294506D01*
X118494Y-294500D01*
Y-293300D01*
X118724Y-293294D01*
X118930Y-293276D01*
X119112Y-293246D01*
X119270Y-293204D01*
X119403Y-293150D01*
X119512Y-293084D01*
X119597Y-293006D01*
X119657Y-292916D01*
X119694Y-292814D01*
X119706Y-292700D01*
Y-295100D01*
D02*
G37*
G36*
X128359Y-290186D02*
X128377Y-290392D01*
X128407Y-290574D01*
X128449Y-290732D01*
X128503Y-290865D01*
X128569Y-290974D01*
X128647Y-291059D01*
X128737Y-291120D01*
X128839Y-291156D01*
X128953Y-291168D01*
X128356D01*
X128460Y-293193D01*
X127045D01*
X127066Y-293153D01*
X127084Y-293075D01*
X127100Y-292960D01*
X127126Y-292616D01*
X127152Y-291168D01*
X126553D01*
X126667Y-291156D01*
X126769Y-291120D01*
X126859Y-291059D01*
X126937Y-290974D01*
X127003Y-290865D01*
X127057Y-290732D01*
X127099Y-290574D01*
X127129Y-290392D01*
X127147Y-290186D01*
X127153Y-289956D01*
X128353D01*
X128359Y-290186D01*
D02*
G37*
G36*
X60095Y-289814D02*
X60224Y-289920D01*
X60357Y-290014D01*
X60495Y-290095D01*
X60638Y-290164D01*
X60784Y-290220D01*
X60935Y-290264D01*
X61090Y-290296D01*
X61250Y-290314D01*
X61414Y-290320D01*
Y-291521D01*
X61250Y-291527D01*
X61090Y-291546D01*
X60935Y-291577D01*
X60784Y-291620D01*
X60638Y-291677D01*
X60495Y-291745D01*
X60357Y-291827D01*
X60224Y-291920D01*
X60095Y-292027D01*
X59970Y-292145D01*
Y-289696D01*
X60095Y-289814D01*
D02*
G37*
G36*
X106448Y-290743D02*
X106896Y-291124D01*
X107089Y-291257D01*
X107260Y-291352D01*
X107410Y-291409D01*
X107539Y-291428D01*
X107648Y-291409D01*
X107735Y-291352D01*
X107800Y-291256D01*
X106694Y-293544D01*
X106735Y-293424D01*
X106748Y-293293D01*
X106734Y-293151D01*
X106691Y-292998D01*
X106620Y-292833D01*
X106521Y-292658D01*
X106394Y-292472D01*
X106239Y-292275D01*
X106056Y-292066D01*
X105845Y-291847D01*
X106192Y-290496D01*
X106448Y-290743D01*
D02*
G37*
G36*
X91974Y-294117D02*
X91951Y-294110D01*
X91905Y-294104D01*
X91837Y-294098D01*
X91334Y-294083D01*
X90717Y-294079D01*
Y-292880D01*
X91974Y-292842D01*
Y-294117D01*
D02*
G37*
G36*
X51319Y-290281D02*
X51319Y-290281D01*
X51863Y-290698D01*
X52280Y-291018D01*
X53399Y-291482D01*
X54168Y-291583D01*
X54239Y-292121D01*
X54702Y-293240D01*
X54909Y-293510D01*
X54688Y-293958D01*
X34518D01*
X33909Y-292819D01*
X33299Y-292075D01*
X33076Y-291700D01*
X33299Y-291325D01*
X33909Y-290581D01*
X34555Y-289374D01*
X34952Y-288063D01*
X35086Y-286700D01*
X35413Y-286340D01*
X47378D01*
X51319Y-290281D01*
D02*
G37*
G36*
X123498Y-104971D02*
X122408D01*
X122416Y-104948D01*
X122424Y-104907D01*
X122431Y-104847D01*
X122446Y-104555D01*
X122453Y-103904D01*
X123453D01*
X123498Y-104971D01*
D02*
G37*
G36*
X131372D02*
X130282D01*
X130290Y-104948D01*
X130298Y-104907D01*
X130305Y-104847D01*
X130320Y-104555D01*
X130327Y-103904D01*
X131327D01*
X131372Y-104971D01*
D02*
G37*
G36*
X22956Y-100454D02*
X23007Y-101215D01*
X23056Y-101551D01*
X23120Y-101858D01*
X23198Y-102137D01*
X23292Y-102385D01*
X23401Y-102605D01*
X23525Y-102796D01*
X23664Y-102957D01*
X22957Y-103664D01*
X22796Y-103525D01*
X22605Y-103401D01*
X22386Y-103292D01*
X22137Y-103198D01*
X21858Y-103120D01*
X21551Y-103056D01*
X21215Y-103007D01*
X20454Y-102956D01*
X20030Y-102953D01*
X22953Y-100030D01*
X22956Y-100454D01*
D02*
G37*
G36*
X117592Y-104971D02*
X116502D01*
X116511Y-104948D01*
X116518Y-104907D01*
X116525Y-104847D01*
X116540Y-104555D01*
X116547Y-103904D01*
X117547D01*
X117592Y-104971D01*
D02*
G37*
G36*
X119561D02*
X118471D01*
X118479Y-104948D01*
X118487Y-104907D01*
X118494Y-104847D01*
X118509Y-104555D01*
X118516Y-103904D01*
X119516D01*
X119561Y-104971D01*
D02*
G37*
G36*
X121529D02*
X120439D01*
X120448Y-104948D01*
X120456Y-104907D01*
X120462Y-104847D01*
X120477Y-104555D01*
X120484Y-103904D01*
X121484D01*
X121529Y-104971D01*
D02*
G37*
G36*
X22956Y-90454D02*
X23007Y-91215D01*
X23056Y-91551D01*
X23120Y-91858D01*
X23198Y-92137D01*
X23292Y-92386D01*
X23401Y-92605D01*
X23525Y-92796D01*
X23664Y-92957D01*
X22957Y-93664D01*
X22796Y-93525D01*
X22605Y-93401D01*
X22386Y-93292D01*
X22137Y-93198D01*
X21858Y-93120D01*
X21551Y-93056D01*
X21215Y-93007D01*
X20454Y-92956D01*
X20030Y-92953D01*
X22953Y-90030D01*
X22956Y-90454D01*
D02*
G37*
G36*
X217891Y-92067D02*
X217589Y-91769D01*
X217015Y-91268D01*
X216742Y-91064D01*
X216480Y-90892D01*
X216228Y-90751D01*
X215985Y-90641D01*
X215753Y-90563D01*
X215531Y-90516D01*
X215318Y-90500D01*
Y-89500D01*
X215531Y-89484D01*
X215753Y-89437D01*
X215985Y-89359D01*
X216228Y-89249D01*
X216480Y-89108D01*
X216742Y-88936D01*
X217015Y-88732D01*
X217589Y-88231D01*
X217891Y-87933D01*
Y-92067D01*
D02*
G37*
G36*
X118123Y-86864D02*
X118002Y-87011D01*
X117896Y-87160D01*
X117803Y-87309D01*
X117725Y-87458D01*
X117661Y-87608D01*
X117611Y-87758D01*
X117576Y-87909D01*
X117554Y-88060D01*
X117547Y-88212D01*
X116547Y-88240D01*
X116540Y-88087D01*
X116518Y-87935D01*
X116481Y-87785D01*
X116429Y-87636D01*
X116363Y-87490D01*
X116281Y-87345D01*
X116186Y-87201D01*
X116075Y-87060D01*
X115949Y-86920D01*
X115809Y-86782D01*
X118258Y-86716D01*
X118123Y-86864D01*
D02*
G37*
G36*
X108043Y-101359D02*
X107809Y-102087D01*
X107772Y-102250D01*
X107721Y-102550D01*
X107709Y-102689D01*
X107705Y-102819D01*
X106705Y-103288D01*
X106696Y-103125D01*
X106672Y-102973D01*
X106631Y-102831D01*
X106573Y-102701D01*
X106499Y-102580D01*
X106409Y-102470D01*
X106302Y-102371D01*
X106178Y-102283D01*
X106038Y-102205D01*
X105882Y-102137D01*
X108122Y-101157D01*
X108043Y-101359D01*
D02*
G37*
G36*
X103087Y-101892D02*
X102964Y-102036D01*
X102855Y-102181D01*
X102761Y-102327D01*
X102681Y-102474D01*
X102616Y-102623D01*
X102565Y-102772D01*
X102529Y-102923D01*
X102507Y-103074D01*
X102500Y-103227D01*
X101500D01*
X101493Y-103074D01*
X101471Y-102923D01*
X101435Y-102772D01*
X101384Y-102623D01*
X101319Y-102474D01*
X101239Y-102327D01*
X101145Y-102181D01*
X101036Y-102036D01*
X100913Y-101892D01*
X100775Y-101750D01*
X103225D01*
X103087Y-101892D01*
D02*
G37*
G36*
X217071Y-101000D02*
X217061Y-100905D01*
X217031Y-100820D01*
X216980Y-100745D01*
X216909Y-100680D01*
X216818Y-100625D01*
X216707Y-100580D01*
X216575Y-100545D01*
X216424Y-100520D01*
X216251Y-100505D01*
X216059Y-100500D01*
Y-99500D01*
X216251Y-99495D01*
X216424Y-99480D01*
X216575Y-99455D01*
X216707Y-99420D01*
X216818Y-99375D01*
X216909Y-99320D01*
X216980Y-99255D01*
X217031Y-99180D01*
X217061Y-99095D01*
X217071Y-99000D01*
Y-101000D01*
D02*
G37*
G36*
X135352Y-107245D02*
X135382Y-107330D01*
X135433Y-107405D01*
X135504Y-107470D01*
X135595Y-107525D01*
X135706Y-107570D01*
X135837Y-107605D01*
X135989Y-107630D01*
X136161Y-107645D01*
X136354Y-107650D01*
Y-108650D01*
X136161Y-108655D01*
X135989Y-108670D01*
X135837Y-108695D01*
X135706Y-108730D01*
X135595Y-108775D01*
X135504Y-108830D01*
X135433Y-108895D01*
X135382Y-108970D01*
X135352Y-109055D01*
X135342Y-109150D01*
Y-107150D01*
X135352Y-107245D01*
D02*
G37*
G36*
X96398Y-102001D02*
X96977Y-103400D01*
X97461Y-104030D01*
Y-105000D01*
X97616Y-106175D01*
X98069Y-107269D01*
X98776Y-108191D01*
X98176Y-108791D01*
X98123D01*
X97183Y-108069D01*
X96088Y-107616D01*
X94913Y-107461D01*
X94030D01*
X93400Y-106977D01*
X92001Y-106398D01*
X90500Y-106200D01*
X88999Y-106398D01*
X87600Y-106977D01*
X86799Y-107592D01*
X86769Y-107569D01*
X86316Y-107381D01*
X85675Y-107116D01*
X84500Y-106961D01*
X43380D01*
X38420Y-102001D01*
X38611Y-101539D01*
X96337D01*
X96398Y-102001D01*
D02*
G37*
G36*
X108595Y-107644D02*
X108602Y-107645D01*
X108795Y-107650D01*
Y-108650D01*
X108602Y-108655D01*
X108595Y-108655D01*
Y-109150D01*
X108585Y-109055D01*
X108555Y-108970D01*
X108504Y-108895D01*
X108433Y-108830D01*
X108342Y-108775D01*
X108231Y-108730D01*
X108189Y-108718D01*
X108147Y-108730D01*
X108036Y-108775D01*
X107945Y-108830D01*
X107874Y-108895D01*
X107823Y-108970D01*
X107793Y-109055D01*
X107783Y-109150D01*
Y-108655D01*
X107776Y-108655D01*
X107583Y-108650D01*
Y-107650D01*
X107776Y-107645D01*
X107783Y-107644D01*
Y-107150D01*
X107793Y-107245D01*
X107823Y-107330D01*
X107874Y-107405D01*
X107945Y-107470D01*
X108036Y-107525D01*
X108147Y-107570D01*
X108189Y-107581D01*
X108231Y-107570D01*
X108342Y-107525D01*
X108433Y-107470D01*
X108504Y-107405D01*
X108555Y-107330D01*
X108585Y-107245D01*
X108595Y-107150D01*
Y-107644D01*
D02*
G37*
G36*
X100024Y-114076D02*
X99924Y-114198D01*
X99852Y-114306D01*
X99809Y-114400D01*
X99794Y-114479D01*
X99809Y-114543D01*
X99852Y-114594D01*
X99924Y-114630D01*
X100024Y-114651D01*
X100154Y-114658D01*
X96145D01*
X96275Y-114651D01*
X96376Y-114630D01*
X96447Y-114594D01*
X96491Y-114543D01*
X96505Y-114479D01*
X96491Y-114400D01*
X96447Y-114306D01*
X96376Y-114198D01*
X96275Y-114076D01*
X96145Y-113939D01*
X97560D01*
X97703Y-114076D01*
X97846Y-114198D01*
X97989Y-114306D01*
X98131Y-114400D01*
X98150Y-114410D01*
X98168Y-114400D01*
X98310Y-114306D01*
X98453Y-114198D01*
X98596Y-114076D01*
X98739Y-113939D01*
X100154D01*
X100024Y-114076D01*
D02*
G37*
G36*
X22956Y-110454D02*
X23007Y-111214D01*
X23056Y-111551D01*
X23120Y-111858D01*
X23198Y-112136D01*
X23292Y-112385D01*
X23401Y-112605D01*
X23525Y-112796D01*
X23664Y-112957D01*
X22957Y-113664D01*
X22796Y-113525D01*
X22605Y-113401D01*
X22386Y-113292D01*
X22137Y-113198D01*
X21858Y-113119D01*
X21551Y-113056D01*
X21215Y-113007D01*
X20454Y-112956D01*
X20030Y-112953D01*
X22953Y-110029D01*
X22956Y-110454D01*
D02*
G37*
G36*
X91892Y-110913D02*
X92036Y-111036D01*
X92181Y-111145D01*
X92327Y-111239D01*
X92474Y-111319D01*
X92623Y-111384D01*
X92772Y-111435D01*
X92923Y-111471D01*
X93074Y-111493D01*
X93227Y-111500D01*
Y-112500D01*
X93074Y-112507D01*
X92923Y-112529D01*
X92772Y-112565D01*
X92623Y-112616D01*
X92474Y-112681D01*
X92327Y-112761D01*
X92181Y-112855D01*
X92036Y-112964D01*
X91892Y-113087D01*
X91750Y-113225D01*
Y-110775D01*
X91892Y-110913D01*
D02*
G37*
G36*
X111687Y-104971D02*
X110597D01*
X110605Y-104948D01*
X110613Y-104907D01*
X110620Y-104847D01*
X110635Y-104555D01*
X110642Y-103904D01*
X111642D01*
X111687Y-104971D01*
D02*
G37*
G36*
X113655D02*
X112565D01*
X112574Y-104948D01*
X112581Y-104907D01*
X112588Y-104847D01*
X112603Y-104555D01*
X112610Y-103904D01*
X113610D01*
X113655Y-104971D01*
D02*
G37*
G36*
X115624D02*
X114534D01*
X114542Y-104948D01*
X114550Y-104907D01*
X114557Y-104847D01*
X114571Y-104555D01*
X114579Y-103904D01*
X115579D01*
X115624Y-104971D01*
D02*
G37*
G36*
X235461Y-331502D02*
X176500D01*
Y-345461D01*
X60369D01*
X60200Y-344961D01*
X83281Y-321881D01*
X83281Y-321881D01*
X83698Y-321337D01*
X84018Y-320920D01*
X84482Y-319801D01*
X84640Y-318600D01*
Y-302908D01*
X84688Y-302869D01*
X85140Y-302715D01*
X86862Y-304437D01*
X86862Y-304437D01*
X87669Y-305056D01*
X87508Y-306275D01*
X87669Y-307499D01*
X87692Y-307554D01*
X87669Y-307610D01*
X87508Y-308834D01*
X87669Y-310058D01*
X88142Y-311199D01*
X88894Y-312178D01*
X89873Y-312930D01*
X91014Y-313402D01*
X92238Y-313563D01*
X93637D01*
X94961Y-314888D01*
X95953Y-315649D01*
X97109Y-316128D01*
X98349Y-316291D01*
X155035D01*
X156275Y-316128D01*
X157431Y-315649D01*
X158423Y-314888D01*
X160888Y-312423D01*
X161649Y-311431D01*
X161847Y-310952D01*
X162069Y-310417D01*
X162510Y-310374D01*
X163782Y-309988D01*
X164955Y-309361D01*
X165983Y-308517D01*
X166342Y-308080D01*
X166813Y-308248D01*
Y-312997D01*
X166749Y-313137D01*
X166621Y-313366D01*
X166424Y-313667D01*
X166181Y-313991D01*
X165358Y-314934D01*
X164848Y-315452D01*
X164540Y-315860D01*
X164228Y-316266D01*
X164222Y-316280D01*
X164213Y-316292D01*
X164021Y-316766D01*
X163825Y-317239D01*
X163823Y-317254D01*
X163817Y-317268D01*
X163754Y-317776D01*
X163688Y-318283D01*
X163689Y-318298D01*
X163688Y-318314D01*
X163758Y-318820D01*
X163825Y-319328D01*
X163831Y-319342D01*
X163833Y-319357D01*
X164032Y-319828D01*
X164228Y-320301D01*
X164237Y-320313D01*
X164243Y-320327D01*
X164557Y-320730D01*
X164869Y-321136D01*
X164881Y-321146D01*
X164891Y-321157D01*
X165038Y-321269D01*
X164966Y-322001D01*
X178746D01*
X178674Y-321269D01*
X178821Y-321157D01*
X178831Y-321146D01*
X178843Y-321136D01*
X179154Y-320730D01*
X179469Y-320327D01*
X179474Y-320313D01*
X179484Y-320301D01*
X179680Y-319828D01*
X179879Y-319357D01*
X179881Y-319342D01*
X179887Y-319328D01*
X179954Y-318820D01*
X180024Y-318314D01*
X180022Y-318298D01*
X180024Y-318283D01*
X179957Y-317776D01*
X179894Y-317268D01*
X179889Y-317254D01*
X179887Y-317239D01*
X179691Y-316767D01*
X179499Y-316292D01*
X179490Y-316280D01*
X179484Y-316266D01*
X179172Y-315860D01*
X178864Y-315452D01*
X178354Y-314934D01*
X177531Y-313991D01*
X177288Y-313667D01*
X177091Y-313366D01*
X176962Y-313137D01*
X176899Y-312997D01*
Y-304548D01*
X176727Y-303243D01*
X176580Y-302887D01*
X176223Y-302027D01*
X175422Y-300982D01*
X167919Y-293479D01*
X167895Y-293330D01*
X167833Y-292862D01*
X167812Y-292811D01*
X167803Y-292755D01*
X167611Y-292325D01*
X167430Y-291889D01*
X167396Y-291845D01*
X167374Y-291794D01*
X167077Y-291428D01*
X166789Y-291053D01*
X166745Y-291019D01*
X166710Y-290976D01*
X166328Y-290699D01*
X165954Y-290412D01*
X165902Y-290391D01*
X165857Y-290358D01*
X165417Y-290190D01*
X164981Y-290009D01*
X164925Y-290002D01*
X164873Y-289982D01*
X164404Y-289933D01*
X164228Y-289910D01*
X163708Y-289511D01*
X162492Y-289007D01*
X161187Y-288836D01*
X159881Y-289007D01*
X158665Y-289511D01*
X157648Y-290292D01*
X157527Y-290348D01*
X157091Y-290312D01*
X156984Y-290110D01*
X156140Y-289083D01*
X155112Y-288239D01*
X153940Y-287612D01*
X152667Y-287226D01*
X151344Y-287096D01*
X150021Y-287226D01*
X148749Y-287612D01*
X147576Y-288239D01*
X146849Y-288836D01*
X133918D01*
Y-279044D01*
X117998D01*
Y-272501D01*
X104000D01*
Y-273770D01*
X103500Y-273869D01*
X103223Y-273201D01*
X102472Y-272222D01*
X101492Y-271470D01*
X100352Y-270998D01*
X99128Y-270837D01*
X96378D01*
X96187Y-270375D01*
X116922Y-249640D01*
X173601D01*
X174100Y-250023D01*
X175499Y-250602D01*
X177000Y-250800D01*
X178501Y-250602D01*
X179900Y-250023D01*
X181101Y-249101D01*
X182023Y-247900D01*
X182602Y-246501D01*
X182800Y-245000D01*
X182736Y-244516D01*
X183065Y-244140D01*
X190500D01*
X190500Y-244140D01*
X191100Y-244061D01*
X191701Y-243982D01*
X192492Y-243654D01*
X192820Y-243518D01*
X193781Y-242781D01*
X199557Y-237005D01*
X199751Y-236989D01*
X200011Y-236987D01*
X200048Y-236982D01*
X201363Y-236852D01*
X202674Y-236455D01*
X203881Y-235809D01*
X204625Y-235199D01*
X205000Y-234976D01*
X205375Y-235199D01*
X206119Y-235809D01*
X207326Y-236455D01*
X208637Y-236852D01*
X210000Y-236986D01*
X211363Y-236852D01*
X212674Y-236455D01*
X213881Y-235809D01*
X214625Y-235199D01*
X215000Y-234976D01*
X215375Y-235199D01*
X216119Y-235809D01*
X217326Y-236455D01*
X218637Y-236852D01*
X220000Y-236986D01*
X221363Y-236852D01*
X222674Y-236455D01*
X223881Y-235809D01*
X224940Y-234940D01*
X225809Y-233881D01*
X226455Y-232674D01*
X226852Y-231363D01*
X226986Y-230000D01*
X226852Y-228637D01*
X226455Y-227326D01*
X225809Y-226119D01*
X224951Y-225073D01*
X224941Y-225060D01*
X224729Y-224844D01*
X224539Y-224627D01*
Y-219000D01*
X224539Y-219000D01*
X224384Y-217825D01*
X223931Y-216731D01*
X223763Y-216512D01*
X223209Y-215791D01*
X223209Y-215791D01*
X214834Y-207415D01*
X215025Y-206953D01*
X226953D01*
Y-193047D01*
X226746D01*
X226493Y-192547D01*
X226852Y-191363D01*
X226986Y-190000D01*
X226852Y-188637D01*
X226455Y-187326D01*
X225809Y-186119D01*
X225199Y-185375D01*
X224976Y-185000D01*
X225199Y-184625D01*
X225809Y-183881D01*
X226455Y-182674D01*
X226852Y-181363D01*
X226986Y-180000D01*
X226852Y-178637D01*
X226455Y-177326D01*
X225809Y-176119D01*
X225199Y-175375D01*
X224976Y-175000D01*
X225199Y-174625D01*
X225809Y-173881D01*
X226455Y-172674D01*
X226852Y-171363D01*
X226986Y-170000D01*
X226852Y-168637D01*
X226455Y-167326D01*
X225809Y-166119D01*
X225199Y-165375D01*
X224976Y-165000D01*
X225199Y-164625D01*
X225809Y-163881D01*
X226455Y-162674D01*
X226852Y-161363D01*
X226986Y-160000D01*
X226852Y-158637D01*
X226455Y-157326D01*
X225809Y-156119D01*
X225199Y-155375D01*
X224976Y-155000D01*
X225199Y-154625D01*
X225809Y-153881D01*
X226455Y-152674D01*
X226852Y-151363D01*
X226986Y-150000D01*
X226852Y-148637D01*
X226455Y-147326D01*
X225809Y-146119D01*
X225199Y-145375D01*
X224976Y-145000D01*
X225199Y-144625D01*
X225809Y-143881D01*
X226455Y-142674D01*
X226852Y-141363D01*
X226986Y-140000D01*
X226852Y-138637D01*
X226455Y-137326D01*
X225809Y-136119D01*
X225199Y-135375D01*
X224976Y-135000D01*
X225199Y-134625D01*
X225809Y-133881D01*
X226455Y-132674D01*
X226852Y-131363D01*
X226986Y-130000D01*
X226852Y-128637D01*
X226455Y-127326D01*
X225809Y-126119D01*
X225499Y-125741D01*
Y-110502D01*
X211500D01*
Y-125461D01*
X175880D01*
X172288Y-121869D01*
X171704Y-121422D01*
X171661Y-120758D01*
X187880Y-104539D01*
X213047D01*
Y-106953D01*
X226953D01*
Y-93047D01*
X226746D01*
X226493Y-92547D01*
X226852Y-91363D01*
X226986Y-90000D01*
X226852Y-88637D01*
X226455Y-87326D01*
X225809Y-86119D01*
X224940Y-85060D01*
Y-84940D01*
X225809Y-83881D01*
X226455Y-82674D01*
X226852Y-81363D01*
X226986Y-80000D01*
X226852Y-78637D01*
X226455Y-77326D01*
X225809Y-76119D01*
X224940Y-75060D01*
Y-74940D01*
X225809Y-73881D01*
X226455Y-72674D01*
X226852Y-71363D01*
X226986Y-70000D01*
X226852Y-68637D01*
X226455Y-67326D01*
X225809Y-66119D01*
X225199Y-65375D01*
X224976Y-65000D01*
X225199Y-64625D01*
X225809Y-63881D01*
X226455Y-62674D01*
X226852Y-61363D01*
X226986Y-60000D01*
X226852Y-58637D01*
X226455Y-57326D01*
X225809Y-56119D01*
X225199Y-55375D01*
X224976Y-55000D01*
X225199Y-54625D01*
X225809Y-53881D01*
X226455Y-52674D01*
X226852Y-51363D01*
X226986Y-50000D01*
X226852Y-48637D01*
X226455Y-47326D01*
X225809Y-46119D01*
X224940Y-45060D01*
Y-44940D01*
X225809Y-43881D01*
X226455Y-42674D01*
X226852Y-41363D01*
X226986Y-40000D01*
X226852Y-38637D01*
X226455Y-37326D01*
X225809Y-36119D01*
X225199Y-35375D01*
X224976Y-35000D01*
X225199Y-34625D01*
X225809Y-33881D01*
X226455Y-32674D01*
X226852Y-31363D01*
X226986Y-30000D01*
X226852Y-28637D01*
X226506Y-27497D01*
X226499Y-27000D01*
X226499Y-27000D01*
X226499Y-27000D01*
Y-11002D01*
X212500D01*
Y-25461D01*
X212000D01*
X212000Y-25461D01*
X210825Y-25616D01*
X209731Y-26069D01*
X209512Y-26237D01*
X208791Y-26791D01*
X208790Y-26791D01*
X194415Y-41166D01*
X193953Y-40975D01*
Y-31547D01*
X193746D01*
X193493Y-31047D01*
X193852Y-29863D01*
X193986Y-28500D01*
X193852Y-27137D01*
X193455Y-25826D01*
X192809Y-24619D01*
X192199Y-23875D01*
X191976Y-23500D01*
X192199Y-23125D01*
X192809Y-22381D01*
X193455Y-21174D01*
X193852Y-19863D01*
X193986Y-18500D01*
X193852Y-17137D01*
X193455Y-15826D01*
X192809Y-14619D01*
X191940Y-13560D01*
X190881Y-12691D01*
X189674Y-12045D01*
X188363Y-11648D01*
X187000Y-11514D01*
X185637Y-11648D01*
X184326Y-12045D01*
X183119Y-12691D01*
X182060Y-13560D01*
X181191Y-14619D01*
X180545Y-15826D01*
X180148Y-17137D01*
X180014Y-18500D01*
X180148Y-19863D01*
X180545Y-21174D01*
X181191Y-22381D01*
X181801Y-23125D01*
X182024Y-23500D01*
X181801Y-23875D01*
X181191Y-24619D01*
X180545Y-25826D01*
X180148Y-27137D01*
X180014Y-28500D01*
X180148Y-29863D01*
X180507Y-31047D01*
X180254Y-31547D01*
X180047D01*
Y-45453D01*
X189475D01*
X189666Y-45915D01*
X142620Y-92961D01*
X141611D01*
X141420Y-92499D01*
X170709Y-63209D01*
X171431Y-62269D01*
X171884Y-61175D01*
X172039Y-60000D01*
Y-37798D01*
X176800D01*
Y-23200D01*
X166953D01*
Y-23047D01*
X153047D01*
Y-23255D01*
X152547Y-23507D01*
X151363Y-23148D01*
X150000Y-23014D01*
X148637Y-23148D01*
X147326Y-23545D01*
X146119Y-24191D01*
X145375Y-24801D01*
X145000Y-25024D01*
X144625Y-24801D01*
X143881Y-24191D01*
X142674Y-23545D01*
X141363Y-23148D01*
X140000Y-23014D01*
X138637Y-23148D01*
X137326Y-23545D01*
X136119Y-24191D01*
X135060Y-25060D01*
X134940D01*
X133881Y-24191D01*
X132674Y-23545D01*
X131363Y-23148D01*
X130000Y-23014D01*
X128637Y-23148D01*
X127326Y-23545D01*
X126119Y-24191D01*
X125060Y-25060D01*
X124357Y-25916D01*
X124318Y-25927D01*
X124266Y-25936D01*
X123796Y-25830D01*
X123684Y-25561D01*
X123512Y-25114D01*
X123483Y-25075D01*
X123465Y-25030D01*
X123173Y-24650D01*
X122891Y-24264D01*
X122853Y-24233D01*
X122823Y-24195D01*
X122443Y-23903D01*
X122071Y-23603D01*
X122026Y-23583D01*
X121988Y-23553D01*
X121545Y-23370D01*
X121108Y-23176D01*
X121060Y-23169D01*
X121015Y-23150D01*
X120540Y-23088D01*
X120161Y-23029D01*
X102133Y-5001D01*
X102324Y-4539D01*
X235461D01*
Y-331502D01*
D02*
G37*
G36*
X104658Y-108974D02*
Y-110154D01*
X104651Y-110024D01*
X104630Y-109924D01*
X104594Y-109852D01*
X104543Y-109809D01*
X104479Y-109794D01*
X104400Y-109809D01*
X104306Y-109852D01*
X104198Y-109924D01*
X104076Y-110024D01*
X103939Y-110154D01*
Y-108739D01*
X104076Y-108596D01*
X104198Y-108453D01*
X104306Y-108310D01*
X104400Y-108168D01*
X104410Y-108150D01*
X104400Y-108131D01*
X104306Y-107989D01*
X104198Y-107846D01*
X104076Y-107703D01*
X103939Y-107560D01*
Y-106146D01*
X104076Y-106275D01*
X104198Y-106376D01*
X104306Y-106448D01*
X104400Y-106491D01*
X104479Y-106505D01*
X104543Y-106491D01*
X104594Y-106448D01*
X104630Y-106376D01*
X104651Y-106275D01*
X104658Y-106146D01*
Y-108974D01*
D02*
G37*
G36*
X107750Y-104971D02*
X106660D01*
X106668Y-104948D01*
X106676Y-104907D01*
X106683Y-104847D01*
X106697Y-104555D01*
X106705Y-103904D01*
X107705D01*
X107750Y-104971D01*
D02*
G37*
G36*
X116089Y-83171D02*
X116459Y-83494D01*
X116567Y-83573D01*
X116666Y-83637D01*
X116757Y-83687D01*
X116840Y-83723D01*
X116916Y-83744D01*
X116982Y-83750D01*
X115250Y-85483D01*
X115243Y-85416D01*
X115223Y-85340D01*
X115187Y-85257D01*
X115137Y-85166D01*
X115073Y-85067D01*
X114994Y-84959D01*
X114793Y-84720D01*
X114535Y-84449D01*
X115949Y-83035D01*
X116089Y-83171D01*
D02*
G37*
G36*
X152956Y-30454D02*
X153007Y-31214D01*
X153056Y-31551D01*
X153120Y-31858D01*
X153198Y-32136D01*
X153292Y-32386D01*
X153401Y-32605D01*
X153525Y-32796D01*
X153664Y-32957D01*
X152957Y-33664D01*
X152796Y-33525D01*
X152605Y-33401D01*
X152385Y-33292D01*
X152137Y-33198D01*
X151858Y-33119D01*
X151551Y-33056D01*
X151215Y-33007D01*
X150454Y-32956D01*
X150030Y-32953D01*
X152953Y-30029D01*
X152956Y-30454D01*
D02*
G37*
G36*
X162884Y-31604D02*
X162856Y-31696D01*
Y-31802D01*
X162884Y-31923D01*
X162941Y-32057D01*
X163026Y-32205D01*
X163139Y-32368D01*
X163280Y-32545D01*
X163648Y-32941D01*
X162941Y-33648D01*
X162736Y-33450D01*
X162368Y-33139D01*
X162205Y-33026D01*
X162057Y-32941D01*
X161923Y-32884D01*
X161802Y-32856D01*
X161696D01*
X161604Y-32884D01*
X161527Y-32941D01*
X162941Y-31526D01*
X162884Y-31604D01*
D02*
G37*
G36*
X217891Y-32067D02*
X217589Y-31769D01*
X217015Y-31268D01*
X216742Y-31064D01*
X216480Y-30892D01*
X216228Y-30751D01*
X215985Y-30641D01*
X215753Y-30563D01*
X215531Y-30516D01*
X215318Y-30500D01*
Y-29500D01*
X215531Y-29484D01*
X215753Y-29437D01*
X215985Y-29359D01*
X216228Y-29249D01*
X216480Y-29108D01*
X216742Y-28936D01*
X217015Y-28732D01*
X217589Y-28231D01*
X217891Y-27933D01*
Y-32067D01*
D02*
G37*
G36*
X112960Y-30323D02*
X112987Y-30607D01*
X113034Y-30880D01*
X113101Y-31144D01*
X113188Y-31397D01*
X113295Y-31640D01*
X113423Y-31872D01*
X113570Y-32095D01*
X113737Y-32308D01*
X113924Y-32510D01*
X112510Y-33924D01*
X112308Y-33737D01*
X112095Y-33570D01*
X111872Y-33422D01*
X111640Y-33295D01*
X111397Y-33188D01*
X111144Y-33101D01*
X110880Y-33034D01*
X110607Y-32987D01*
X110323Y-32960D01*
X110029Y-32953D01*
X112953Y-30029D01*
X112960Y-30323D01*
D02*
G37*
G36*
X132956Y-30454D02*
X133007Y-31214D01*
X133056Y-31551D01*
X133119Y-31858D01*
X133198Y-32136D01*
X133292Y-32386D01*
X133401Y-32605D01*
X133525Y-32796D01*
X133664Y-32957D01*
X132957Y-33664D01*
X132796Y-33525D01*
X132605Y-33401D01*
X132386Y-33292D01*
X132136Y-33198D01*
X131858Y-33119D01*
X131551Y-33056D01*
X131214Y-33007D01*
X130454Y-32956D01*
X130029Y-32953D01*
X132953Y-30029D01*
X132956Y-30454D01*
D02*
G37*
G36*
X142956D02*
X143007Y-31214D01*
X143056Y-31551D01*
X143120Y-31858D01*
X143198Y-32136D01*
X143292Y-32386D01*
X143401Y-32605D01*
X143525Y-32796D01*
X143664Y-32957D01*
X142957Y-33664D01*
X142796Y-33525D01*
X142605Y-33401D01*
X142385Y-33292D01*
X142137Y-33198D01*
X141858Y-33119D01*
X141551Y-33056D01*
X141215Y-33007D01*
X140454Y-32956D01*
X140030Y-32953D01*
X142953Y-30029D01*
X142956Y-30454D01*
D02*
G37*
G36*
X96363Y-13495D02*
X96171Y-13957D01*
X81489D01*
X81310Y-13457D01*
X81940Y-12940D01*
X82809Y-11881D01*
X83455Y-10674D01*
X83852Y-9363D01*
X83986Y-8000D01*
X83978Y-7914D01*
X84314Y-7543D01*
X90411D01*
X96363Y-13495D01*
D02*
G37*
G36*
X54071Y-10000D02*
X54051Y-9810D01*
X53991Y-9640D01*
X53890Y-9490D01*
X53749Y-9360D01*
X53568Y-9250D01*
X53347Y-9160D01*
X53085Y-9090D01*
X52784Y-9040D01*
X52442Y-9010D01*
X52059Y-9000D01*
Y-7000D01*
X52442Y-6990D01*
X52784Y-6960D01*
X53085Y-6910D01*
X53347Y-6840D01*
X53568Y-6750D01*
X53749Y-6640D01*
X53890Y-6510D01*
X53991Y-6360D01*
X54051Y-6190D01*
X54071Y-6000D01*
Y-10000D01*
D02*
G37*
G36*
X61355Y-5059D02*
X60958Y-5471D01*
X60333Y-6207D01*
X60106Y-6533D01*
X59935Y-6830D01*
X59820Y-7099D01*
X59763Y-7339D01*
X59761Y-7550D01*
X59817Y-7733D01*
X59929Y-7888D01*
X57112Y-5071D01*
X57267Y-5183D01*
X57450Y-5239D01*
X57661Y-5237D01*
X57901Y-5180D01*
X58170Y-5065D01*
X58467Y-4894D01*
X58793Y-4667D01*
X59147Y-4383D01*
X59941Y-3645D01*
X61355Y-5059D01*
D02*
G37*
G36*
X107692Y-26263D02*
X107905Y-26430D01*
X108127Y-26577D01*
X108360Y-26705D01*
X108603Y-26812D01*
X108856Y-26899D01*
X109120Y-26966D01*
X109393Y-27013D01*
X109677Y-27040D01*
X109970Y-27047D01*
X107047Y-29970D01*
X107040Y-29677D01*
X107013Y-29393D01*
X106966Y-29120D01*
X106899Y-28857D01*
X106812Y-28603D01*
X106705Y-28360D01*
X106578Y-28128D01*
X106430Y-27905D01*
X106263Y-27692D01*
X106076Y-27490D01*
X107490Y-26076D01*
X107692Y-26263D01*
D02*
G37*
G36*
X117692D02*
X117905Y-26430D01*
X118128Y-26577D01*
X118360Y-26705D01*
X118603Y-26812D01*
X118857Y-26899D01*
X119120Y-26966D01*
X119393Y-27013D01*
X119677Y-27040D01*
X119971Y-27047D01*
X117047Y-29970D01*
X117040Y-29677D01*
X117013Y-29393D01*
X116966Y-29120D01*
X116899Y-28857D01*
X116812Y-28603D01*
X116705Y-28360D01*
X116577Y-28128D01*
X116430Y-27905D01*
X116263Y-27692D01*
X116076Y-27490D01*
X117490Y-26076D01*
X117692Y-26263D01*
D02*
G37*
G36*
X27158Y-4940D02*
X27101Y-5128D01*
X26966Y-6500D01*
Y-10500D01*
X27101Y-11872D01*
X27501Y-13192D01*
X28152Y-14408D01*
X29026Y-15474D01*
X30092Y-16348D01*
X31308Y-16998D01*
X32347Y-17314D01*
X32492Y-17876D01*
X17868Y-32500D01*
X17238D01*
X16976Y-32465D01*
X16765Y-32493D01*
X16551Y-32488D01*
X16501Y-32500D01*
X14500D01*
Y-38500D01*
Y-44500D01*
X16501D01*
X16551Y-44512D01*
X16765Y-44507D01*
X16976Y-44535D01*
X17238Y-44500D01*
X18000D01*
Y-44400D01*
X18020Y-44397D01*
X18312Y-44276D01*
X18614Y-44187D01*
X18796Y-44076D01*
X18993Y-43994D01*
X19243Y-43802D01*
X19513Y-43637D01*
X19660Y-43483D01*
X19701Y-43451D01*
X20305Y-43371D01*
X21522Y-42867D01*
X22566Y-42066D01*
X26504Y-38128D01*
X26966Y-38319D01*
Y-40500D01*
X27101Y-41872D01*
X27501Y-43192D01*
X28152Y-44408D01*
X29026Y-45474D01*
X30092Y-46349D01*
X31308Y-46999D01*
X32628Y-47399D01*
X34000Y-47534D01*
X35372Y-47399D01*
X36692Y-46999D01*
X37908Y-46349D01*
X38974Y-45474D01*
X39849Y-44408D01*
X40499Y-43192D01*
X40899Y-41872D01*
X41034Y-40500D01*
Y-38608D01*
X41083Y-38549D01*
X55589Y-24043D01*
X95511D01*
X95689Y-24543D01*
X95060Y-25060D01*
X94191Y-26119D01*
X93545Y-27326D01*
X93148Y-28637D01*
X93014Y-30000D01*
X93148Y-31363D01*
X93545Y-32674D01*
X94191Y-33881D01*
X94801Y-34625D01*
X95024Y-35000D01*
X94801Y-35375D01*
X94191Y-36119D01*
X93545Y-37326D01*
X93148Y-38637D01*
X93014Y-40000D01*
X93148Y-41363D01*
X93545Y-42674D01*
X94191Y-43881D01*
X95060Y-44940D01*
X96119Y-45809D01*
X97326Y-46455D01*
X98637Y-46852D01*
X100000Y-46986D01*
X101363Y-46852D01*
X102674Y-46455D01*
X103881Y-45809D01*
X104940Y-44940D01*
X105060D01*
X106119Y-45809D01*
X107326Y-46455D01*
X108637Y-46852D01*
X109957Y-46982D01*
Y-83461D01*
X49880D01*
X26953Y-60534D01*
Y-53047D01*
X16599D01*
Y-50602D01*
X4539D01*
Y-4539D01*
X6860D01*
X7158Y-4940D01*
X7101Y-5128D01*
X6966Y-6500D01*
Y-10500D01*
X7101Y-11872D01*
X7502Y-13192D01*
X8152Y-14408D01*
X9026Y-15474D01*
X10092Y-16348D01*
X11308Y-16998D01*
X12628Y-17399D01*
X14000Y-17534D01*
X15372Y-17399D01*
X16692Y-16998D01*
X17908Y-16348D01*
X18974Y-15474D01*
X19848Y-14408D01*
X20498Y-13192D01*
X20899Y-11872D01*
X21034Y-10500D01*
Y-6500D01*
X20899Y-5128D01*
X20842Y-4940D01*
X21140Y-4539D01*
X26860D01*
X27158Y-4940D01*
D02*
G37*
G36*
X22956Y-70454D02*
X23007Y-71214D01*
X23056Y-71551D01*
X23120Y-71858D01*
X23198Y-72136D01*
X23292Y-72386D01*
X23401Y-72605D01*
X23525Y-72796D01*
X23664Y-72957D01*
X22957Y-73664D01*
X22796Y-73525D01*
X22605Y-73401D01*
X22386Y-73292D01*
X22137Y-73198D01*
X21858Y-73119D01*
X21551Y-73056D01*
X21215Y-73007D01*
X20454Y-72956D01*
X20030Y-72953D01*
X22953Y-70029D01*
X22956Y-70454D01*
D02*
G37*
G36*
X217891Y-72067D02*
X217589Y-71769D01*
X217015Y-71268D01*
X216742Y-71064D01*
X216480Y-70892D01*
X216228Y-70751D01*
X215985Y-70641D01*
X215753Y-70563D01*
X215531Y-70516D01*
X215318Y-70500D01*
Y-69500D01*
X215531Y-69484D01*
X215753Y-69437D01*
X215985Y-69359D01*
X216228Y-69249D01*
X216480Y-69108D01*
X216742Y-68936D01*
X217015Y-68732D01*
X217589Y-68231D01*
X217891Y-67933D01*
Y-72067D01*
D02*
G37*
G36*
X22884Y-61604D02*
X22856Y-61696D01*
Y-61802D01*
X22884Y-61923D01*
X22941Y-62057D01*
X23026Y-62205D01*
X23139Y-62368D01*
X23280Y-62545D01*
X23648Y-62941D01*
X22941Y-63648D01*
X22736Y-63450D01*
X22368Y-63139D01*
X22205Y-63026D01*
X22057Y-62941D01*
X21923Y-62884D01*
X21802Y-62856D01*
X21696D01*
X21604Y-62884D01*
X21527Y-62941D01*
X22941Y-61527D01*
X22884Y-61604D01*
D02*
G37*
G36*
X126119Y-45809D02*
X127326Y-46455D01*
X128637Y-46852D01*
X130000Y-46986D01*
X130091Y-46977D01*
X130461Y-47313D01*
Y-76620D01*
X123064Y-84017D01*
X122536Y-83838D01*
X122023Y-82600D01*
X121101Y-81399D01*
X120043Y-80587D01*
Y-46982D01*
X121363Y-46852D01*
X122674Y-46455D01*
X123881Y-45809D01*
X124940Y-44940D01*
X125060D01*
X126119Y-45809D01*
D02*
G37*
G36*
X22956Y-80454D02*
X23007Y-81214D01*
X23056Y-81551D01*
X23120Y-81858D01*
X23198Y-82136D01*
X23292Y-82385D01*
X23401Y-82605D01*
X23525Y-82796D01*
X23664Y-82957D01*
X22957Y-83664D01*
X22796Y-83525D01*
X22605Y-83401D01*
X22386Y-83292D01*
X22137Y-83198D01*
X21858Y-83119D01*
X21551Y-83056D01*
X21215Y-83007D01*
X20454Y-82956D01*
X20030Y-82953D01*
X22953Y-80029D01*
X22956Y-80454D01*
D02*
G37*
G36*
X217891Y-82067D02*
X217589Y-81769D01*
X217015Y-81268D01*
X216742Y-81064D01*
X216480Y-80892D01*
X216228Y-80751D01*
X215985Y-80641D01*
X215753Y-80563D01*
X215531Y-80516D01*
X215318Y-80500D01*
Y-79500D01*
X215531Y-79484D01*
X215753Y-79437D01*
X215985Y-79359D01*
X216228Y-79249D01*
X216480Y-79108D01*
X216742Y-78936D01*
X217015Y-78732D01*
X217589Y-78231D01*
X217891Y-77933D01*
Y-82067D01*
D02*
G37*
G36*
Y-42067D02*
X217589Y-41769D01*
X217015Y-41268D01*
X216742Y-41064D01*
X216480Y-40892D01*
X216228Y-40751D01*
X215985Y-40641D01*
X215753Y-40563D01*
X215531Y-40516D01*
X215318Y-40500D01*
Y-39500D01*
X215531Y-39484D01*
X215753Y-39437D01*
X215985Y-39359D01*
X216228Y-39249D01*
X216480Y-39108D01*
X216742Y-38936D01*
X217015Y-38732D01*
X217589Y-38231D01*
X217891Y-37933D01*
Y-42067D01*
D02*
G37*
G36*
X16996Y-36690D02*
X17056Y-36860D01*
X17157Y-37010D01*
X17298Y-37140D01*
X17479Y-37250D01*
X17700Y-37340D01*
X17962Y-37410D01*
X18264Y-37460D01*
X18606Y-37490D01*
X18988Y-37500D01*
Y-39500D01*
X18606Y-39510D01*
X18264Y-39540D01*
X17962Y-39590D01*
X17700Y-39660D01*
X17479Y-39750D01*
X17298Y-39860D01*
X17157Y-39990D01*
X17056Y-40140D01*
X16996Y-40310D01*
X16976Y-40500D01*
Y-36500D01*
X16996Y-36690D01*
D02*
G37*
G36*
X38417Y-35497D02*
X38086Y-35842D01*
X37551Y-36490D01*
X37345Y-36793D01*
X37182Y-37083D01*
X37060Y-37359D01*
X36980Y-37621D01*
X36942Y-37870D01*
X36945Y-38105D01*
X36990Y-38326D01*
X35662Y-34014D01*
X35743Y-34201D01*
X35854Y-34330D01*
X35994Y-34401D01*
X36164Y-34414D01*
X36363Y-34370D01*
X36592Y-34269D01*
X36850Y-34109D01*
X37137Y-33892D01*
X37455Y-33617D01*
X37801Y-33285D01*
X38417Y-35497D01*
D02*
G37*
G36*
X217891Y-62067D02*
X217589Y-61769D01*
X217015Y-61268D01*
X216742Y-61064D01*
X216480Y-60892D01*
X216228Y-60751D01*
X215985Y-60641D01*
X215753Y-60563D01*
X215531Y-60516D01*
X215318Y-60500D01*
Y-59500D01*
X215531Y-59484D01*
X215753Y-59437D01*
X215985Y-59359D01*
X216228Y-59249D01*
X216480Y-59108D01*
X216742Y-58936D01*
X217015Y-58732D01*
X217589Y-58231D01*
X217891Y-57933D01*
Y-62067D01*
D02*
G37*
G36*
Y-52067D02*
X217589Y-51769D01*
X217015Y-51268D01*
X216742Y-51064D01*
X216480Y-50892D01*
X216228Y-50751D01*
X215985Y-50641D01*
X215753Y-50563D01*
X215531Y-50516D01*
X215318Y-50500D01*
Y-49500D01*
X215531Y-49484D01*
X215753Y-49437D01*
X215985Y-49359D01*
X216228Y-49249D01*
X216480Y-49108D01*
X216742Y-48936D01*
X217015Y-48732D01*
X217589Y-48231D01*
X217891Y-47933D01*
Y-52067D01*
D02*
G37*
G36*
X162961Y-46816D02*
Y-58120D01*
X159501Y-61580D01*
X159039Y-61389D01*
Y-47264D01*
X159409Y-46928D01*
X160000Y-46986D01*
X161363Y-46852D01*
X162461Y-46519D01*
X162961Y-46816D01*
D02*
G37*
G36*
X214762Y-144657D02*
X214784Y-144686D01*
X214844Y-144963D01*
X214844Y-145036D01*
X214784Y-145314D01*
X214762Y-145343D01*
X214627Y-145461D01*
X186380D01*
X185920Y-145001D01*
X186111Y-144539D01*
X214627D01*
X214762Y-144657D01*
D02*
G37*
G36*
X96061Y-145342D02*
X95967Y-145303D01*
X95862Y-145290D01*
X95747Y-145300D01*
X95622Y-145335D01*
X95486Y-145395D01*
X95339Y-145479D01*
X95182Y-145588D01*
X95014Y-145721D01*
X94835Y-145879D01*
X94646Y-146061D01*
X93919Y-145374D01*
X94054Y-145238D01*
X94640Y-144570D01*
X94652Y-144538D01*
X96061Y-145342D01*
D02*
G37*
G36*
X108827Y-115112D02*
X109943Y-115575D01*
X111142Y-115733D01*
X112126Y-115603D01*
X113110Y-115733D01*
X114094Y-115603D01*
X115079Y-115733D01*
X116063Y-115603D01*
X117047Y-115733D01*
X118032Y-115603D01*
X119016Y-115733D01*
X120000Y-115603D01*
X120984Y-115733D01*
X121968Y-115603D01*
X122953Y-115733D01*
X123937Y-115603D01*
X124921Y-115733D01*
X125906Y-115603D01*
X126890Y-115733D01*
X127874Y-115603D01*
X128858Y-115733D01*
X129842Y-115603D01*
X130827Y-115733D01*
X131811Y-115603D01*
X132795Y-115733D01*
X133780Y-115603D01*
X134325Y-115675D01*
X134397Y-116220D01*
X134267Y-117205D01*
X134397Y-118189D01*
X134267Y-119173D01*
X134397Y-120158D01*
X134267Y-121142D01*
X134397Y-122126D01*
X134267Y-123110D01*
X134397Y-124094D01*
X134267Y-125079D01*
X134397Y-126063D01*
X134267Y-127047D01*
X134397Y-128032D01*
X134267Y-129016D01*
X134397Y-130000D01*
X134267Y-130984D01*
X134397Y-131968D01*
X134267Y-132953D01*
X134397Y-133937D01*
X134267Y-134921D01*
X134397Y-135906D01*
X134267Y-136890D01*
X134397Y-137874D01*
X134267Y-138858D01*
X134397Y-139842D01*
X134267Y-140827D01*
X134397Y-141811D01*
X134267Y-142795D01*
X134397Y-143780D01*
X134325Y-144325D01*
X133780Y-144397D01*
X132795Y-144267D01*
X131811Y-144397D01*
X130827Y-144267D01*
X129842Y-144397D01*
X128858Y-144267D01*
X127874Y-144397D01*
X126890Y-144267D01*
X125906Y-144397D01*
X124921Y-144267D01*
X123937Y-144397D01*
X122953Y-144267D01*
X121968Y-144397D01*
X120984Y-144267D01*
X120000Y-144397D01*
X119016Y-144267D01*
X118032Y-144397D01*
X117047Y-144267D01*
X116063Y-144397D01*
X115079Y-144267D01*
X114094Y-144397D01*
X113110Y-144267D01*
X112126Y-144397D01*
X111142Y-144267D01*
X110158Y-144397D01*
X109173Y-144267D01*
X108189Y-144397D01*
X107205Y-144267D01*
X106220Y-144397D01*
X105675Y-144325D01*
X105603Y-143780D01*
X105733Y-142795D01*
X105603Y-141811D01*
X105733Y-140827D01*
X105603Y-139842D01*
X105733Y-138858D01*
X105603Y-137874D01*
X105733Y-136890D01*
X105603Y-135906D01*
X105733Y-134921D01*
X105603Y-133937D01*
X105733Y-132953D01*
X105603Y-131968D01*
X105733Y-130984D01*
X105603Y-130000D01*
X105733Y-129016D01*
X105603Y-128032D01*
X105733Y-127047D01*
X105603Y-126063D01*
X105733Y-125079D01*
X105603Y-124094D01*
X105733Y-123110D01*
X105603Y-122126D01*
X105733Y-121142D01*
X105603Y-120158D01*
X105733Y-119173D01*
X105603Y-118189D01*
X105733Y-117205D01*
X105603Y-116220D01*
X105675Y-115675D01*
X106435Y-115575D01*
X107551Y-115112D01*
X108189Y-114623D01*
X108827Y-115112D01*
D02*
G37*
G36*
X104658Y-152850D02*
X104648Y-152755D01*
X104618Y-152670D01*
X104567Y-152595D01*
X104496Y-152530D01*
X104405Y-152475D01*
X104294Y-152430D01*
X104163Y-152395D01*
X104011Y-152370D01*
X103839Y-152355D01*
X103646Y-152350D01*
Y-151350D01*
X103839Y-151345D01*
X104011Y-151330D01*
X104163Y-151305D01*
X104294Y-151270D01*
X104405Y-151225D01*
X104496Y-151170D01*
X104567Y-151105D01*
X104618Y-151030D01*
X104648Y-150945D01*
X104658Y-150850D01*
Y-152850D01*
D02*
G37*
G36*
X217891Y-152067D02*
X217589Y-151769D01*
X217015Y-151268D01*
X216742Y-151064D01*
X216480Y-150892D01*
X216228Y-150751D01*
X215985Y-150641D01*
X215753Y-150563D01*
X215531Y-150516D01*
X215318Y-150500D01*
Y-149500D01*
X215531Y-149484D01*
X215753Y-149437D01*
X215985Y-149359D01*
X216228Y-149249D01*
X216480Y-149108D01*
X216742Y-148936D01*
X217015Y-148732D01*
X217589Y-148231D01*
X217891Y-147933D01*
Y-152067D01*
D02*
G37*
G36*
X142755Y-145352D02*
X142670Y-145382D01*
X142595Y-145433D01*
X142530Y-145504D01*
X142475Y-145595D01*
X142430Y-145706D01*
X142395Y-145837D01*
X142370Y-145989D01*
X142355Y-146161D01*
X142350Y-146354D01*
X141350D01*
X141345Y-146161D01*
X141330Y-145989D01*
X141305Y-145837D01*
X141270Y-145706D01*
X141225Y-145595D01*
X141170Y-145504D01*
X141105Y-145433D01*
X141030Y-145382D01*
X140945Y-145352D01*
X140850Y-145342D01*
X142850D01*
X142755Y-145352D01*
D02*
G37*
G36*
X145052Y-140290D02*
X145093Y-140298D01*
X145153Y-140305D01*
X145445Y-140320D01*
X146096Y-140327D01*
Y-141327D01*
X145029Y-141372D01*
Y-140282D01*
X145052Y-140290D01*
D02*
G37*
G36*
X94971Y-139403D02*
X94948Y-139395D01*
X94907Y-139387D01*
X94847Y-139380D01*
X94555Y-139365D01*
X93904Y-139358D01*
Y-138358D01*
X94971Y-138313D01*
Y-139403D01*
D02*
G37*
G36*
X145052Y-138322D02*
X145093Y-138330D01*
X145153Y-138336D01*
X145445Y-138351D01*
X146096Y-138358D01*
Y-139358D01*
X145029Y-139403D01*
Y-138313D01*
X145052Y-138322D01*
D02*
G37*
G36*
X94971Y-143340D02*
X94948Y-143332D01*
X94907Y-143324D01*
X94847Y-143317D01*
X94555Y-143303D01*
X93904Y-143295D01*
Y-142295D01*
X94971Y-142250D01*
Y-143340D01*
D02*
G37*
G36*
X217891Y-142067D02*
X217589Y-141769D01*
X217015Y-141268D01*
X216742Y-141064D01*
X216480Y-140892D01*
X216228Y-140751D01*
X215985Y-140641D01*
X215753Y-140563D01*
X215531Y-140516D01*
X215318Y-140500D01*
Y-139500D01*
X215531Y-139484D01*
X215753Y-139437D01*
X215985Y-139359D01*
X216228Y-139249D01*
X216480Y-139108D01*
X216742Y-138936D01*
X217015Y-138732D01*
X217589Y-138231D01*
X217891Y-137933D01*
Y-142067D01*
D02*
G37*
G36*
X94971Y-141372D02*
X94948Y-141363D01*
X94907Y-141356D01*
X94847Y-141349D01*
X94555Y-141334D01*
X93904Y-141327D01*
Y-140327D01*
X94971Y-140282D01*
Y-141372D01*
D02*
G37*
G36*
X119552Y-155052D02*
X119544Y-155093D01*
X119538Y-155153D01*
X119523Y-155445D01*
X119516Y-156096D01*
X118516D01*
X118471Y-155029D01*
X119561D01*
X119552Y-155052D01*
D02*
G37*
G36*
X121521D02*
X121513Y-155093D01*
X121506Y-155153D01*
X121492Y-155445D01*
X121484Y-156096D01*
X120484D01*
X120439Y-155029D01*
X121529D01*
X121521Y-155052D01*
D02*
G37*
G36*
X123489D02*
X123482Y-155093D01*
X123475Y-155153D01*
X123460Y-155445D01*
X123453Y-156096D01*
X122453D01*
X122408Y-155029D01*
X123498D01*
X123489Y-155052D01*
D02*
G37*
G36*
X113647D02*
X113639Y-155093D01*
X113632Y-155153D01*
X113617Y-155445D01*
X113610Y-156096D01*
X112610D01*
X112565Y-155029D01*
X113655D01*
X113647Y-155052D01*
D02*
G37*
G36*
X115615D02*
X115608Y-155093D01*
X115601Y-155153D01*
X115586Y-155445D01*
X115579Y-156096D01*
X114579D01*
X114534Y-155029D01*
X115624D01*
X115615Y-155052D01*
D02*
G37*
G36*
X117584D02*
X117576Y-155093D01*
X117569Y-155153D01*
X117554Y-155445D01*
X117547Y-156096D01*
X116547D01*
X116502Y-155029D01*
X117592D01*
X117584Y-155052D01*
D02*
G37*
G36*
X131363D02*
X131356Y-155093D01*
X131349Y-155153D01*
X131334Y-155445D01*
X131327Y-156096D01*
X130327D01*
X130282Y-155029D01*
X131372D01*
X131363Y-155052D01*
D02*
G37*
G36*
X13047Y-66953D02*
X13254D01*
X13507Y-67453D01*
X13148Y-68637D01*
X13014Y-70000D01*
X13148Y-71363D01*
X13545Y-72674D01*
X14191Y-73881D01*
X14801Y-74625D01*
X15024Y-75000D01*
X14801Y-75375D01*
X14191Y-76119D01*
X13545Y-77326D01*
X13148Y-78637D01*
X13014Y-80000D01*
X13148Y-81363D01*
X13545Y-82674D01*
X14191Y-83881D01*
X14801Y-84625D01*
X15024Y-85000D01*
X14801Y-85375D01*
X14191Y-86119D01*
X13545Y-87326D01*
X13148Y-88637D01*
X13014Y-90000D01*
X13148Y-91363D01*
X13545Y-92674D01*
X14191Y-93881D01*
X14801Y-94625D01*
X15024Y-95000D01*
X14801Y-95375D01*
X14191Y-96119D01*
X13545Y-97326D01*
X13148Y-98637D01*
X13014Y-100000D01*
X13148Y-101363D01*
X13545Y-102674D01*
X14191Y-103881D01*
X14801Y-104625D01*
X15024Y-105000D01*
X14801Y-105375D01*
X14191Y-106119D01*
X13545Y-107326D01*
X13148Y-108637D01*
X13014Y-110000D01*
X13148Y-111363D01*
X13545Y-112674D01*
X14191Y-113881D01*
X14801Y-114625D01*
X15024Y-115000D01*
X14801Y-115375D01*
X14191Y-116119D01*
X13545Y-117326D01*
X13148Y-118637D01*
X13014Y-120000D01*
X13148Y-121363D01*
X13545Y-122674D01*
X14191Y-123881D01*
X14801Y-124625D01*
X15024Y-125000D01*
X14801Y-125375D01*
X14191Y-126119D01*
X13545Y-127326D01*
X13148Y-128637D01*
X13014Y-130000D01*
X13148Y-131363D01*
X13545Y-132674D01*
X14191Y-133881D01*
X15060Y-134940D01*
X16119Y-135809D01*
X17326Y-136455D01*
X18637Y-136852D01*
X20000Y-136986D01*
X21363Y-136852D01*
X22674Y-136455D01*
X23881Y-135809D01*
X24927Y-134951D01*
X24940Y-134941D01*
X25156Y-134729D01*
X25373Y-134539D01*
X69389D01*
X69580Y-135001D01*
X49120Y-155461D01*
X26953D01*
Y-153047D01*
X16599D01*
Y-150602D01*
X4600D01*
X4539Y-150127D01*
Y-66600D01*
X13047D01*
Y-66953D01*
D02*
G37*
G36*
X135349Y-151165D02*
X135370Y-151305D01*
X135406Y-151445D01*
X135457Y-151586D01*
X135521Y-151727D01*
X135600Y-151869D01*
X135694Y-152011D01*
X135802Y-152154D01*
X135924Y-152297D01*
X136061Y-152440D01*
Y-153855D01*
X135924Y-153725D01*
X135802Y-153624D01*
X135694Y-153552D01*
X135600Y-153509D01*
X135521Y-153495D01*
X135457Y-153509D01*
X135406Y-153552D01*
X135370Y-153624D01*
X135349Y-153725D01*
X135342Y-153855D01*
Y-151026D01*
X135349Y-151165D01*
D02*
G37*
G36*
X125458Y-155052D02*
X125450Y-155093D01*
X125443Y-155153D01*
X125428Y-155445D01*
X125421Y-156096D01*
X124421D01*
X124376Y-155029D01*
X125466D01*
X125458Y-155052D01*
D02*
G37*
G36*
X127426D02*
X127419Y-155093D01*
X127412Y-155153D01*
X127397Y-155445D01*
X127390Y-156096D01*
X126390D01*
X126345Y-155029D01*
X127435D01*
X127426Y-155052D01*
D02*
G37*
G36*
X129395D02*
X129387Y-155093D01*
X129380Y-155153D01*
X129366Y-155445D01*
X129358Y-156096D01*
X128358D01*
X128313Y-155029D01*
X129403D01*
X129395Y-155052D01*
D02*
G37*
G36*
X94971Y-137435D02*
X94948Y-137426D01*
X94907Y-137419D01*
X94847Y-137412D01*
X94555Y-137397D01*
X93904Y-137390D01*
Y-136390D01*
X94971Y-136345D01*
Y-137435D01*
D02*
G37*
G36*
Y-121687D02*
X94948Y-121678D01*
X94907Y-121670D01*
X94847Y-121664D01*
X94555Y-121649D01*
X93904Y-121642D01*
Y-120642D01*
X94971Y-120597D01*
Y-121687D01*
D02*
G37*
G36*
X145052Y-120605D02*
X145093Y-120613D01*
X145153Y-120620D01*
X145445Y-120634D01*
X146096Y-120642D01*
Y-121642D01*
X145029Y-121687D01*
Y-120597D01*
X145052Y-120605D01*
D02*
G37*
G36*
Y-122574D02*
X145093Y-122581D01*
X145153Y-122588D01*
X145445Y-122603D01*
X146096Y-122610D01*
Y-123610D01*
X145029Y-123655D01*
Y-122565D01*
X145052Y-122574D01*
D02*
G37*
G36*
X22956Y-120454D02*
X23007Y-121214D01*
X23056Y-121551D01*
X23120Y-121858D01*
X23198Y-122136D01*
X23292Y-122386D01*
X23401Y-122605D01*
X23525Y-122796D01*
X23664Y-122957D01*
X22957Y-123664D01*
X22796Y-123525D01*
X22605Y-123401D01*
X22386Y-123292D01*
X22137Y-123198D01*
X21858Y-123119D01*
X21551Y-123056D01*
X21215Y-123007D01*
X20454Y-122956D01*
X20030Y-122953D01*
X22953Y-120029D01*
X22956Y-120454D01*
D02*
G37*
G36*
X94971Y-123655D02*
X94948Y-123647D01*
X94907Y-123639D01*
X94847Y-123632D01*
X94555Y-123617D01*
X93904Y-123610D01*
Y-122610D01*
X94971Y-122565D01*
Y-123655D01*
D02*
G37*
G36*
X145052Y-116668D02*
X145093Y-116676D01*
X145153Y-116683D01*
X145445Y-116698D01*
X146096Y-116705D01*
Y-117705D01*
X145029Y-117750D01*
Y-116660D01*
X145052Y-116668D01*
D02*
G37*
G36*
Y-114700D02*
X145093Y-114707D01*
X145153Y-114714D01*
X145445Y-114729D01*
X146096Y-114736D01*
Y-115736D01*
X145029Y-115781D01*
Y-114691D01*
X145052Y-114700D01*
D02*
G37*
G36*
X94971Y-117750D02*
X94948Y-117741D01*
X94907Y-117734D01*
X94847Y-117727D01*
X94555Y-117712D01*
X93904Y-117705D01*
Y-116705D01*
X94971Y-116660D01*
Y-117750D01*
D02*
G37*
G36*
Y-119718D02*
X94948Y-119710D01*
X94907Y-119702D01*
X94847Y-119695D01*
X94555Y-119680D01*
X93904Y-119673D01*
Y-118673D01*
X94971Y-118628D01*
Y-119718D01*
D02*
G37*
G36*
X145052Y-118637D02*
X145093Y-118644D01*
X145153Y-118651D01*
X145445Y-118666D01*
X146096Y-118673D01*
Y-119673D01*
X145029Y-119718D01*
Y-118628D01*
X145052Y-118637D01*
D02*
G37*
G36*
Y-124542D02*
X145093Y-124550D01*
X145153Y-124557D01*
X145445Y-124572D01*
X146096Y-124579D01*
Y-125579D01*
X145029Y-125624D01*
Y-124534D01*
X145052Y-124542D01*
D02*
G37*
G36*
Y-132416D02*
X145093Y-132424D01*
X145153Y-132431D01*
X145445Y-132446D01*
X146096Y-132453D01*
Y-133453D01*
X145029Y-133498D01*
Y-132408D01*
X145052Y-132416D01*
D02*
G37*
G36*
X22411Y-128231D02*
X22985Y-128732D01*
X23258Y-128936D01*
X23520Y-129108D01*
X23772Y-129249D01*
X24015Y-129359D01*
X24247Y-129437D01*
X24469Y-129484D01*
X24682Y-129500D01*
Y-130500D01*
X24469Y-130516D01*
X24247Y-130563D01*
X24015Y-130641D01*
X23772Y-130751D01*
X23520Y-130892D01*
X23258Y-131064D01*
X22985Y-131268D01*
X22411Y-131769D01*
X22109Y-132067D01*
Y-127933D01*
X22411Y-128231D01*
D02*
G37*
G36*
X214762Y-134657D02*
X214784Y-134686D01*
X214844Y-134963D01*
X214844Y-135036D01*
X214784Y-135314D01*
X214762Y-135343D01*
X214627Y-135461D01*
X181380D01*
X180920Y-135001D01*
X181111Y-134539D01*
X214627D01*
X214762Y-134657D01*
D02*
G37*
G36*
X145052Y-136353D02*
X145093Y-136361D01*
X145153Y-136368D01*
X145445Y-136383D01*
X146096Y-136390D01*
Y-137390D01*
X145029Y-137435D01*
Y-136345D01*
X145052Y-136353D01*
D02*
G37*
G36*
Y-134385D02*
X145093Y-134392D01*
X145153Y-134399D01*
X145445Y-134414D01*
X146096Y-134421D01*
Y-135421D01*
X145029Y-135466D01*
Y-134376D01*
X145052Y-134385D01*
D02*
G37*
G36*
Y-130448D02*
X145093Y-130456D01*
X145153Y-130462D01*
X145445Y-130477D01*
X146096Y-130484D01*
Y-131484D01*
X145029Y-131529D01*
Y-130439D01*
X145052Y-130448D01*
D02*
G37*
G36*
Y-128479D02*
X145093Y-128487D01*
X145153Y-128494D01*
X145445Y-128508D01*
X146096Y-128516D01*
Y-129516D01*
X145029Y-129561D01*
Y-128471D01*
X145052Y-128479D01*
D02*
G37*
G36*
Y-126511D02*
X145093Y-126518D01*
X145153Y-126525D01*
X145445Y-126540D01*
X146096Y-126547D01*
Y-127547D01*
X145029Y-127592D01*
Y-126502D01*
X145052Y-126511D01*
D02*
G37*
G36*
X217891Y-132067D02*
X217589Y-131769D01*
X217015Y-131268D01*
X216742Y-131064D01*
X216480Y-130892D01*
X216228Y-130751D01*
X215985Y-130641D01*
X215753Y-130563D01*
X215531Y-130516D01*
X215318Y-130500D01*
Y-129500D01*
X215531Y-129484D01*
X215753Y-129437D01*
X215985Y-129359D01*
X216228Y-129249D01*
X216480Y-129108D01*
X216742Y-128936D01*
X217015Y-128732D01*
X217589Y-128231D01*
X217891Y-127933D01*
Y-132067D01*
D02*
G37*
%LPC*%
G36*
X13500Y-32500D02*
X10000D01*
Y-35500D01*
X9633Y-35978D01*
X9129Y-37195D01*
X8957Y-38500D01*
X9129Y-39805D01*
X9633Y-41022D01*
X10000Y-41500D01*
Y-44500D01*
X13500D01*
Y-38500D01*
Y-32500D01*
D02*
G37*
G36*
X178746Y-275599D02*
X172356D01*
Y-281989D01*
X173210Y-281905D01*
X174511Y-281510D01*
X175711Y-280869D01*
X176762Y-280006D01*
X177625Y-278954D01*
X178267Y-277755D01*
X178662Y-276453D01*
X178746Y-275599D01*
D02*
G37*
G36*
X171356D02*
X164966D01*
X165050Y-276453D01*
X165445Y-277755D01*
X166086Y-278954D01*
X166949Y-280006D01*
X168001Y-280869D01*
X169201Y-281510D01*
X170502Y-281905D01*
X171356Y-281989D01*
Y-275599D01*
D02*
G37*
G36*
Y-323001D02*
X164966D01*
X165050Y-323854D01*
X165445Y-325156D01*
X166086Y-326356D01*
X166949Y-327407D01*
X168001Y-328270D01*
X169201Y-328911D01*
X170502Y-329306D01*
X171356Y-329391D01*
Y-323001D01*
D02*
G37*
G36*
Y-268210D02*
X170502Y-268294D01*
X169201Y-268689D01*
X168001Y-269330D01*
X166949Y-270193D01*
X166086Y-271244D01*
X165445Y-272444D01*
X165050Y-273745D01*
X164966Y-274599D01*
X171356D01*
Y-268210D01*
D02*
G37*
G36*
X172356D02*
Y-274599D01*
X178746D01*
X178662Y-273745D01*
X178267Y-272444D01*
X177625Y-271244D01*
X176762Y-270193D01*
X175711Y-269330D01*
X174511Y-268689D01*
X173210Y-268294D01*
X172356Y-268210D01*
D02*
G37*
G36*
X178746Y-323001D02*
X172356D01*
Y-329391D01*
X173210Y-329306D01*
X174511Y-328911D01*
X175711Y-328270D01*
X176762Y-327407D01*
X177625Y-326356D01*
X178267Y-325156D01*
X178662Y-323854D01*
X178746Y-323001D01*
D02*
G37*
%LPD*%
D10*
X127753Y-285800D02*
D03*
X121847D02*
D03*
X114753Y-294000D02*
D03*
X108847D02*
D03*
X127753Y-293900D02*
D03*
X121847D02*
D03*
X114853Y-285800D02*
D03*
X108947D02*
D03*
D11*
X68517Y-275566D02*
D03*
Y-278125D02*
D03*
Y-280684D02*
D03*
Y-283243D02*
D03*
Y-285802D02*
D03*
Y-288361D02*
D03*
Y-290920D02*
D03*
Y-293479D02*
D03*
Y-296039D02*
D03*
Y-298598D02*
D03*
Y-301157D02*
D03*
Y-303716D02*
D03*
Y-306275D02*
D03*
Y-308834D02*
D03*
X95683Y-275566D02*
D03*
Y-278125D02*
D03*
Y-280684D02*
D03*
Y-283243D02*
D03*
Y-285802D02*
D03*
Y-288361D02*
D03*
Y-290920D02*
D03*
Y-293479D02*
D03*
Y-296039D02*
D03*
Y-298598D02*
D03*
Y-301157D02*
D03*
Y-303716D02*
D03*
Y-306275D02*
D03*
Y-308834D02*
D03*
D12*
X105236Y-108150D02*
D03*
X107205D02*
D03*
X109173D02*
D03*
X111142D02*
D03*
X113110D02*
D03*
X115079D02*
D03*
X117047D02*
D03*
X119016D02*
D03*
X120984D02*
D03*
X122953D02*
D03*
X124921D02*
D03*
X126890D02*
D03*
X128858D02*
D03*
X130827D02*
D03*
X132795D02*
D03*
X134764D02*
D03*
Y-151850D02*
D03*
X132795D02*
D03*
X130827D02*
D03*
X128858D02*
D03*
X126890D02*
D03*
X124921D02*
D03*
X122953D02*
D03*
X120984D02*
D03*
X119016D02*
D03*
X117047D02*
D03*
X115079D02*
D03*
X113110D02*
D03*
X111142D02*
D03*
X109173D02*
D03*
X107205D02*
D03*
X105236D02*
D03*
D13*
X141850Y-115236D02*
D03*
Y-117205D02*
D03*
Y-119173D02*
D03*
Y-121142D02*
D03*
Y-123110D02*
D03*
Y-125079D02*
D03*
Y-127047D02*
D03*
Y-129016D02*
D03*
Y-130984D02*
D03*
Y-132953D02*
D03*
Y-134921D02*
D03*
Y-136890D02*
D03*
Y-138858D02*
D03*
Y-140827D02*
D03*
Y-142795D02*
D03*
Y-144764D02*
D03*
X98150D02*
D03*
Y-142795D02*
D03*
Y-140827D02*
D03*
Y-138858D02*
D03*
Y-136890D02*
D03*
Y-134921D02*
D03*
Y-132953D02*
D03*
Y-130984D02*
D03*
Y-129016D02*
D03*
Y-127047D02*
D03*
Y-125079D02*
D03*
Y-123110D02*
D03*
Y-121142D02*
D03*
Y-119173D02*
D03*
Y-117205D02*
D03*
Y-115236D02*
D03*
D14*
X58720Y-290920D02*
X68517D01*
X95683Y-296039D02*
X102039D01*
X106300Y-300300D01*
X126800D01*
X127753Y-299347D01*
Y-293900D02*
Y-285800D01*
X121847Y-285800D02*
X121847Y-285800D01*
X114853Y-285800D02*
X121847D01*
X114853Y-293900D02*
X121847D01*
X95683Y-288361D02*
X106386D01*
X108947Y-285800D01*
X95683Y-290920D02*
X105768D01*
X108847Y-294000D01*
X95683Y-283243D02*
Y-280684D01*
Y-303716D02*
X103616D01*
X90143Y-301157D02*
X95683D01*
X88300Y-299313D02*
X90143Y-301157D01*
X88300Y-285600D02*
X90657Y-283243D01*
X95683D01*
X88480Y-293479D02*
X95683D01*
X68517Y-290920D02*
X88080D01*
X88300Y-290700D01*
Y-299313D02*
Y-290700D01*
Y-285600D01*
X58643Y-283243D02*
X68517D01*
X55684Y-303716D02*
X68517D01*
X34700Y-324700D02*
X55684Y-303716D01*
X34700Y-334100D02*
Y-324700D01*
X68517Y-306275D02*
X74475D01*
X76800Y-308600D01*
Y-312000D02*
Y-308600D01*
X54700Y-334100D02*
X76800Y-312000D01*
X44700Y-332651D02*
X68517Y-308834D01*
X44700Y-334100D02*
Y-332651D01*
X63625Y-278125D02*
X68517D01*
X42200Y-256700D02*
X63625Y-278125D01*
X28100Y-256700D02*
X42200D01*
X61884Y-280684D02*
X68517D01*
X57900Y-276700D02*
X61884Y-280684D01*
X28100Y-276700D02*
X57900D01*
X62561Y-288361D02*
X68517D01*
X61200Y-287000D02*
X62561Y-288361D01*
X29998Y-298598D02*
X68517D01*
X28100Y-296700D02*
X29998Y-298598D01*
X21900Y-298400D02*
Y-292900D01*
X28100Y-286700D01*
X23100Y-306700D02*
X28100D01*
X18200Y-301800D02*
X23100Y-306700D01*
X18200Y-301800D02*
Y-287500D01*
X24000Y-281700D01*
X49300D01*
X54600Y-287000D01*
X61200D01*
X68517Y-296039D02*
X73739D01*
X80000Y-302300D01*
Y-318600D02*
Y-302300D01*
X56800Y-341800D02*
X80000Y-318600D01*
X30500Y-341800D02*
X56800D01*
X13100Y-324400D02*
X30500Y-341800D01*
X13100Y-324400D02*
Y-281700D01*
X28100Y-266700D01*
X68517Y-275566D02*
X104584Y-239500D01*
X190500D01*
X200000Y-230000D01*
X68517Y-285802D02*
X74198D01*
X115000Y-245000D01*
X177000D01*
X127753Y-299347D02*
Y-293900D01*
X21900Y-298400D02*
X24657Y-301157D01*
X68517D01*
D15*
X93890Y-136890D02*
X98150D01*
X91500Y-134500D02*
X93890Y-136890D01*
X76500Y-134500D02*
X91500D01*
X51000Y-160000D02*
X76500Y-134500D01*
X20000Y-160000D02*
X51000D01*
X91358Y-138858D02*
X98150D01*
X20000Y-170000D02*
X46000D01*
X20000Y-180000D02*
X40500D01*
X79673Y-140827D02*
X98150D01*
X40500Y-180000D02*
X79673Y-140827D01*
X46000Y-170000D02*
X78500Y-137500D01*
X90000D01*
X91358Y-138858D01*
X92705Y-142795D02*
X98150D01*
X90000Y-145500D02*
X92705Y-142795D01*
X80000Y-145500D02*
X90000D01*
X35500Y-190000D02*
X80000Y-145500D01*
X20000Y-190000D02*
X35500D01*
X95236Y-144764D02*
X98150D01*
X90000Y-150000D02*
X95236Y-144764D01*
X81500Y-150000D02*
X90000D01*
X31500Y-200000D02*
X81500Y-150000D01*
X20000Y-200000D02*
X31500D01*
X94650Y-151850D02*
X105236D01*
X91500Y-155000D02*
X94650Y-151850D01*
X20000Y-210000D02*
X26500D01*
X81500Y-155000D01*
X91500D01*
X107205Y-155795D02*
Y-151850D01*
X104000Y-159000D02*
X107205Y-155795D01*
X83000Y-159000D02*
X104000D01*
X22000Y-220000D02*
X83000Y-159000D01*
X20000Y-220000D02*
X22000D01*
X109173Y-157327D02*
Y-151850D01*
X103500Y-163000D02*
X109173Y-157327D01*
X84500Y-163000D02*
X103500D01*
X28500Y-219000D02*
X84500Y-163000D01*
X28500Y-224500D02*
Y-219000D01*
X20000Y-230000D02*
X23000D01*
X28500Y-224500D01*
X111142Y-159358D02*
Y-151850D01*
X50000Y-220500D02*
X111142Y-159358D01*
X50000Y-230000D02*
Y-220500D01*
X60000Y-230000D02*
Y-215500D01*
X113110Y-162390D01*
Y-151850D01*
X70000Y-230000D02*
Y-211000D01*
X115079Y-165921D01*
Y-151850D01*
X117047Y-169453D02*
Y-151850D01*
X80000Y-206500D02*
X117047Y-169453D01*
X80000Y-230000D02*
Y-206500D01*
X90000Y-230000D02*
Y-202000D01*
X119016Y-172984D01*
Y-151850D01*
X120984Y-177016D02*
Y-151850D01*
X100000Y-198000D02*
X120984Y-177016D01*
X100000Y-230000D02*
Y-198000D01*
X122953Y-181047D02*
Y-151850D01*
X110000Y-194000D02*
X122953Y-181047D01*
X110000Y-230000D02*
Y-194000D01*
X124921Y-185079D02*
Y-151850D01*
X120000Y-190000D02*
X124921Y-185079D01*
X120000Y-230000D02*
Y-190000D01*
X134764Y-151850D02*
X190000Y-207087D01*
Y-230000D02*
Y-207087D01*
X132795Y-155795D02*
Y-151850D01*
Y-155795D02*
X180000Y-203000D01*
Y-230000D02*
Y-203000D01*
X130827Y-159327D02*
Y-151850D01*
Y-159327D02*
X170000Y-198500D01*
Y-230000D02*
Y-198500D01*
X128858Y-162858D02*
Y-151850D01*
Y-162858D02*
X160000Y-194000D01*
Y-230000D02*
Y-194000D01*
X126890Y-166390D02*
Y-151850D01*
Y-166390D02*
X150000Y-189500D01*
Y-230000D02*
Y-189500D01*
X107336Y-108150D02*
X109173D01*
X107205D02*
Y-101205D01*
X106500Y-100500D02*
X107205Y-101205D01*
X98150Y-115236D02*
X105236Y-108150D01*
X90500Y-112000D02*
X94913D01*
X98150Y-115236D01*
X102000Y-105000D02*
Y-100500D01*
Y-105000D02*
X102087D01*
X105236Y-108150D01*
X94421Y-125079D02*
X98150D01*
X89500Y-130000D02*
X94421Y-125079D01*
X20000Y-130000D02*
X89500D01*
X91890Y-123110D02*
X98150D01*
X89500Y-125500D02*
X91890Y-123110D01*
X25500Y-125500D02*
X89500D01*
X20000Y-120000D02*
X25500Y-125500D01*
X31142Y-121142D02*
X98150D01*
X20000Y-110000D02*
X31142Y-121142D01*
X93705Y-117205D02*
X98150D01*
X92500Y-116000D02*
X93705Y-117205D01*
X89000Y-116000D02*
X92500D01*
X87173Y-119173D02*
X98150D01*
X84500Y-116500D02*
X87173Y-119173D01*
X36500Y-116500D02*
X84500D01*
X20000Y-100000D02*
X36500Y-116500D01*
X20000Y-90000D02*
X41500Y-111500D01*
X84500D01*
X89000Y-116000D01*
X111142Y-108150D02*
Y-99642D01*
X108500Y-97000D02*
X111142Y-99642D01*
X37000Y-97000D02*
X108500D01*
X20000Y-80000D02*
X37000Y-97000D01*
X113110Y-108150D02*
Y-96610D01*
X20000Y-70000D02*
X42500Y-92500D01*
X109000D01*
X113110Y-96610D01*
X115079Y-108150D02*
Y-93079D01*
X20000Y-60000D02*
X48000Y-88000D01*
X110000D01*
X115079Y-93079D01*
X134764Y-108150D02*
X144350D01*
X202500Y-50000D01*
X220000D01*
X132795Y-108150D02*
Y-104205D01*
X136000Y-101000D01*
X146500D01*
X207500Y-40000D01*
X220000D01*
X130827Y-108150D02*
Y-101173D01*
X134500Y-97500D01*
X144500D01*
X212000Y-30000D01*
X220000D01*
X127000Y-100500D02*
X167500Y-60000D01*
Y-37500D01*
X160000Y-30000D02*
X167500Y-37500D01*
X122953Y-108150D02*
Y-103047D01*
X124500Y-101500D01*
Y-98500D01*
X154500Y-68500D01*
Y-34500D01*
X150000Y-30000D02*
X154500Y-34500D01*
X120984Y-108150D02*
Y-101016D01*
X122000Y-100000D01*
Y-96000D01*
X145000Y-73000D01*
Y-35000D01*
X140000Y-30000D02*
X145000Y-35000D01*
X119016Y-108150D02*
Y-98984D01*
X120000Y-98000D01*
Y-93500D01*
X135000Y-78500D01*
Y-35000D01*
X130000Y-30000D02*
X135000Y-35000D01*
X117047Y-108150D02*
Y-85547D01*
X117000Y-85500D02*
X117047Y-85547D01*
X141850Y-152850D02*
Y-144764D01*
X200000Y-230000D02*
Y-211000D01*
X141850Y-152850D02*
X200000Y-211000D01*
X148500Y-153500D02*
X210000Y-215000D01*
Y-230000D02*
Y-215000D01*
X141850Y-140827D02*
X147327D01*
X152500Y-146000D01*
Y-151500D02*
Y-146000D01*
Y-151500D02*
X220000Y-219000D01*
Y-230000D02*
Y-219000D01*
X141850Y-138858D02*
X149858D01*
X211000Y-200000D01*
X220000D01*
X141850Y-136890D02*
X152390D01*
X205500Y-190000D01*
X220000D01*
X141850Y-134921D02*
X155421D01*
X200500Y-180000D01*
X220000D01*
X141850Y-132953D02*
X157953D01*
X195000Y-170000D01*
X220000D01*
X141850Y-130984D02*
X160484D01*
X189500Y-160000D01*
X220000D01*
X141850Y-129016D02*
X163516D01*
X184500Y-150000D01*
X220000D01*
X141850Y-127047D02*
X166547D01*
X179500Y-140000D01*
X220000D01*
X141850Y-125079D02*
X169079D01*
X174000Y-130000D01*
X220000D01*
X141850Y-123110D02*
X162890D01*
X186000Y-100000D01*
X220000D01*
X141850Y-121142D02*
X159358D01*
X190500Y-90000D01*
X220000D01*
X141850Y-119173D02*
X155827D01*
X195000Y-80000D01*
X220000D01*
X141850Y-117205D02*
X151795D01*
X199000Y-70000D01*
X220000D01*
X141850Y-115236D02*
X146764D01*
X202000Y-60000D01*
X220000D01*
X141850Y-142795D02*
X145795D01*
X148500Y-145500D01*
Y-153500D02*
Y-145500D01*
X127000Y-102500D02*
Y-100500D01*
X126107Y-103306D02*
X126194D01*
X127000Y-102500D01*
X124921Y-104492D02*
X126107Y-103306D01*
X124921Y-108150D02*
Y-104492D01*
X9600Y-161600D02*
X11599D01*
X10600D01*
Y-155602D01*
X9600Y-156602D01*
X41599Y-231600D02*
X37600D01*
X41599Y-227601D01*
Y-226602D01*
X40599Y-225602D01*
X38600D01*
X37600Y-226602D01*
X137600D02*
X138600Y-225602D01*
X140599D01*
X141599Y-226602D01*
Y-227601D01*
X140599Y-228601D01*
X139599D01*
X140599D01*
X141599Y-229601D01*
Y-230600D01*
X140599Y-231600D01*
X138600D01*
X137600Y-230600D01*
X219499Y-121500D02*
Y-115502D01*
X216500Y-118501D01*
X220499D01*
X221499Y-16002D02*
X217500D01*
Y-19001D01*
X219499Y-18001D01*
X220499D01*
X221499Y-19001D01*
Y-21000D01*
X220499Y-22000D01*
X218500D01*
X217500Y-21000D01*
X11599Y-55602D02*
X9599Y-56602D01*
X7600Y-58601D01*
Y-60600D01*
X8600Y-61600D01*
X10599D01*
X11599Y-60600D01*
Y-59601D01*
X10599Y-58601D01*
X7600D01*
X181500Y-342500D02*
Y-338501D01*
X183499Y-336502D01*
X185499Y-338501D01*
Y-342500D01*
Y-339501D01*
X181500D01*
X187498Y-342500D02*
X189497D01*
X188498D01*
Y-336502D01*
X187498D01*
X192496Y-344499D02*
Y-338501D01*
X195495D01*
X196495Y-339501D01*
Y-341500D01*
X195495Y-342500D01*
X192496D01*
X199494Y-338501D02*
X201494D01*
X202493Y-339501D01*
Y-342500D01*
X199494D01*
X198495Y-341500D01*
X199494Y-340501D01*
X202493D01*
X208491Y-338501D02*
X205492D01*
X204493Y-339501D01*
Y-341500D01*
X205492Y-342500D01*
X208491D01*
X211490Y-338501D02*
X213490D01*
X214489Y-339501D01*
Y-342500D01*
X211490D01*
X210491Y-341500D01*
X211490Y-340501D01*
X214489D01*
X220487Y-337502D02*
X219488Y-336502D01*
X217488D01*
X216489Y-337502D01*
Y-338501D01*
X217488Y-339501D01*
X219488D01*
X220487Y-340501D01*
Y-341500D01*
X219488Y-342500D01*
X217488D01*
X216489Y-341500D01*
X225486Y-342500D02*
X223486D01*
X222487Y-341500D01*
Y-339501D01*
X223486Y-338501D01*
X225486D01*
X226485Y-339501D01*
Y-340501D01*
X222487D01*
X232484Y-338501D02*
X229485D01*
X228485Y-339501D01*
Y-341500D01*
X229485Y-342500D01*
X232484D01*
D16*
X34000Y-38500D02*
X53500Y-19000D01*
X99000D01*
X110000Y-30000D01*
X14000Y-38500D02*
X19000D01*
X49500Y-8000D01*
X57000D01*
X62500Y-2500D01*
X92500D01*
X120000Y-30000D01*
X110000D02*
X115000Y-35000D01*
Y-83500D02*
Y-35000D01*
Y-83500D02*
X117000Y-85500D01*
X171856Y-322501D02*
Y-304548D01*
X161187Y-293879D02*
X171856Y-304548D01*
X127774Y-293879D02*
X151344D01*
X127753Y-293900D02*
X127774Y-293879D01*
D17*
X95683Y-308834D02*
X98349Y-311500D01*
X95683Y-306275D02*
X100566D01*
X102000Y-307708D01*
Y-309000D02*
Y-307708D01*
Y-309000D02*
X154000D01*
X155000Y-308000D01*
Y-306000D01*
X98349Y-311500D02*
X155035D01*
X157500Y-309035D01*
Y-306000D01*
X152721Y-303721D02*
X155000Y-306000D01*
X151344Y-303721D02*
X152721D01*
X157500Y-306000D02*
X159779Y-303721D01*
X161187D01*
D18*
X108500Y-277001D02*
X110499D01*
X109500D01*
Y-280000D01*
X111499Y-277001D02*
X113498Y-280000D01*
Y-277001D02*
X111499Y-280000D01*
D19*
X172000Y-28000D02*
X170334D01*
X171167D01*
Y-32998D01*
X172000Y-32165D01*
D20*
X28100Y-306700D02*
D03*
Y-296700D02*
D03*
Y-286700D02*
D03*
Y-276700D02*
D03*
Y-266700D02*
D03*
X34700Y-334100D02*
D03*
X44700D02*
D03*
X77000Y-8000D02*
D03*
X67000D02*
D03*
X100000Y-40000D02*
D03*
Y-30000D02*
D03*
X110000Y-40000D02*
D03*
Y-30000D02*
D03*
X120000Y-40000D02*
D03*
Y-30000D02*
D03*
X130000Y-40000D02*
D03*
Y-30000D02*
D03*
X140000Y-40000D02*
D03*
Y-30000D02*
D03*
X150000Y-40000D02*
D03*
Y-30000D02*
D03*
X160000Y-40000D02*
D03*
X187000Y-18500D02*
D03*
Y-28500D02*
D03*
X20000Y-230000D02*
D03*
Y-220000D02*
D03*
Y-210000D02*
D03*
Y-200000D02*
D03*
Y-190000D02*
D03*
Y-180000D02*
D03*
Y-170000D02*
D03*
X120000Y-230000D02*
D03*
X110000D02*
D03*
X100000D02*
D03*
X90000D02*
D03*
X80000D02*
D03*
X70000D02*
D03*
X60000D02*
D03*
X220000D02*
D03*
X210000D02*
D03*
X200000D02*
D03*
X190000D02*
D03*
X180000D02*
D03*
X170000D02*
D03*
X160000D02*
D03*
X220000Y-130000D02*
D03*
Y-140000D02*
D03*
Y-150000D02*
D03*
Y-160000D02*
D03*
Y-170000D02*
D03*
Y-180000D02*
D03*
Y-190000D02*
D03*
Y-30000D02*
D03*
Y-40000D02*
D03*
Y-50000D02*
D03*
Y-60000D02*
D03*
Y-70000D02*
D03*
Y-80000D02*
D03*
Y-90000D02*
D03*
X20000Y-130000D02*
D03*
Y-120000D02*
D03*
Y-110000D02*
D03*
Y-100000D02*
D03*
Y-90000D02*
D03*
Y-80000D02*
D03*
Y-70000D02*
D03*
D21*
X28100Y-256700D02*
D03*
X187000Y-38500D02*
D03*
X20000Y-160000D02*
D03*
X220000Y-200000D02*
D03*
Y-100000D02*
D03*
X20000Y-60000D02*
D03*
D22*
X161187Y-293879D02*
D03*
Y-303721D02*
D03*
X151344Y-293879D02*
D03*
Y-303721D02*
D03*
D23*
X171856Y-322501D02*
D03*
Y-275099D02*
D03*
D24*
X54700Y-334100D02*
D03*
X57000Y-8000D02*
D03*
X160000Y-30000D02*
D03*
X50000Y-230000D02*
D03*
X150000D02*
D03*
D25*
X14000Y-38500D02*
D03*
D26*
Y-8500D02*
D03*
X34000D02*
D03*
Y-38500D02*
D03*
D27*
X58720Y-290920D02*
D03*
X58643Y-283243D02*
D03*
X106500Y-100500D02*
D03*
X90500Y-112000D02*
D03*
X102000Y-100500D02*
D03*
X117000Y-85500D02*
D03*
X177000Y-245000D02*
D03*
D28*
X106300Y-300300D02*
D03*
D29*
X103616Y-303716D02*
D03*
M02*
